<svg width="509" height="278" fill="none" xmlns="http://www.w3.org/2000/svg"><g clip-path="url(#a)" fill="#000"><path d="M167.026 142.631c2.309-2.836 4.45-5.805 6.638-8.728 1-1.33-1.255-2.647-2.241-1.31-2.101 2.855-4.263 5.677-6.243 8.613-.738 1.089 1 2.466 1.846 1.425ZM184.807 120.68c2.215-1.216 4.336-2.593 6.484-3.923 1.497-.927 3.671-1.734 4.175-3.548.067-.235-.081-.557-.342-.598-1.887-.322-3.45 1.223-4.967 2.204-2.121 1.377-4.276 2.708-6.323 4.193-.994.718-.134 2.284.98 1.672h-.007ZM208.628 107.371c2.531-.786 5.008-1.74 7.491-2.654 1.779-.652 3.947-.934 5.014-2.58.201-.309 0-.726-.336-.82-2.006-.584-4.275.901-6.141 1.606-2.269.867-4.551 1.7-6.779 2.674-1.007.444-.289 2.09.745 1.767l.006.007ZM237.61 96.856c2.551.148 4.927-.336 7.424-.772 2.356-.403 5.161-.457 7.195-1.76.43-.276.41-1.035-.147-1.15-2.316-.483-4.753.377-7.048.82-2.631.504-5.195.927-7.652 2.03-.436.194-.174.812.228.832ZM278.851 89.91c1.919.812 4.268.281 6.322.187 2.054-.094 4.457.182 6.377-.745.403-.195.241-.753-.114-.88-2.054-.74-4.585-.148-6.732-.014-1.927.121-4.135-.148-5.847.813-.221.12-.261.53 0 .638h-.006ZM307.691 86.483c1.698.1 3.303-.713 4.873-1.277 1.255-.45 2.826-.699 3.611-1.848.128-.188 0-.457-.208-.51-1.436-.377-3.047.658-4.376 1.175-1.423.558-2.953.975-4.061 2.07-.147.148-.033.376.161.39ZM325.466 71.137c.503-2.822 1.92-6.685.933-9.5-.047-.141-.268-.248-.383-.1-1.839 2.344-1.765 6.308-2.201 9.143-.168 1.075 1.456 1.552 1.651.457ZM325.694 51.109c-.195-1.337-1.537-2.627-2.376-3.655-1.054-1.29-2.001-2.365-3.444-3.205-.268-.154-.691.108-.563.437.604 1.538 1.463 2.6 2.57 3.843.92 1.035 2.014 2.6 3.376 3.01.282.087.47-.181.437-.437v.007ZM308.444 39.761c-1.772-.927-4.168-.631-6.128-.638-2.054-.007-4.262-.316-6.155.591-.355.168-.355.766 0 .94 1.893.908 4.101.599 6.155.592 2.054-.007 4.35.289 6.128-.638.316-.168.316-.679 0-.84v-.007ZM286.052 46.379c-.959 1.223-1.449 2.761-1.986 4.212-.537 1.452-1.208 2.876-.994 4.394.034.222.323.242.463.121 1.088-.94 1.517-2.472 2.007-3.782.557-1.492 1.235-3.01 1.303-4.61.013-.375-.537-.651-.793-.328v-.007ZM286.462 71.964c.959 1.424 2.335 2.62 3.537 3.843.785.8 1.886 2.465 3.134 2.284.074-.013.161-.094.168-.168.208-1.236-1.463-2.392-2.242-3.178-1.208-1.223-2.369-2.607-3.779-3.594-.49-.343-1.147.336-.818.82v-.007ZM320.269 93.92c1.9 1.163 4.135 1.7 6.249 2.345 1.853.564 3.82 1.532 5.773 1.236.268-.04.349-.436.161-.604-1.484-1.297-3.685-1.532-5.538-2.05-2.134-.59-4.289-1.337-6.517-1.377-.248 0-.322.33-.121.457l-.007-.007ZM348.67 99.194c2.96.269 5.745-.221 8.665-.658 2.92-.437 5.739-.645 8.343-1.868.188-.087.154-.443-.06-.477-2.497-.343-4.961.134-7.437.51-3.269.498-6.491.827-9.565 2.09-.215.088-.181.383.054.403ZM383.035 92.012c5.88-.893 14.035-4.777 16.385-10.683.302-.765-.725-1.101-1.222-.712-2.477 1.955-4.222 4.522-6.92 6.33-2.698 1.807-5.538 3.01-8.551 3.936-.732.229-.416 1.237.308 1.122v.007ZM410.307 69.317c.98-2.043 1.966-4.085 2.899-6.155.638-1.417 1.819-3.023 1.37-4.602-.074-.255-.349-.35-.578-.235-1.577.786-2.04 3.11-2.705 4.642-.825 1.909-1.59 3.837-2.382 5.758-.329.793 1.02 1.364 1.396.592ZM421.482 46.829c2.135-1.357 4.122-2.896 6.128-4.434 1.591-1.223 3.786-2.406 4.598-4.28.202-.464-.127-.907-.631-.82-1.993.33-3.711 2.204-5.255 3.433-1.98 1.573-3.947 3.145-5.779 4.892-.625.598.188 1.686.933 1.209h.006ZM454.512 10.952c4.256-.195 8.511-1.6 12.673-2.486 4.806-1.028 9.611-2.03 14.444-2.916a349.368 349.368 0 0 1 13.914-2.264c4.289-.612 9.31-.504 13.277-2.305.295-.134.214-.625-.088-.692-3.913-.84-8.517.356-12.444.914A342.904 342.904 0 0 0 481.757 3.6c-4.826.9-9.223 1.787-13.794 2.87-4.571 1.08-9.437 1.887-13.578 3.997-.228.114-.121.497.134.484h-.007Z"/><path d="M508.282.396c-4.188.397-8.645 2.795-12.525 4.388-4.336 1.774-8.584 3.816-12.752 5.946-8.458 4.32-16.807 9.016-23.969 15.312-.094.087.027.228.134.174 8.162-4.394 15.921-9.473 24.143-13.753 3.927-2.042 7.914-3.944 11.941-5.764 2.51-1.136 4.987-2.305 7.558-3.3 1.933-.745 3.886-1.303 5.604-2.478.202-.142.155-.545-.141-.511l.007-.014ZM453.237 10.078c-1.054 1.33-2.108 2.654-3.148 3.984-.725.927-1.967 1.976-1.88 3.239.014.168.141.255.302.228 1.249-.201 2.034-1.713 2.786-2.634 1.007-1.25 2-2.506 3-3.755.598-.746-.463-1.814-1.054-1.055l-.006-.007Z"/><path d="M449.316 16.864c8.169-.867 16.425-4.132 24.311-6.363 8.431-2.385 17.11-4.562 25.292-7.7.14-.053.087-.255-.061-.228-8.605 1.64-17.129 4.354-25.546 6.766-7.88 2.257-16.626 3.823-24.022 7.39-.061.027-.034.142.033.135h-.007Z"/><path d="M453.418 15.802c1.557 3.245 3.007 6.914 5.134 9.83.336.456 1.168.208.98-.41-1.053-3.507-3.134-6.934-4.805-10.179-.45-.873-1.719-.107-1.303.766l-.006-.007Z"/></g><g clip-path="url(#b)" fill="#000"><path d="M49.142 276.884c21.874.34 43.773.086 65.652.086l65.653.008h18.055c6.02 0 12.619.262 18.877-.18.974-.07.982-1.594 0-1.521-.804.058-1.609.132-2.414.205a.558.558 0 0 0 0 1.115c.805.074 1.61.143 2.414.205v-1.521c-5.445-.381-10.96-.176-16.413-.18-5.453-.004-10.943 0-16.413 0h-32.826l-65.653.012c-12.306 0-24.621-.106-36.928.082-1.088.017-1.093 1.672 0 1.689h-.004Z"/><path d="M39.65 207.118c.838 5.782 2.243 11.499 3.203 17.265a349.183 349.183 0 0 1 2.505 17.962 347.081 347.081 0 0 1 1.963 25.925c.107 2.799-.39 6.052.497 8.573.21.602 1.051.631 1.253 0 .804-2.525.16-5.942.061-8.573-.11-2.935-.259-5.865-.443-8.795a335.843 335.843 0 0 0-1.606-17.925 347.29 347.29 0 0 0-2.382-16.851c-.993-5.979-1.885-12.159-3.613-17.978-.28-.943-1.573-.529-1.438.397ZM218.537 276.806c.469-2.635.177-5.475.198-8.147.024-2.93.094-5.856.176-8.782.164-5.856.481-11.704.949-17.544a336.509 336.509 0 0 1 3.149-26.314c.436-2.746 1.388-5.729 1.056-8.508-.054-.459-.698-.758-.961-.258-1.294 2.447-1.433 5.57-1.869 8.278a338.677 338.677 0 0 0-4.114 43.547 270.687 270.687 0 0 0-.107 8.782c.008 2.905-.267 6.102.361 8.942.124.557 1.056.586 1.162 0v.004Z"/><path d="M223.567 206.381c-23.759-.607-47.576-.242-71.344-.291-23.78-.05-47.564-.09-71.344-.127-13.378-.021-26.806-.377-40.18-.017-1.18.033-1.18 1.787 0 1.824 12.006.369 24.067.106 36.082.131l35.261.078c23.78.053 47.564.094 71.344.135 13.391.025 26.794.221 40.181-.07 1.072-.024 1.072-1.635 0-1.659v-.004Z"/><path d="M223.583 207.692c1.388-.84 2.242-2.516 3.252-3.754a79.156 79.156 0 0 1 3.63-4.163 70.096 70.096 0 0 1 8.5-7.672 69.163 69.163 0 0 1 13.974-8.245c1.688-.742 3.519-1.099 4.878-2.213.51-.418.074-1.242-.517-1.246-1.61-.008-3.264.93-4.726 1.557a69.44 69.44 0 0 0-5.277 2.533 70.33 70.33 0 0 0-9.814 6.36 68.467 68.467 0 0 0-8.119 7.368 60.94 60.94 0 0 0-3.675 4.283c-1.022 1.315-2.591 2.914-2.895 4.59-.078.434.358.86.785.602h.004ZM41.527 206.889c-2.283-3.307-5.819-5.955-8.952-8.43a105.73 105.73 0 0 0-10.163-7.126 107.179 107.179 0 0 0-16.688-8.352c-1.594-.631-3.585-1.84-5.31-1.435-.472.111-.521.664-.263.988.986 1.217 2.978 1.52 4.402 2.078a101.39 101.39 0 0 1 6.156 2.647 105.87 105.87 0 0 1 10.697 5.787c3.45 2.131 6.85 4.475 10.06 6.999 3.126 2.455 5.926 5.467 9.22 7.672.496.332 1.182-.336.837-.836l.004.008ZM42.583 206.217c-.086-2.115-1.047-4.246-1.688-6.254a911.663 911.663 0 0 1-2.258-7.188 558.042 558.042 0 0 1-4.172-14.069 542.713 542.713 0 0 1-7.182-28.453c-.267-1.192-2.107-.688-1.836.505a533.794 533.794 0 0 0 7.21 28.444 528.334 528.334 0 0 0 4.079 13.684 395.05 395.05 0 0 0 2.332 7.167c.702 2.098 1.252 4.607 2.538 6.426.279.393 1.002.295.977-.262Z"/><path d="M26.272 150.979c4.254-.75 8.43-2.049 12.647-3 4.218-.951 8.73-1.869 13.12-2.66a300.934 300.934 0 0 1 19.616-2.885c2.115-.242 4.44-.213 6.476-.836.887-.27.645-1.447-.21-1.537-2.16-.233-4.5.287-6.656.537-2.04.238-4.077.496-6.11.775a306.221 306.221 0 0 0-13.223 2.098 289.481 289.481 0 0 0-12.73 2.602c-4.438 1.008-9.058 1.893-13.328 3.484-.896.331-.55 1.594.394 1.426l.004-.004Z"/><path d="M76.978 141.373c4.295 10.876 8.94 21.56 12.762 32.624 3.823 11.057 7.076 22.265 10.098 33.564.275 1.028 1.844.594 1.597-.439-2.739-11.483-6.217-22.818-10.114-33.957-3.897-11.138-7.851-21.994-13.041-32.337-.358-.709-1.602-.209-1.302.549v-.004Z"/><path d="M90.074 173.965c1.556-.299 2.143-2.873 2.767-4.147.719-1.48 2.148-3.287 1.79-4.971-.06-.299-.422-.398-.665-.271-1.58.832-2.16 3.467-2.866 5.033-.538 1.188-1.905 3.012-1.195 4.29.033.062.103.082.169.07v-.004Z"/><path d="M93.37 165.289c.797 1.565 3.742 1.717 5.29 2.274a49.95 49.95 0 0 1 3.897 1.591c1.018.467 1.655.942 2.772.885.369-.021.677-.435.447-.779-1.117-1.701-4.11-2.418-5.966-3.094-1.61-.586-4.805-2.291-6.357-1.197-.107.078-.148.201-.086.324l.004-.004Z"/><path d="M103.871 169.35c-.702 1.467-1.256 3.025-1.852 4.541-.411 1.041 1.273 1.492 1.68.463.566-1.447 1.199-2.893 1.659-4.377.266-.86-1.085-1.467-1.487-.627Z"/><path d="M102.734 175.051c6.135 2.373 12.483 4.274 18.721 6.368 3.059 1.029 6.118 2.058 9.177 3.082 1.532.512 3.064 1.021 4.591 1.529 1.446.483 2.924 1.188 4.464 1.172.739-.008.858-.89.349-1.279-1.133-.865-2.575-1.151-3.922-1.602-1.531-.512-3.059-1.025-4.591-1.533-3.19-1.061-6.381-2.114-9.571-3.172-6.242-2.065-12.455-4.36-18.783-6.139-1.035-.291-1.396 1.201-.435 1.574Z"/><path d="M138.655 187.202c1.827.422 3.548 1.032 5.154 2.012 1.026.631 2.11 2.172 3.4 1.795.131-.037.262-.148.287-.287l.049-.246c.058-.295.021-.647-.226-.861-2.365-2.024-5.161-3.413-8.249-3.921-.973-.16-1.417 1.274-.415 1.508Z"/><path d="M146.483 189.677c-1.979 2.573-3.084 6.237-4.423 9.188-.649 1.43-1.301 2.864-1.946 4.294-.583 1.291-1.507 2.619-1.322 4.057.045.353.414.689.776.443 1.215-.82 1.577-2.25 2.164-3.557.702-1.553 1.396-3.111 2.094-4.664 1.31-2.922 3.281-6.102 3.889-9.249.152-.779-.772-1.119-1.232-.516v.004ZM140.453 186.292c1.002-1.303-.419-3.844-.743-5.311-.247-1.115-.489-2.246-.616-3.385-.144-1.295.201-2.185.542-3.393.152-.545-.444-.935-.912-.701-2.016 1.008-1.466 3.934-1.137 5.745.308 1.709.727 3.41 1.265 5.061.32.984.386 1.779 1.441 2.045.066.017.119-.012.156-.065l.004.004Z"/><path d="M138.609 174.674c4.275-.029 8.648-.943 12.903-1.402a639.52 639.52 0 0 1 12.939-1.286 548.788 548.788 0 0 1 25.952-1.631c1.191-.05 1.199-1.898 0-1.853a506.8 506.8 0 0 0-26.359 1.68c-4.316.39-8.631.824-12.935 1.345-4.303.52-8.627.725-12.676 1.84-.723.2-.583 1.315.176 1.311v-.004Z"/><path d="M189.694 169.719c-.029 6.193.895 12.504 1.404 18.675.513 6.225 1.022 12.454 1.585 18.675.111 1.213 2.012 1.234 1.914 0-.501-6.364-1.06-12.72-1.618-19.08-.534-6.119-.698-12.426-1.758-18.475-.156-.881-1.527-.647-1.532.205h.005ZM142.543 178.825c-.537 1.201-.032 2.435.21 3.697.341 1.791.706 3.573 1.059 5.36.185.939 1.626.541 1.438-.397-.333-1.677-.662-3.353-1.002-5.025-.259-1.27-.259-2.782-1.236-3.7-.128-.119-.386-.123-.469.061v.004Z"/><path d="M143.147 179.591c13.699-.95 27.48-2.09 41.13-3.614.932-.103.973-1.557 0-1.488-13.707.959-27.476 2.32-41.13 3.852-.784.086-.817 1.304 0 1.25Z"/><path d="M183.567 175.186c-.447 10.487 1.047 21.269 3.552 31.432.197.807 1.417.463 1.244-.34-2.234-10.311-3.063-20.572-3.363-31.088-.024-.922-1.396-.918-1.433 0v-.004ZM144.946 193.922c-.16 2.32.119 4.713.571 6.988.369 1.872.681 4.524 2.123 5.876.217.205.521.045.55-.229.197-1.812-.862-3.869-1.216-5.66-.455-2.323-.574-4.631-.759-6.979-.066-.811-1.216-.819-1.269 0v.004ZM154.063 196.75c-6.262-1.676-.135-11.413 4.784-7.114 2.049 1.791 1.881 4.692-.147 6.405-1.873 1.578-4.144 1.164-6.374.959-.542-.049-.718.754-.271 1.004 3.158 1.746 7.675.496 9.305-2.791 1.487-2.991-.176-6.749-3.35-7.753-3.175-1.004-6.591.815-7.626 3.967-.739 2.254.374 7.512 3.741 5.795.201-.103.148-.418-.062-.476v.004Z"/><path d="M153.069 197.344c-2.016-.561-3.548 2.693-3.803 4.262-.299 1.848.3 4.815 2.255 5.533.353.131.681-.263.591-.591-.197-.717-.665-1.229-.957-1.913-.419-.988-.546-2.086-.279-3.135.234-.914.719-1.718 1.359-2.398.485-.516.871-.709 1.031-1.393a.296.296 0 0 0-.205-.361l.008-.004ZM159.409 196.734c2.402.467 4.463 1.295 5.892 3.405.616.906 1.097 2.017 1.162 3.123.066 1.107-.57 1.873-.579 2.91 0 .237.222.512.481.479 2.862-.336 1.663-5.028.788-6.647-1.416-2.61-4.513-4.782-7.572-4.565-.694.049-.953 1.139-.176 1.291l.004.004ZM171.992 190.878c-2.694-.545-4.526-2.762-3.598-5.586.801-2.43 3.836-3.561 6.086-2.414 2.082 1.062 2.928 3.975 1.741 5.988-1.187 2.012-3.191 2.057-5.182 2.352-.152.02-.136.221-.037.291 2.468 1.783 6.032-.775 6.759-3.25.879-2.996-1.01-6.344-4.119-6.934-3.108-.59-6.13 1.463-6.492 4.656-.271 2.397 1.86 6.966 4.895 5.286.152-.086.131-.348-.049-.385l-.004-.004Z"/><path d="M171.777 190.972c-2.624-.136-3.54 3.319-3.926 5.319-.575 2.963-1.014 7.68.661 10.356.23.364.735.192.772-.209.12-1.357-.32-2.672-.406-4.033-.086-1.36-.012-2.729.144-4.081.324-2.783 1.014-4.848 2.948-6.885.168-.176.045-.455-.193-.467ZM174.943 190.423c-.176 1.09.312 1.586.821 2.586.76 1.496 1.438 3.041 1.971 4.635 1.023 3.041 1.557 6.192 1.717 9.393.049.983 1.556.995 1.54 0a32.4 32.4 0 0 0-1.696-9.824 31.115 31.115 0 0 0-1.688-4.069c-.583-1.156-1.026-2.516-2.324-2.918-.132-.041-.32.049-.345.193l.004.004ZM104.593 169.301c.719 1.008 1.713 1.262 2.838 1.754 1.343.586 2.689 1.164 4.036 1.738 1.171.495 2.842.877 3.852 1.643 1.462 1.106.09 2.299.46 3.692a.363.363 0 0 0 .444.25c1.08-.315 1.47-1.327 1.556-2.413.115-1.48-.637-2.41-1.918-3.037-1.815-.889-3.749-1.611-5.613-2.389-1.684-.701-3.618-2-5.458-1.726-.201.029-.312.324-.197.488Z"/><path d="M117.085 175.084c2.062.983 4.427 1.426 6.599 2.139 1.585.52 7.745 2.434 4.082 4.803-1.117.721.292 2.29 1.055 1.364.193-.233.251-.315.255-.614l-.431.75c2.221-1.316 2.435-4.348.357-5.918-1.363-1.025-3.297-1.438-4.886-1.951-2.156-.688-4.452-1.573-6.718-1.725-.596-.041-.859.885-.313 1.147v.005ZM191.39 170.063c2.686-3.069 5.047-6.454 7.494-9.712l3.873-5.155c1.096-1.459 2.722-2.984 3.092-4.803.069-.345-.267-.619-.588-.451-1.498.787-2.385 2.491-3.379 3.815l-3.864 5.16c-2.563 3.422-5.293 6.794-7.597 10.401-.369.581.501 1.274.969.745Z"/><path d="M204.883 151.007c2.575 2.394 6.065 4.09 9.03 5.971 2.965 1.881 5.995 3.807 9.001 5.692 6.246 3.914 12.496 7.828 18.75 11.733.994.623 1.905-.947.92-1.565-6.238-3.93-12.484-7.852-18.725-11.774-3.006-1.885-6.024-3.754-9.043-5.627-3.018-1.873-6.019-4.233-9.3-5.516-.616-.242-1.085.664-.633 1.082v.004Z"/><path d="M241.882 172.74c-4.628 5.216-8.644 11.101-12.894 16.63-4.394 5.716-8.775 11.437-13.161 17.158-.743.967.903 1.91 1.638.955 4.312-5.606 8.632-11.208 12.936-16.823 4.303-5.614 8.968-11.015 12.84-16.875.538-.812-.706-1.787-1.359-1.049v.004ZM194.527 196.845c2.028 1.311 4.393 2.204 6.594 3.196 2.201.992 4.468 2.02 6.723 2.979.899.382 1.695-.909.78-1.336-2.345-1.09-4.718-2.122-7.088-3.159-2.147-.939-4.324-2.062-6.595-2.672-.607-.164-.932.66-.419.992h.005ZM192.917 183.247c2.715 1.459 5.766 2.365 8.57 3.651 2.805 1.287 5.573 2.783 8.308 4.287.907.5 1.704-.856.813-1.385-2.789-1.648-5.721-3.078-8.681-4.385-2.739-1.205-5.651-2.598-8.615-3.098-.534-.09-.941.635-.395.93ZM197.446 174.936c2.981 1.865 6.439 3.139 9.63 4.602l4.677 2.148c1.297.594 2.562 1.442 4.016 1.409.431-.012.591-.496.332-.803-1.014-1.213-2.825-1.688-4.254-2.328l-4.697-2.11c-3.031-1.361-6.074-3.004-9.26-3.967-.641-.193-.99.713-.444 1.053v-.004ZM203.211 169.551c.756 1.271 2.546 1.467 3.873 1.955a97.161 97.161 0 0 1 6.656 2.746c1.914.873 3.802 1.791 5.659 2.782 1.745.931 3.494 2.316 5.428 2.767.583.135.932-.529.563-.964-1.273-1.499-3.404-2.372-5.121-3.286a89.344 89.344 0 0 0-6.336-3.078 99.12 99.12 0 0 0-5.712-2.278c-1.491-.541-3.371-1.664-4.907-.992-.127.053-.156.242-.09.348h-.013ZM203.576 162.22c1.261 1.168 2.953 1.828 4.476 2.594 1.347.68 2.772 1.75 4.308 1.783.398.008.513-.455.3-.722-.974-1.213-2.834-1.733-4.218-2.397-1.449-.701-2.915-1.586-4.513-1.861-.328-.057-.636.336-.353.603ZM35.192 158.515c1.228-.336 2.382-.906 3.618-1.242 1.096-.299 2.234-.471 3.277-.934.23-.103.152-.459-.07-.516-2.2-.603-5.47.319-7.268 1.651-.493.365-.23 1.229.44 1.045l.003-.004ZM37.064 164.646c5.827-.336 11.753-1.845 17.506-2.808 2.952-.495 5.905-.995 8.853-1.512 2.768-.483 5.93-.627 8.488-1.815.517-.242.197-.935-.263-.976-2.69-.241-5.621.664-8.266 1.119a1315.16 1315.16 0 0 0-8.841 1.557c-2.944.529-5.889 1.062-8.833 1.591-2.944.528-5.954.864-8.8 1.704-.608.181-.521 1.181.156 1.144v-.004ZM40.116 173.076c2.427-.013 4.907-.873 7.26-1.418 2.353-.545 4.948-.894 7.087-2.008.304-.16.152-.623-.168-.627-2.423-.037-4.92.827-7.26 1.397-2.34.57-4.932.918-7.1 1.992-.324.16-.16.664.18.664ZM60.454 169.068c2.333.405 5.051-.57 7.359-.996 2.87-.525 5.745-1.049 8.61-1.599.986-.188.567-1.68-.414-1.499-2.739.504-5.478 1.028-8.213 1.549-2.336.446-5.395.52-7.445 1.762-.291.176-.279.717.103.783ZM43.014 182.038c2.222.074 4.46-.43 6.644-.762 2.571-.394 5.142-.816 7.708-1.23 4.887-.791 10.217-1.168 14.918-2.729.526-.172.456-1-.135-.992-4.755.07-9.679 1.385-14.352 2.209-2.422.426-4.85.844-7.268 1.287-2.419.443-5.199.738-7.589 1.66-.291.11-.262.545.074.557ZM75.113 176.014c.592-.062 1.179-.16 1.766-.258.497-.082.981-.136 1.285-.574.087-.127.013-.287-.098-.369-.407-.295-.895-.168-1.36-.094-.574.094-1.153.193-1.72.328-.526.127-.427 1.016.131.963l-.004.004ZM46.797 192.451c5.868-.701 11.72-2.377 17.489-3.639 5.77-1.262 12.142-2.377 18.06-4.041 1.03-.291.583-1.745-.436-1.573-5.93.996-11.805 2.61-17.665 3.95-5.827 1.332-11.925 2.307-17.596 4.201-.562.188-.517 1.184.148 1.102ZM50.048 199.832a44.212 44.212 0 0 0 4.997-.467c1.573-.23 3.52-.242 4.825-1.197.173-.123.165-.401-.061-.467-1.417-.406-2.907.131-4.324.418-1.856.373-3.68.828-5.474 1.43-.148.049-.131.287.037.283ZM65.245 198.16c3.905-.488 7.794-1.43 11.65-2.209 1.971-.397 3.942-.791 5.909-1.197 1.852-.381 3.926-.536 5.61-1.413.615-.324.27-1.172-.33-1.218-1.892-.143-3.896.562-5.744.939-1.848.377-3.671.762-5.507 1.147-3.909.82-7.93 1.48-11.769 2.59-.718.209-.615 1.459.185 1.357l-.004.004ZM63.788 245.042c7.498-4.397 14.87-8.848 22.043-13.761.156-.107.02-.353-.152-.258-7.58 4.257-14.836 8.901-22.092 13.679-.21.139-.02.471.201.34ZM55.682 256.635c5.055-2.09 9.815-4.885 14.66-7.409a636.206 636.206 0 0 1 14.976-7.553 1298.8 1298.8 0 0 1 30.658-14.441c.082-.037.025-.185-.061-.148a401.039 401.039 0 0 0-30.445 13.302 582.497 582.497 0 0 0-14.968 7.565c-4.952 2.594-10.25 5.201-14.877 8.537-.07.049-.029.188.062.147h-.005ZM72.645 257.151c4.443-.885 8.849-3.372 12.996-5.163 4.431-1.914 9.186-3.619 13.321-6.119.185-.11.066-.409-.148-.352-4.455 1.213-8.754 3.36-12.996 5.168-4.357 1.852-9.436 3.381-13.321 6.118-.177.127-.07.394.148.353v-.005ZM232.925 275.105c-4.714-12.515-8.689-25.158-12.315-38.026-.304-1.073-1.934-.623-1.671.459 3.121 12.905 7.395 25.699 12.339 38.018.399.996 2.033.582 1.643-.451h.004Z"/><path d="M219.711 237.944c7.429-1.865 14.726-4.754 22.002-7.139 3.601-1.18 7.194-2.377 10.792-3.565 3.359-1.111 7.473-1.885 10.475-3.787.484-.307.337-1.201-.312-1.155-3.433.254-7.014 1.975-10.266 3.044-3.725 1.23-7.453 2.451-11.178 3.693-7.272 2.418-14.856 4.45-21.936 7.372-.924.381-.603 1.795.423 1.537Z"/><path d="M261.615 223.232c1.663 7.253 4.099 14.4 6.324 21.498a544.925 544.925 0 0 0 3.47 10.659c1.076 3.193 1.868 7.09 3.688 9.938.324.508 1.305.361 1.236-.336-.341-3.385-2.045-6.872-3.105-10.102a1236.105 1236.105 0 0 1-3.445-10.663c-2.271-7.11-4.16-14.372-6.578-21.429-.341-.996-1.824-.602-1.585.439l-.005-.004ZM228.974 233.604c-1.293-4.332-2.373-8.409-1.018-12.913 1.125-3.75 3.745-7.118 7.334-8.795 3.897-1.819 8.759-1.377 12.081 1.406 3.585 3.004 4.845 7.832 6.016 12.151.324 1.205 2.205.692 1.876-.516-1.33-4.836-2.866-10.074-6.993-13.315-3.704-2.91-8.919-3.406-13.23-1.619-8.948 3.701-12.299 16.024-7.347 24.138.407.664 1.516.237 1.286-.541l-.005.004Z"/><path d="M232.757 231.961c-1.232-5.676-1.256-13.807 5.766-15.716 3.17-.861 6.057.655 7.937 3.188 1.774 2.385 2.242 5.221 3.392 7.881.415.963 1.704.213 1.565-.66-1.015-6.422-6.139-14.454-13.683-12.094-7.375 2.308-8.841 11.422-6.484 17.811.345.934 1.717.577 1.503-.414l.004.004ZM245.118 247.513c-.891-.52-1.963-.492-2.308-1.68-.431-1.463.71-2.766 1.955-3.324 1.244-.557 2.751-.619 3.305.828.522 1.357-.312 2.656-1.219 3.606-.83.869.492 2.193 1.322 1.32 1.536-1.623 2.591-3.971 1.371-6.098-1.158-2.016-3.638-2.115-5.568-1.225-1.93.889-3.392 2.946-2.911 5.159.361 1.66 2.521 3.668 4.176 2.348.308-.246.181-.758-.119-.934h-.004Z"/><path d="M244.082 248.034c-.21 3.594.373 7.352.648 10.937.033.459.395.968.92.918 3.38-.323 7.043-1.114 9.892-3.044.723-.492.288-1.898-.64-1.521-3.088 1.262-5.885 2.43-9.252 2.734l.92.918c-.287-3.66-.3-7.537-1.076-11.127-.176-.823-1.363-.582-1.408.189l-.004-.004Z"/><path d="M255.7 255.636c-.941-1.787-2.489-3.291-3.791-4.82-1.047-1.233-2.283-3.541-3.942-3.86-.312-.062-.657.139-.644.492.061 1.725 2.024 3.151 3.096 4.393 1.384 1.598 2.689 3.409 4.398 4.676.554.409 1.154-.361.883-.881ZM232.091 277.052c3.499-.39 7.042-1.66 10.442-2.561l11.383-3.025a8919.27 8919.27 0 0 0 10.989-2.922l5.494-1.467c1.741-.463 3.647-.746 5.223-1.631.633-.356.354-1.369-.369-1.361-1.688.017-3.33.656-4.957 1.091l-5.494 1.467c-3.794 1.012-7.584 2.036-11.374 3.053l-10.981 2.954c-3.519.947-7.367 1.636-10.709 3.095-.624.274-.325 1.381.353 1.307Z"/></g><defs><clipPath id="a"><path fill="#fff" transform="translate(165)" d="M0 0h344v143H0z"/></clipPath><clipPath id="b"><path fill="#fff" transform="translate(0 140)" d="M0 0h276.342v137.302H0z"/></clipPath></defs></svg>