<svg xmlns="http://www.w3.org/2000/svg" width="597.996" height="460.144" fill="none"><g style="display:inline" transform="translate(2.415 -13.856)"><path d="M468.584 300.144a10.274 10.274 0 0 0 4.153-11.811 10.27 10.27 0 0 0-2.274-3.828l5.714-68.096-16.367 1.8-4.485 66.276a10.322 10.322 0 0 0-.33 13.714 10.337 10.337 0 0 0 13.59 1.945zM410.325 462.565h-11.731l-5.58-45.22 17.313.001z" fill="#ffb8b8" style="stroke-width:1.1537"/><path d="M390.214 459.215h22.625v14.235h-36.87a14.218 14.218 0 0 1 4.171-10.066 14.248 14.248 0 0 1 10.074-4.17z" fill="#2f2e41" style="stroke-width:1.1537"/><path d="M493.577 462.565h-11.732l-5.58-45.22 17.314.001z" fill="#ffb8b8" style="stroke-width:1.1537"/><path d="M473.466 459.215h22.625v14.235h-36.87a14.23 14.23 0 0 1 4.172-10.066 14.249 14.249 0 0 1 10.073-4.17zM410.523 434.558c-.127 0-.255-.005-.383-.015l-16.604-1.328a4.786 4.786 0 0 1-4.343-5.53l25.175-155.6 1.687-21.948a4.752 4.752 0 0 1 3.747-4.304l25.321-5.534a4.756 4.756 0 0 1 4.972 1.969l6.174 9.018a105.376 105.376 0 0 0 7.89 10.05c4.38 4.985 11.828 16.055 12.497 34.172.179 5.952.797 11.882 1.85 17.742l20.386 109.74a4.785 4.785 0 0 1-2.4 4.935 4.786 4.786 0 0 1-1.849.577l-15.74 1.192a4.758 4.758 0 0 1-5.073-3.519l-27.919-103.754a.962.962 0 0 0-.926-.708.955.955 0 0 0-.923.71l-28.918 108.584a4.793 4.793 0 0 1-1.707 2.56c-.835.641-1.86.99-2.914.991z" fill="#2f2e41" style="stroke-width:1.1537"/><path d="M454.678 169.78c12.98 0 23.503-10.515 23.503-23.486 0-12.97-10.523-23.487-23.503-23.487s-23.503 10.516-23.503 23.487c0 12.971 10.523 23.486 23.503 23.486z" fill="#ffb8b8" style="stroke-width:1.1537"/><path d="m414.842 253.668-.487-33.54c-1.789-21.451 7.717-32.715 16.008-38.38a19.065 19.065 0 0 1 14.74-2.82l18.497 3.996a19.505 19.505 0 0 1 12.492 8.89 18.181 18.181 0 0 1 2.079 14.353 19.698 19.698 0 0 1-8.038 10.998c-15.893 11.211-17.013 30.044-17.023 30.233l-.02.39z" fill="#004c92" style="stroke-width:1.1537"/><path d="M472.728 228.728H456.46a4.31 4.31 0 0 1-4.307-4.303v-28.21c0-3.296 1.31-6.459 3.643-8.79a12.446 12.446 0 0 1 17.593 0 12.425 12.425 0 0 1 3.645 8.79v28.21a4.308 4.308 0 0 1-4.307 4.303zM426.268 226.312l-13.115-9.618a4.307 4.307 0 0 1-.923-6.014l16.701-22.743a12.44 12.44 0 0 1 12.992-4.719 12.44 12.44 0 0 1 9.333 10.187 12.427 12.427 0 0 1-2.267 9.242l-16.702 22.742a4.313 4.313 0 0 1-6.019.923z" fill="#004c92" style="stroke-width:1.1537"/><path d="M459.386 158.502a8.71 8.71 0 0 0-1.494-9.715c-4.42-4.455-11.329-1.483-17.304-1.92-9.954-.726-16.732-12.587-13.761-22.108 2.972-9.52 13.533-15.428 23.493-14.802 9.96.627 18.978 6.783 24.98 14.75 4.11-6.608 14.205-7.379 20.72-3.12 6.515 4.261 9.885 12.047 11.278 19.701 1.394 7.655 1.166 15.521 2.339 23.213 2.844 18.643 14.885 36.2 32.31 43.448 17.422 7.247 39.719 2.589 51.117-12.441a82.926 82.926 0 0 1-11.057 52.422 83.02 83.02 0 0 1-40.81 34.744c-9.442 3.734-19.867 5.716-29.808 3.64-16.046-3.35-28.528-17.065-33.97-32.52-5.439-15.453-4.787-32.411-2.145-48.58 1.627-9.958 3.429-21.752-3.838-28.756a17.477 17.477 0 0 0-7.02-3.538 9.373 9.373 0 0 1-5.348-13.792c.118-.208.224-.416.318-.626z" fill="#2f2e41" style="stroke-width:1.1537"/><path d="M543.76 473.855H325.583a.96.96 0 0 1-.677-.279.961.961 0 0 1-.28-.676c0-.254.101-.497.28-.677a.96.96 0 0 1 .677-.28H543.76c.253 0 .497.1.677.28.179.18.28.423.28.677a.961.961 0 0 1-.28.676.96.96 0 0 1-.677.28z" fill="#3f3d56" style="stroke-width:1.1537"/><rect x="67.477" y="-10.209" width="336.082" height="234.212" rx="10.383" transform="rotate(18.016)" fill="#fff" style="stroke-width:1.1537"/><path d="M185.328 184.964a3.46 3.46 0 0 0 4.014 1.305l189.13-67.162c3.114-1.106 3.055-5.53-.088-6.553L75.837 14.134c-3.143-1.022-5.794 2.52-3.926 5.247z" fill="#f0f0f0" style="stroke-width:1.1537"/><path fill-rule="evenodd" clip-rule="evenodd" d="M169.896 144.934a17.515 17.515 0 0 0 9.972-4.131 17.521 17.521 0 0 1 22.718 0 17.509 17.509 0 0 0 9.97 4.131 17.517 17.517 0 0 1 16.068 16.068 17.5 17.5 0 0 0 4.131 9.971 17.516 17.516 0 0 1 0 22.719 17.516 17.516 0 0 0-4.13 9.97 17.516 17.516 0 0 1-16.068 16.067 17.524 17.524 0 0 0-9.97 4.132 17.518 17.518 0 0 1-22.72 0 17.53 17.53 0 0 0-9.97-4.132 17.519 17.519 0 0 1-16.068-16.067 17.509 17.509 0 0 0-4.132-9.97 17.523 17.523 0 0 1 0-22.719 17.512 17.512 0 0 0 4.132-9.971 17.522 17.522 0 0 1 16.067-16.068z" fill="#00a2d5" style="stroke-width:1.1537"/><path d="m186.187 170.19 1.212-3.724a7.835 7.835 0 1 1 14.904 4.847l-1.213 3.726 3.726 1.212a3.922 3.922 0 0 1 2.514 4.938l-6.06 18.63a3.916 3.916 0 0 1-4.938 2.513l-22.355-7.272a3.915 3.915 0 0 1-2.514-4.938l6.06-18.63a3.922 3.922 0 0 1 4.938-2.514zm4.937-2.513-1.211 3.726 7.452 2.424 1.211-3.726a3.915 3.915 0 0 0-5.503-4.704 3.922 3.922 0 0 0-1.949 2.28z" fill="#fff" style="stroke-width:1.1537"/><path d="M363.506 234.057a10.568 10.568 0 0 1-12.144 2.97 10.572 10.572 0 0 1-3.64-2.514c-9.27-9.714 5.882-24.3 15.187-14.566.327.336.632.694.911 1.071l46.915-1.165 5.6-10.235 17.21 6.678c-3.303 5.12-7.098 25.216-15.739 24.238-1.133.03-53.14-6.395-54.3-6.477z" fill="#ffb8b8" style="stroke-width:1.1537"/></g></svg>