<?xml version="1.0" encoding="UTF-8" standalone="no"?>
<svg
   xmlns:dc="http://purl.org/dc/elements/1.1/"
   xmlns:cc="http://creativecommons.org/ns#"
   xmlns:rdf="http://www.w3.org/1999/02/22-rdf-syntax-ns#"
   xmlns:svg="http://www.w3.org/2000/svg"
   xmlns="http://www.w3.org/2000/svg"
   xmlns:sodipodi="http://sodipodi.sourceforge.net/DTD/sodipodi-0.dtd"
   xmlns:inkscape="http://www.inkscape.org/namespaces/inkscape"
   viewBox="0 0 240.69 114.28"
   version="1.1"
   id="svg859"
   sodipodi:docname="cryptify-btn.svg"
   inkscape:version="0.92.5 (2060ec1f9f, 2020-04-08)">
  <metadata
     id="metadata863">
    <rdf:RDF>
      <cc:Work
         rdf:about="">
        <dc:format>image/svg+xml</dc:format>
        <dc:type
           rdf:resource="http://purl.org/dc/dcmitype/StillImage" />
        <dc:title></dc:title>
      </cc:Work>
    </rdf:RDF>
  </metadata>
  <sodipodi:namedview
     pagecolor="#ffffff"
     bordercolor="#666666"
     borderopacity="1"
     objecttolerance="10"
     gridtolerance="10"
     guidetolerance="10"
     inkscape:pageopacity="0"
     inkscape:pageshadow="2"
     inkscape:window-width="2730"
     inkscape:window-height="1771"
     id="namedview861"
     showgrid="false"
     inkscape:zoom="4.5265694"
     inkscape:cx="63.837001"
     inkscape:cy="42.146843"
     inkscape:window-x="0"
     inkscape:window-y="22"
     inkscape:window-maximized="0"
     inkscape:current-layer="svg859" />
  <defs
     id="defs837">
    <style
       id="style815">.cls-1{fill:url(#linear-gradient);}.cls-2{fill:url(#linear-gradient-2);}.cls-3{font-size:72px;fill:#000249;font-family:Yorkten-ConDemIt, Yorkten;font-weight:300;font-style:italic;}.cls-4{letter-spacing:-0.02em;}.cls-5{letter-spacing:0em;}.cls-6{letter-spacing:-0.02em;}</style>
    <linearGradient
       id="linear-gradient"
       x1="-37.78"
       y1="11.9"
       x2="-37.78"
       y2="69.23"
       gradientTransform="translate(122.32 1.44) rotate(10.21)"
       gradientUnits="userSpaceOnUse">
      <stop
         offset="0"
         stop-color="#d34454"
         id="stop817" />
      <stop
         offset="0.17"
         stop-color="#d85154"
         id="stop819" />
      <stop
         offset="0.48"
         stop-color="#e57356"
         id="stop821" />
      <stop
         offset="0.89"
         stop-color="#f9aa57"
         id="stop823" />
      <stop
         offset="1"
         stop-color="#ffba58"
         id="stop825" />
    </linearGradient>
    <linearGradient
       id="linear-gradient-2"
       x1="-45.52"
       y1="60.05"
       x2="-45.52"
       y2="117.38"
       gradientTransform="translate(122.32 1.44) rotate(10.21)"
       gradientUnits="userSpaceOnUse">
      <stop
         offset="0"
         stop-color="#004c91"
         id="stop828" />
      <stop
         offset="0.19"
         stop-color="#00599c"
         id="stop830" />
      <stop
         offset="0.54"
         stop-color="#007bb9"
         id="stop832" />
      <stop
         offset="1"
         stop-color="#00b0e5"
         id="stop834" />
    </linearGradient>
  </defs>
  <g
     id="Layer_2"
     data-name="Layer 2"
     style="opacity:1">
    <g
       id="Layer_1-2"
       data-name="Layer 1"
       style="">
      <path
         style="fill:url(#linear-gradient)"
         d="M 113.07,10.75 53.38,0 71.42,33.09 68.08,51.69 79.67,62.98 84.62,35.46 Z"
         id="polygon839" />
      <path
         style="fill:url(#linear-gradient-2)"
         d="M 26.87,103.53 86.56,114.28 68.52,81.19 71.86,62.59 60.28,51.29 55.32,78.81 Z"
         id="polygon841" />
      <g
         aria-label="cr  ptify"
         transform="translate(0 72.62)"
         style="font-style:italic;font-weight:300;font-size:72px;font-family:Yorkten-ConDemIt, Yorkten;fill:#000249"
         id="text855">
        <path
           d="m 12.024,-18.144 c 1.152,-6.624 4.68,-10.152 9.432,-10.152 2.304,0 4.68,0.936 5.688,2.52 l 6.192,-5.544 c -2.232,-3.312 -5.616,-5.544 -11.952,-5.544 -8.856,0 -16.488,5.832 -18.576,17.568 -2.376,13.32 3.816,20.16 14.112,20.16 4.68,0 8.64,-1.8 11.88,-5.544 l -4.104,-5.544 c -1.872,1.656 -4.824,2.52 -6.84,2.52 -4.824,0 -6.984,-3.744 -5.832,-10.44 z"
           style="font-style:italic;font-weight:300;font-size:72px;font-family:Yorkten-ConDemIt, Yorkten;fill:#ffffff;fill-opacity:1"
           id="path871" />
        <path
           d="M 39.814001,-35.928 33.550001,0 h 9.144 l 2.304,-13.248 c 1.728,-9.936 6.12,-15.048 10.8,-15.048 0.936,0 1.8,0.072 2.952,0.504 l 2.448,-8.208 c -1.224,-0.576 -2.592,-0.864 -3.816,-0.864 -3.96,0 -7.272,2.88 -9.432,6.768 l -0.648,-5.832 z"
           style="letter-spacing:-0.02em;fill:#ffffff;fill-opacity:1"
           id="path873" />
        <path
           d="m 111.886,-36.864 c -3.024,0 -6.408,1.44 -9.216,4.824 l 0.072,-0.288 -1.08,-3.6 h -7.487999 l -7.56,43.128 -1.368,7.92 h 9.072 l 3.312,-18.432 c 2.016,2.52 4.751999,4.176 8.927999,4.176 7.92,0 14.4,-7.992 16.128,-17.856 2.016,-11.448 -2.088,-19.872 -10.8,-19.872 z m 1.584,18.72 c -1.008,5.76 -4.464,10.44 -8.496,10.44 -4.032,0 -6.263999,-4.176 -5.183999,-10.44 1.007999,-5.616 4.391999,-10.152 8.711999,-10.152 4.104,0 5.976,4.32 4.968,10.152 z"
           style="letter-spacing:0em;fill:#ffffff;fill-opacity:1"
           id="path875" />
        <path
           d="m 127.804,-27.864 h 5.04 l -2.304,12.888 c -1.944,11.016 1.152,15.696 9.288,15.696 2.448,0 4.392,-0.504 6.624,-1.368 l 0.288,-7.488 c -1.44,0.504 -2.592,0.72 -4.032,0.72 -2.448,0 -4.176,-1.512 -3.24,-6.624 l 2.448,-13.824 h 8.064 L 151.42,-36 h -8.064 l 1.512,-8.784 h -9.072 L 134.284,-36 h -5.04 z"
           style="fill:#f3ffff;fill-opacity:1"
           id="path877" />
        <path
           d="m 159.19598,-47.448 c -0.576,3.024 1.656,5.328 4.536,5.328 2.808,0 5.832,-2.304 6.408,-5.328 0.504,-3.096 -1.728,-5.472 -4.536,-5.472 -2.88,0 -5.904,2.376 -6.408,5.472 z m 1.728,47.448 6.336,-36 h -9.072 l -6.336,36 z"
           style="fill:#ffffff;fill-opacity:1"
           id="path879" />
        <g
           id="g888">
          <path
             id="path881"
             style="fill:#ffffff;fill-opacity:1"
             d="m 171.79591,-27.864 h 4.752 l -5.4,30.528 c -0.648,3.528 -2.376,5.904 -4.824,5.904 -1.44,0 -2.304,-0.216 -2.88,-0.432 l -2.304,7.416 c 1.152,0.504 2.808,0.72 5.112,0.72 7.056,0 12.456,-4.464 14.04,-13.608 l 5.4,-30.528 h 6.264 l 1.44,-8.136 h -6.264 l 0.72,-4.176 c 0.576,-2.88 2.16,-4.752 4.968,-4.752 0.864,0 1.8,0.216 2.376,0.432 l 2.808,-7.056 c -1.224,-0.72 -3.024,-1.152 -5.184,-1.152 -7.2,0 -12.6,4.176 -14.112,12.528 l -0.72,4.176 h -4.752 z" />
          <path
             id="path883"
             style="letter-spacing:-0.02em;fill:#ffffff;fill-opacity:1"
             d="m 230.53799,-36 h -10.08 l -12.096,27 -2.592,-27 h -9.936 l 5.256,36 c -2.52,5.328 -5.184,7.344 -7.704,7.344 -1.152,0 -2.232,-0.216 -3.024,-0.432 l -2.016,6.984 c 0.864,0.504 2.52,0.72 4.536,0.72 6.984,0 12.744,-3.6 18.576,-14.616 z" />
        </g>
      </g>
    </g>
  </g>
</svg>
