<svg xmlns="http://www.w3.org/2000/svg" viewBox="0 0 240.69 114.28" version="1.1" id="svg859"><defs id="defs837"><linearGradient id="linear-gradient" x1="-37.78" y1="11.9" x2="-37.78" y2="69.23" gradientTransform="rotate(10.21 53.1 685.33)" gradientUnits="userSpaceOnUse"><stop offset="0" stop-color="#d34454" id="stop817"/><stop offset=".17" stop-color="#d85154" id="stop819"/><stop offset=".48" stop-color="#e57356" id="stop821"/><stop offset=".89" stop-color="#f9aa57" id="stop823"/><stop offset="1" stop-color="#ffba58" id="stop825"/></linearGradient><linearGradient id="linear-gradient-2" x1="-45.52" y1="60.05" x2="-45.52" y2="117.38" gradientTransform="rotate(10.21 53.1 685.33)" gradientUnits="userSpaceOnUse"><stop offset="0" stop-color="#004c91" id="stop828"/><stop offset=".19" stop-color="#00599c" id="stop830"/><stop offset=".54" stop-color="#007bb9" id="stop832"/><stop offset="1" stop-color="#00b0e5" id="stop834"/></linearGradient><style id="style815">.cls-1{fill:url(#linear-gradient)}.cls-2{fill:url(#linear-gradient-2)}.cls-3{font-size:72px;fill:#000249;font-family:Yorkten-ConDemIt,Yorkten;font-weight:300;font-style:italic}.cls-4{letter-spacing:-.02em}.cls-5{letter-spacing:0}.cls-6{letter-spacing:-.02em}</style></defs><g id="Layer_2" data-name="Layer 2" style="opacity:1"><g id="Layer_1-2" data-name="Layer 1"><path style="fill:url(#linear-gradient)" d="M113.07 10.75 53.38 0l18.04 33.09-3.34 18.6 11.59 11.29 4.95-27.52Z" id="polygon839"/><path style="fill:url(#linear-gradient-2)" d="m26.87 103.53 59.69 10.75-18.04-33.09 3.34-18.6-11.58-11.3-4.96 27.52Z" id="polygon841"/><g aria-label="cr ptify" transform="translate(0 72.62)" style="font-style:italic;font-weight:300;font-size:72px;font-family:Yorkten-ConDemIt,Yorkten;fill:#000249" id="text855"><path d="M12.024-18.144c1.152-6.624 4.68-10.152 9.432-10.152 2.304 0 4.68.936 5.688 2.52l6.192-5.544c-2.232-3.312-5.616-5.544-11.952-5.544-8.856 0-16.488 5.832-18.576 17.568C.432-5.976 6.624.864 16.92.864c4.68 0 8.64-1.8 11.88-5.544l-4.104-5.544c-1.872 1.656-4.824 2.52-6.84 2.52-4.824 0-6.984-3.744-5.832-10.44z" style="font-style:italic;font-weight:300;font-size:72px;font-family:Yorkten-ConDemIt,Yorkten;fill:#fff;fill-opacity:1" id="path871"/><path d="M39.814-35.928 33.55 0h9.144l2.304-13.248c1.728-9.936 6.12-15.048 10.8-15.048.936 0 1.8.072 2.952.504L61.198-36a9.183 9.183 0 0 0-3.816-.864c-3.96 0-7.272 2.88-9.432 6.768l-.648-5.832z" style="letter-spacing:-.02em;fill:#fff;fill-opacity:1" id="path873"/><path d="M111.886-36.864c-3.024 0-6.408 1.44-9.216 4.824l.072-.288-1.08-3.6h-7.488L86.614 7.2l-1.368 7.92h9.072L97.63-3.312c2.016 2.52 4.752 4.176 8.928 4.176 7.92 0 14.4-7.992 16.128-17.856 2.016-11.448-2.088-19.872-10.8-19.872zm1.584 18.72c-1.008 5.76-4.464 10.44-8.496 10.44s-6.264-4.176-5.184-10.44c1.008-5.616 4.392-10.152 8.712-10.152 4.104 0 5.976 4.32 4.968 10.152z" style="letter-spacing:0;fill:#fff;fill-opacity:1" id="path875"/><path d="M127.804-27.864h5.04l-2.304 12.888C128.596-3.96 131.692.72 139.828.72c2.448 0 4.392-.504 6.624-1.368l.288-7.488c-1.44.504-2.592.72-4.032.72-2.448 0-4.176-1.512-3.24-6.624l2.448-13.824h8.064L151.42-36h-8.064l1.512-8.784h-9.072L134.284-36h-5.04z" style="fill:#f3ffff;fill-opacity:1" id="path877"/><path d="M159.196-47.448c-.576 3.024 1.656 5.328 4.536 5.328 2.808 0 5.832-2.304 6.408-5.328.504-3.096-1.728-5.472-4.536-5.472-2.88 0-5.904 2.376-6.408 5.472zM160.924 0l6.336-36h-9.072l-6.336 36z" style="fill:#fff;fill-opacity:1" id="path879"/><g id="g888"><path id="path881" style="fill:#fff;fill-opacity:1" d="M171.796-27.864h4.752l-5.4 30.528c-.648 3.528-2.376 5.904-4.824 5.904-1.44 0-2.304-.216-2.88-.432l-2.304 7.416c1.152.504 2.808.72 5.112.72 7.056 0 12.456-4.464 14.04-13.608l5.4-30.528h6.264l1.44-8.136h-6.264l.72-4.176c.576-2.88 2.16-4.752 4.968-4.752.864 0 1.8.216 2.376.432l2.808-7.056c-1.224-.72-3.024-1.152-5.184-1.152-7.2 0-12.6 4.176-14.112 12.528l-.72 4.176h-4.752z"/><path id="path883" style="letter-spacing:-.02em;fill:#fff;fill-opacity:1" d="M230.538-36h-10.08L208.362-9l-2.592-27h-9.936l5.256 36c-2.52 5.328-5.184 7.344-7.704 7.344-1.152 0-2.232-.216-3.024-.432l-2.016 6.984c.864.504 2.52.72 4.536.72 6.984 0 12.744-3.6 18.576-14.616z"/></g></g></g></g></svg>