<svg xmlns="http://www.w3.org/2000/svg" version="1.1" id="svg3971" width="42.04" height="56.385"><defs id="defs3961"><marker orient="auto" refY="0" refX="0" id="EmptyDiamondMstart" style="overflow:visible"><path id="path5093" d="M0-7.071-7.071 0 0 7.071 7.071 0Z" style="fill:#fff;fill-rule:evenodd;stroke:#000;stroke-width:1.00000003pt;stroke-opacity:1" transform="matrix(.4 0 0 .4 2.6 0)"/></marker><marker orient="auto" refY="0" refX="0" id="marker6105" style="overflow:visible"><path id="path6103" d="m0 0 5-5-17.5 5L5 5Z" style="fill:#000;fill-opacity:1;fill-rule:evenodd;stroke:#000;stroke-width:1.00000003pt;stroke-opacity:1" transform="matrix(.8 0 0 .8 10 0)"/></marker><marker orient="auto" refY="0" refX="0" id="DiamondM" style="overflow:visible"><path id="path5057" d="M0-7.071-7.071 0 0 7.071 7.071 0Z" style="fill:#000;fill-opacity:1;fill-rule:evenodd;stroke:#000;stroke-width:1.00000003pt;stroke-opacity:1" transform="scale(.4)"/></marker><marker orient="auto" refY="0" refX="0" id="marker5667" style="overflow:visible"><path id="path5665" style="fill:#000;fill-opacity:1;fill-rule:evenodd;stroke:#000;stroke-width:.625;stroke-linejoin:round;stroke-opacity:1" d="M8.719 4.034-2.207.016 8.719-4.002c-1.746 2.372-1.736 5.618 0 8.036z" transform="matrix(-.3 0 0 -.3 .69 0)"/></marker><marker orient="auto" refY="0" refX="0" id="marker5603" style="overflow:visible"><path id="path5601" style="fill:#000;fill-opacity:1;fill-rule:evenodd;stroke:#000;stroke-width:.625;stroke-linejoin:round;stroke-opacity:1" d="M8.719 4.034-2.207.016 8.719-4.002c-1.746 2.372-1.736 5.618 0 8.036z" transform="scale(-.6)"/></marker><marker orient="auto" refY="0" refX="0" id="Arrow1Mend" style="overflow:visible"><path id="path4984" d="m0 0 5-5-17.5 5L5 5Z" style="fill:#000;fill-opacity:1;fill-rule:evenodd;stroke:#000;stroke-width:1.00000003pt;stroke-opacity:1" transform="matrix(-.4 0 0 -.4 -4 0)"/></marker><marker orient="auto" refY="0" refX="0" id="DiamondS" style="overflow:visible"><path id="path5060" d="M0-7.071-7.071 0 0 7.071 7.071 0Z" style="fill:#000;fill-opacity:1;fill-rule:evenodd;stroke:#000;stroke-width:1.00000003pt;stroke-opacity:1" transform="scale(.2)"/></marker><marker orient="auto" refY="0" refX="0" id="Arrow2Mend" style="overflow:visible"><path id="path5002" style="fill:#000;fill-opacity:1;fill-rule:evenodd;stroke:#000;stroke-width:.625;stroke-linejoin:round;stroke-opacity:1" d="M8.719 4.034-2.207.016 8.719-4.002c-1.746 2.372-1.736 5.618 0 8.036z" transform="scale(-.6)"/></marker><marker orient="auto" refY="0" refX="0" id="Arrow2Send" style="overflow:visible"><path id="path5008" style="fill:#000;fill-opacity:1;fill-rule:evenodd;stroke:#000;stroke-width:.625;stroke-linejoin:round;stroke-opacity:1" d="M8.719 4.034-2.207.016 8.719-4.002c-1.746 2.372-1.736 5.618 0 8.036z" transform="matrix(-.3 0 0 -.3 .69 0)"/></marker><marker orient="auto" refY="0" refX="0" id="marker5309" style="overflow:visible"><path id="path5307" d="m0 0 5-5-17.5 5L5 5Z" style="fill:#000;fill-opacity:1;fill-rule:evenodd;stroke:#000;stroke-width:1.00000003pt;stroke-opacity:1" transform="matrix(.8 0 0 .8 10 0)"/></marker><marker orient="auto" refY="0" refX="0" id="Arrow1Lstart" style="overflow:visible"><path id="path4975" d="m0 0 5-5-17.5 5L5 5Z" style="fill:#000;fill-opacity:1;fill-rule:evenodd;stroke:#000;stroke-width:1.00000003pt;stroke-opacity:1" transform="matrix(.8 0 0 .8 10 0)"/></marker><marker orient="auto" refY="0" refX="0" id="EmptyTriangleOutS" style="overflow:visible"><path id="path5141" d="m5.77 0-8.65 5V-5Z" style="fill:#fff;fill-rule:evenodd;stroke:#000;stroke-width:1.00000003pt;stroke-opacity:1" transform="matrix(.2 0 0 .2 -.6 0)"/></marker><linearGradient id="linear-gradient" x1="44.5" y1="7.44" x2="44.5" y2="47.18" gradientUnits="userSpaceOnUse"><stop offset="0" stop-color="#d34454" id="stop3941"/><stop offset=".17" stop-color="#d85154" id="stop3943"/><stop offset=".48" stop-color="#e57356" id="stop3945"/><stop offset=".89" stop-color="#f9aa57" id="stop3947"/><stop offset="1" stop-color="#ffba58" id="stop3949"/></linearGradient><linearGradient id="linear-gradient-2" x1="44.5" y1="42.58" x2="44.5" y2="82.32" gradientUnits="userSpaceOnUse"><stop offset="0" stop-color="#004c91" id="stop3952"/><stop offset=".19" stop-color="#00599c" id="stop3954"/><stop offset=".54" stop-color="#007bb9" id="stop3956"/><stop offset="1" stop-color="#00b0e5" id="stop3958"/></linearGradient><style id="style3939">.cls-1{fill:#000249}.cls-2{fill:url(#linear-gradient)}.cls-3{fill:url(#linear-gradient-2)}</style></defs><g id="Layer_2" data-name="Layer 2" transform="translate(-23.48 -25.935)"><g id="Layer_1-2" data-name="Layer 1"><path style="fill:url(#linear-gradient-2)" d="M23.48 82.32h42.04L49.15 61.96V48.87l-9.3-6.29v19.38z" id="polygon3967"/></g><path style="stroke-width:.07075191;stroke-miterlimit:4;stroke-dasharray:none" id="rect6841" d="M44.359 25.935h.353v13.036h-.353z"/><path style="stroke-width:.02409574;stroke-miterlimit:4;stroke-dasharray:none" id="rect6841-3" transform="rotate(-45)" d="M3.809 57.243h.356v1.929h-.356z"/><path style="stroke-width:.02409574;stroke-miterlimit:4;stroke-dasharray:none" id="rect6841-3-7" transform="scale(-1 1) rotate(-45)" d="M-59.172-5.738h.356v1.929h-.356z"/></g></svg>