<svg xmlns="http://www.w3.org/2000/svg" width="17.672" height="21.478" fill="none"><g style="display:inline" transform="translate(-.428 -.12)"><path d="M8.688.226H2.804A2.353 2.353 0 0 0 .452 2.58v11.765a2.353 2.353 0 0 0 2.353 2.353H8.1V15.52H2.805a1.177 1.177 0 0 1-1.176-1.176V2.579a1.177 1.177 0 0 1 1.176-1.176h5.882zM13.393 6.108V9.05h1.177V6.108zM8.688 4.344V.226l5.882 5.882h-4.118a1.764 1.764 0 0 1-1.764-1.764Z" fill="#c93c58" style="fill:#00a2d5;fill-opacity:1"/><path d="M16.727 17.48c0-3.66-.55-5.49-2.745-5.49-2.197 0-2.746 1.83-2.746 5.49" stroke="#c93c58" style="stroke:#00a2d5;stroke-opacity:1"/><rect x="10.364" y="16.608" width="7.235" height="4.49" rx=".5" fill="#c93c58" stroke="#c93c58" style="fill:#00a2d5;fill-opacity:1;stroke:#00a2d5;stroke-opacity:1"/></g><g style="fill:none" stroke="#00a2d5"><path stroke-dasharray="1, 1" d="M4.173.928v8M5.173.928v7"/><path stroke-width=".5" d="M3.923 9.178h1.5v2.5h-1.5z"/></g></svg>