<?xml version="1.0" encoding="UTF-8" standalone="no"?>
<svg
   xmlns:dc="http://purl.org/dc/elements/1.1/"
   xmlns:cc="http://creativecommons.org/ns#"
   xmlns:rdf="http://www.w3.org/1999/02/22-rdf-syntax-ns#"
   xmlns:svg="http://www.w3.org/2000/svg"
   xmlns="http://www.w3.org/2000/svg"
   width="17.67181"
   height="21.477629"
   viewBox="0 0 17.67181 21.477629"
   fill="none"
   version="1.1"
   id="svg997">
  <metadata
     id="metadata1003">
    <rdf:RDF>
      <cc:Work
         rdf:about="">
        <dc:format>image/svg+xml</dc:format>
        <dc:type
           rdf:resource="http://purl.org/dc/dcmitype/StillImage" />
        <dc:title></dc:title>
      </cc:Work>
    </rdf:RDF>
  </metadata>
  <defs
     id="defs1001" />
  <g
     id="layer1"
     style="display:inline"
     transform="translate(-0.42777927,-0.12052253)">
    <path
       d="M 8.6875,0.22610999 H 2.8051 c -0.624,0 -1.2225,0.24790001 -1.6638,0.68914001 -0.44120002,0.4413 -0.68910002,1.0398 -0.68910002,1.6638 v 11.7647 c 0,0.6241 0.2479,1.2225 0.68910002,1.6638 0.4413,0.4413 1.0398,0.6892 1.6638,0.6892 h 5.2941 v -1.1765 H 2.8051 c -0.312,0 -0.6113,-0.124 -0.8319,-0.3446 -0.2206,-0.2206 -0.3446,-0.5199 -0.3446,-0.8319 V 2.57905 c 0,-0.312 0.124,-0.6113 0.3446,-0.8319 0.2206,-0.2206 0.5199,-0.3446 0.8319,-0.3446 h 5.8824 z"
       fill="#c93c58"
       id="path975"
       style="fill:#00a2d5;fill-opacity:1" />
    <path
       d="m 13.393301,6.10845 v 2.9412 h 1.1765 v -2.9412 z"
       fill="#c93c58"
       id="path977"
       style="fill:#00a2d5;fill-opacity:1" />
    <path
       d="M 8.6875,4.34375 V 0.22610999 L 14.569901,6.10845 h -4.1177 C 9.9842003,6.10845 9.5353,5.92255 9.2044,5.59155 8.8734,5.26065 8.6875,4.81175 8.6875,4.34375 Z"
       fill="#c93c58"
       id="path979"
       style="fill:#00a2d5;fill-opacity:1" />
    <path
       d="m 16.726501,17.48095 c 0,-3.6601 -0.5489,-5.4902 -2.745,-5.4902 -2.1961,0 -2.7452,1.83 -2.7452,5.4902"
       stroke="#c93c58"
       id="path981"
       style="stroke:#00a2d5;stroke-opacity:1" />
    <rect
       x="10.3643"
       y="16.607952"
       width="7.2352901"
       height="4.4902"
       rx="0.5"
       fill="#c93c58"
       stroke="#c93c58"
       id="rect983"
       style="fill:#00a2d5;fill-opacity:1;stroke:#00a2d5;stroke-opacity:1" />
  </g>
  <g
     id="layer2"
     style="display:none"
     transform="translate(-0.42777927,-0.12052253)">
    <path
       d="m 2.8027789,0.12052253 h 5.9375 V 1.3080225 h -5.9375 c -0.31494,0 -0.61699,0.12511 -0.83969,0.34781 -0.2227,0.2227 -0.34781,0.52475 -0.34781,0.83969 V 14.370523 c 0,0.3149 0.12511,0.617 0.34781,0.839701 0.2227,0.2227 0.52475,0.3478 0.83969,0.3478 h 9.5000001 c 0.3149,0 0.617,-0.1251 0.8397,-0.3478 0.2227,-0.222701 0.3478,-0.524801 0.3478,-0.839701 V 6.0580225 h 1.1875 v 8.3125005 c 0,0.6299 -0.2502,1.234001 -0.6956,1.679401 -0.4454,0.4454 -1.0495,0.6956 -1.6794,0.6956 H 2.8027789 c -0.62989,0 -1.23398,-0.2502 -1.6793796,-0.6956 -0.44539803,-0.4454 -0.69562003,-1.049501 -0.69562003,-1.679401 V 2.4955225 c 0,-0.62989 0.250222,-1.23398 0.69562003,-1.67937897 0.4453996,-0.445398 1.0494896,-0.695621 1.6793796,-0.695621 z"
       fill="#00a2d5"
       id="path993" />
    <path
       d="M 8.7402789,4.2767725 V 0.12052253 L 14.677779,6.0580225 h -4.1562 c -0.47247,0 -0.9255401,-0.18767 -1.2595801,-0.52172 -0.33405,-0.33404 -0.52172,-0.78711 -0.52172,-1.25953 z"
       fill="#00a2d5"
       id="path995" />
  </g>
  <g
     style="fill:none"
     id="g1194"
     transform="translate(-23.803033,22.771463)">
    <line
       x1="27.975853"
       y1="-21.842636"
       x2="27.975853"
       y2="-13.842634"
       stroke="#00a2d5"
       stroke-dasharray="1, 1"
       id="line1165" />
    <line
       x1="28.975853"
       y1="-21.842636"
       x2="28.975853"
       y2="-14.842634"
       stroke="#00a2d5"
       stroke-dasharray="1, 1"
       id="line1167" />
    <rect
       x="27.725853"
       y="-13.592634"
       width="1.5"
       height="2.5"
       stroke="#00a2d5"
       stroke-width="0.5"
       id="rect1169" />
  </g>
</svg>
