<svg xmlns="http://www.w3.org/2000/svg" xml:space="preserve" width="180" height="53.333"><defs><linearGradient x1="0" y1="0" x2="1" y2="0" gradientUnits="userSpaceOnUse" gradientTransform="scale(-237.34) rotate(45 1.43 -2.487)" spreadMethod="pad" id="b"><stop style="stop-opacity:1;stop-color:#00a0ff" offset="0"/><stop style="stop-opacity:1;stop-color:#00a1ff" offset=".007"/><stop style="stop-opacity:1;stop-color:#00beff" offset=".26"/><stop style="stop-opacity:1;stop-color:#00d2ff" offset=".512"/><stop style="stop-opacity:1;stop-color:#00dfff" offset=".76"/><stop style="stop-opacity:1;stop-color:#00e3ff" offset="1"/></linearGradient><linearGradient x1="0" y1="0" x2="1" y2="0" gradientUnits="userSpaceOnUse" gradientTransform="rotate(180 219.172 149.993) scale(241.97)" spreadMethod="pad" id="d"><stop style="stop-opacity:1;stop-color:#ffe000" offset="0"/><stop style="stop-opacity:1;stop-color:#ffbd00" offset=".409"/><stop style="stop-opacity:1;stop-color:orange" offset=".775"/><stop style="stop-opacity:1;stop-color:#ff9c00" offset="1"/></linearGradient><linearGradient x1="0" y1="0" x2="1" y2="0" gradientUnits="userSpaceOnUse" gradientTransform="rotate(-135 231.512 66.39) scale(321.851)" spreadMethod="pad" id="f"><stop style="stop-opacity:1;stop-color:#ff3a44" offset="0"/><stop style="stop-opacity:1;stop-color:#c31162" offset="1"/></linearGradient><linearGradient x1="0" y1="0" x2="1" y2="0" gradientUnits="userSpaceOnUse" gradientTransform="scale(143.72) rotate(-45 4.786 .28)" spreadMethod="pad" id="h"><stop style="stop-opacity:1;stop-color:#32a071" offset="0"/><stop style="stop-opacity:1;stop-color:#2da771" offset=".069"/><stop style="stop-opacity:1;stop-color:#15cf74" offset=".476"/><stop style="stop-opacity:1;stop-color:#06e775" offset=".801"/><stop style="stop-opacity:1;stop-color:#00f076" offset="1"/></linearGradient><linearGradient x1="0" y1="0" x2="1" y2="0" gradientUnits="userSpaceOnUse" gradientTransform="rotate(180 219.172 149.993) scale(241.97)" spreadMethod="pad" id="j"><stop style="stop-opacity:1;stop-color:#ccb300" offset="0"/><stop style="stop-opacity:1;stop-color:#cc9700" offset=".409"/><stop style="stop-opacity:1;stop-color:#cc8400" offset=".775"/><stop style="stop-opacity:1;stop-color:#cc7d00" offset="1"/></linearGradient><linearGradient x1="0" y1="0" x2="1" y2="0" gradientUnits="userSpaceOnUse" gradientTransform="rotate(-135 231.512 66.39) scale(321.851)" spreadMethod="pad" id="l"><stop style="stop-opacity:1;stop-color:#cc2e36" offset="0"/><stop style="stop-opacity:1;stop-color:#9c0e4e" offset="1"/></linearGradient><linearGradient x1="0" y1="0" x2="1" y2="0" gradientUnits="userSpaceOnUse" gradientTransform="scale(-237.34) rotate(45 1.43 -2.487)" spreadMethod="pad" id="n"><stop style="stop-opacity:1;stop-color:#008de0" offset="0"/><stop style="stop-opacity:1;stop-color:#008de0" offset=".007"/><stop style="stop-opacity:1;stop-color:#00a7e0" offset=".26"/><stop style="stop-opacity:1;stop-color:#00b8e0" offset=".512"/><stop style="stop-opacity:1;stop-color:#00c4e0" offset=".76"/><stop style="stop-opacity:1;stop-color:#00c7e0" offset="1"/></linearGradient><linearGradient x1="0" y1="0" x2="1" y2="0" gradientUnits="userSpaceOnUse" gradientTransform="rotate(-135 231.512 66.39) scale(321.851)" spreadMethod="pad" id="p"><stop style="stop-opacity:1;stop-color:#e0333c" offset="0"/><stop style="stop-opacity:1;stop-color:#ab0f56" offset="1"/></linearGradient><linearGradient x1="0" y1="0" x2="1" y2="0" gradientUnits="userSpaceOnUse" gradientTransform="rotate(180 219.172 149.993) scale(241.97)" spreadMethod="pad" id="r"><stop style="stop-opacity:1;stop-color:#e0c500" offset="0"/><stop style="stop-opacity:1;stop-color:#e0a600" offset=".409"/><stop style="stop-opacity:1;stop-color:#e09100" offset=".775"/><stop style="stop-opacity:1;stop-color:#e08900" offset="1"/></linearGradient><linearGradient x1="0" y1="0" x2="1" y2="0" gradientUnits="userSpaceOnUse" gradientTransform="rotate(180 219.172 149.993) scale(241.97)" spreadMethod="pad" id="t"><stop style="stop-opacity:1;stop-color:#ffe840" offset="0"/><stop style="stop-opacity:1;stop-color:#ffce40" offset=".409"/><stop style="stop-opacity:1;stop-color:#ffbc40" offset=".775"/><stop style="stop-opacity:1;stop-color:#ffb540" offset="1"/></linearGradient><linearGradient x1="0" y1="0" x2="1" y2="0" gradientUnits="userSpaceOnUse" gradientTransform="scale(-237.34) rotate(45 1.43 -2.487)" spreadMethod="pad" id="v"><stop style="stop-opacity:1;stop-color:#40b8ff" offset="0"/><stop style="stop-opacity:1;stop-color:#40b9ff" offset=".007"/><stop style="stop-opacity:1;stop-color:#40ceff" offset=".26"/><stop style="stop-opacity:1;stop-color:#40ddff" offset=".512"/><stop style="stop-opacity:1;stop-color:#40e7ff" offset=".76"/><stop style="stop-opacity:1;stop-color:#40eaff" offset="1"/></linearGradient><linearGradient x1="0" y1="0" x2="1" y2="0" gradientUnits="userSpaceOnUse" gradientTransform="scale(143.72) rotate(-45 4.786 .28)" spreadMethod="pad" id="x"><stop style="stop-opacity:1;stop-color:#65b895" offset="0"/><stop style="stop-opacity:1;stop-color:#62bd95" offset=".069"/><stop style="stop-opacity:1;stop-color:#50db97" offset=".476"/><stop style="stop-opacity:1;stop-color:#44ed98" offset=".801"/><stop style="stop-opacity:1;stop-color:#40f498" offset="1"/></linearGradient><clipPath clipPathUnits="userSpaceOnUse" id="a"><path d="m205.098 176.105-.743.711c-2.91 3.079-4.628 7.86-4.628 14.051v-1.457V410.621v-1.516c0 6.704 2.003 11.754 5.359 14.782l123.898-123.895-123.886-123.887M199.77 412.27c0 .007 0 .015.003.023-.003-.008-.003-.016-.003-.023m.003.07v.012-.012"/></clipPath><clipPath clipPathUnits="userSpaceOnUse" id="c"><path d="m370.277 257.215.942.535 48.929 27.801c4.665 2.652 7.774 5.867 9.325 9.269-1.547-3.402-4.657-6.621-9.325-9.273l-48.929-27.801-.942-.531m.012 1.465-41.305 41.312 41.301 41.305 49.863-28.328c6.332-3.598 9.887-8.235 10.481-12.973v-.019c-.594-4.727-4.149-9.368-10.481-12.965l-49.859-28.332"/></clipPath><clipPath clipPathUnits="userSpaceOnUse" id="e"><path d="M213.93 171.387c-3.461 0-6.481 1.125-8.836 3.25l.004.004c2.355-2.125 5.379-3.254 8.84-3.254a18.869 18.869 0 0 1-.008 0m.004 1.465c-3.461-.004-6.481 1.125-8.836 3.25v.003l123.886 123.887 41.305-41.312-145.152-82.473c-4.016-2.277-7.821-3.355-11.203-3.355m-8.871 1.812c-.219.199-.434.41-.645.629l.645-.629"/></clipPath><clipPath clipPathUnits="userSpaceOnUse" id="g"><path d="M328.984 299.992 205.086 423.887c2.355 2.121 5.371 3.246 8.828 3.246 3.391 0 7.199-1.082 11.223-3.363l145.148-82.473-41.301-41.305m42.235 42.238-146.082 83c-4.024 2.282-7.832 3.364-11.223 3.364h-.043.059c3.383 0 7.187-1.078 11.207-3.36l146.082-83.004M213.84 428.594"/></clipPath><clipPath clipPathUnits="userSpaceOnUse" id="i"><path d="m370.277 257.215.942.535-.942-.535"/></clipPath><clipPath clipPathUnits="userSpaceOnUse" id="k"><path d="M213.938 171.387c-3.461 0-6.485 1.129-8.84 3.254l-.004-.004a.286.286 0 0 1-.031.027l-.645.629c-.02.02-.039.043-.063.066l.743.743c2.355-2.125 5.375-3.254 8.836-3.25 3.382 0 7.187 1.078 11.203 3.355l145.152 82.473.93-.93-.942-.535-145.14-82.469c-3.66-2.074-7.141-3.156-10.285-3.336a18.869 18.869 0 0 0-.914-.023"/></clipPath><clipPath clipPathUnits="userSpaceOnUse" id="m"><path d="M204.355 175.359c-2.91 3.079-4.628 7.856-4.628 14.051v1.457c0-6.191 1.718-10.972 4.628-14.051l.743-.711-.743-.746"/></clipPath><clipPath clipPathUnits="userSpaceOnUse" id="o"><path d="m204.355 175.359.743.746v-.003l-.743-.743"/></clipPath><clipPath clipPathUnits="userSpaceOnUse" id="q"><path d="m371.219 257.75-.93.93 49.859 28.332c6.332 3.597 9.887 8.238 10.481 12.965 0-1.735-.387-3.469-1.156-5.157-1.551-3.402-4.66-6.617-9.325-9.269l-48.929-27.801"/></clipPath><clipPath clipPathUnits="userSpaceOnUse" id="s"><path d="M430.629 299.996c-.594 4.738-4.149 9.375-10.481 12.973l-49.863 28.328.93.93h.004l48.929-27.801c6.981-3.969 10.477-9.199 10.481-14.43"/></clipPath><clipPath clipPathUnits="userSpaceOnUse" id="u"><path d="M199.727 409.105v1.528c0 .551.015 1.09.043 1.613v.024c0 .007 0 .015.003.023v.059c.301 5.332 1.957 9.492 4.582 12.269l.731-.734c-3.356-3.028-5.359-8.078-5.359-14.782m5.339 16.215.028.028c-.008-.012-.02-.02-.028-.028"/></clipPath><clipPath clipPathUnits="userSpaceOnUse" id="w"><path d="M370.285 341.297 225.137 423.77c-4.024 2.281-7.832 3.363-11.223 3.363-3.457 0-6.473-1.125-8.828-3.246l-.731.734c.231.242.465.477.711.699l.028.024c2.336 2.105 5.32 3.23 8.746 3.25h.074c3.391 0 7.199-1.082 11.223-3.364l146.082-83-.004-.003-.93-.93"/></clipPath></defs><path d="M100 150c0-27.5 22.5-50 50-50h1250c27.5 0 50 22.5 50 50v300c0 27.5-22.5 50-50 50H150c-27.5 0-50-22.5-50-50V150" style="fill:#fff;fill-opacity:1;fill-rule:nonzero;stroke:none" transform="matrix(.13333 0 0 -.13333 -13.333 66.667)"/><path d="M1400 100H150c-27.5 0-50 22.5-50 50v300c0 27.5 22.5 50 50 50h1250c27.5 0 50-22.5 50-50V150c0-27.5-22.5-50-50-50" style="fill:#000;fill-opacity:1;fill-rule:nonzero;stroke:none" transform="matrix(.13333 0 0 -.13333 -13.333 66.667)"/><path d="M1400 500H150c-27.5 0-50-22.5-50-50V150c0-27.5 22.5-50 50-50h1250c27.5 0 50 22.5 50 50v300c0 27.5-22.5 50-50 50m0-8c23.16 0 42-18.844 42-42V150c0-23.16-18.84-42.004-42-42.004H150c-23.156 0-42 18.844-42 42.004v300c0 23.156 18.844 42 42 42h1250" style="fill:#a6a6a6;fill-opacity:1;fill-rule:nonzero;stroke:none" transform="matrix(.13333 0 0 -.13333 -13.333 66.667)"/><path d="M1169.36 200h18.66v125.012h-18.66zm168.07 79.98-21.39-54.199h-.64l-22.2 54.199h-20.1l33.29-75.753-18.98-42.137h19.47l51.3 117.89zm-105.82-65.781c-6.12 0-14.64 3.055-14.64 10.617 0 9.649 10.62 13.348 19.78 13.348 8.21 0 12.06-1.769 17.05-4.184-1.45-11.578-11.42-19.781-22.19-19.781zm2.25 68.516c-13.51 0-27.5-5.953-33.29-19.141l16.56-6.914c3.54 6.914 10.13 9.168 17.05 9.168 9.65 0 19.46-5.793 19.62-16.086v-1.285c-3.38 1.93-10.61 4.824-19.46 4.824-17.85 0-36.03-9.808-36.03-28.144 0-16.727 14.64-27.504 31.04-27.504 12.55 0 19.46 5.629 23.81 12.222h.64v-9.648h18.01v47.93c0 22.191-16.56 34.578-37.95 34.578zm-115.32-17.953H1092v42.851h26.54c13.95 0 21.87-11.55 21.87-21.425 0-9.688-7.92-21.426-21.87-21.426zm-.48 60.25h-44.71V200H1092v47.363h26.06c20.68 0 41.01 14.973 41.01 38.825 0 23.851-20.33 38.824-41.01 38.824zM874.25 214.176c-12.891 0-23.684 10.793-23.684 25.617 0 14.98 10.793 25.937 23.684 25.937 12.727 0 22.715-10.957 22.715-25.937 0-14.824-9.988-25.617-22.715-25.617zm21.426 58.804h-.645c-4.187 4.993-12.246 9.504-22.394 9.504-21.266 0-40.758-18.687-40.758-42.691 0-23.844 19.492-42.371 40.758-42.371 10.148 0 18.207 4.512 22.394 9.664h.645v-6.121c0-16.274-8.699-24.973-22.715-24.973-11.438 0-18.527 8.219-21.43 15.145l-16.269-6.766c4.672-11.277 17.078-25.133 37.699-25.133 21.91 0 40.437 12.891 40.437 44.305v76.363h-17.722ZM926.285 200h18.688v125.016h-18.688zm46.238 41.242c-.484 16.434 12.727 24.809 22.231 24.809 7.416 0 13.696-3.703 15.786-9.024zm57.997 14.176c-3.54 9.508-14.34 27.066-36.411 27.066-21.91 0-40.113-17.238-40.113-42.531 0-23.844 18.043-42.531 42.207-42.531 19.497 0 30.777 11.922 35.447 18.848l-14.5 9.668c-4.83-7.09-11.44-11.762-20.947-11.762-9.504 0-16.269 4.351-20.621 12.887l56.868 23.523zm-453.082 14.016v-18.043h43.175c-1.289-10.149-4.672-17.559-9.828-22.715-6.281-6.285-16.109-13.211-33.347-13.211-26.583 0-47.364 21.426-47.364 48.008 0 26.582 20.781 48.011 47.364 48.011 14.339 0 24.808-5.64 32.542-12.89l12.727 12.726c-10.793 10.313-25.133 18.207-45.269 18.207-36.411 0-67.02-29.644-67.02-66.054 0-36.41 30.609-66.051 67.02-66.051 19.656 0 34.476 6.441 46.074 18.527 11.922 11.922 15.629 28.676 15.629 42.207 0 4.192-.321 8.055-.969 11.278zm110.789-55.258c-12.891 0-24.008 10.633-24.008 25.777 0 15.305 11.117 25.777 24.008 25.777 12.886 0 24.003-10.472 24.003-25.777 0-15.144-11.117-25.777-24.003-25.777zm0 68.308c-23.524 0-42.696-17.882-42.696-42.531 0-24.488 19.172-42.531 42.696-42.531 23.519 0 42.691 18.043 42.691 42.531 0 24.649-19.172 42.531-42.691 42.531zm93.132-68.308c-12.886 0-24.004 10.633-24.004 25.777 0 15.305 11.118 25.777 24.004 25.777 12.887 0 24.004-10.472 24.004-25.777 0-15.144-11.117-25.777-24.004-25.777zm0 68.308c-23.523 0-42.691-17.882-42.691-42.531 0-24.488 19.168-42.531 42.691-42.531 23.52 0 42.692 18.043 42.692 42.531 0 24.649-19.172 42.531-42.692 42.531" style="fill:#fff;fill-opacity:1;fill-rule:nonzero;stroke:none" transform="matrix(.13333 0 0 -.13333 -13.333 66.667)"/><g clip-path="url(#a)" transform="matrix(.13333 0 0 -.13333 -13.333 66.667)"><path d="m205.098 176.105-.743.711c-2.91 3.079-4.628 7.86-4.628 14.051v-1.457V410.621v-1.516c0 6.704 2.003 11.754 5.359 14.782l123.898-123.895-123.886-123.887M199.77 412.27c0 .007 0 .015.003.023-.003-.008-.003-.016-.003-.023m.003.07v.012-.012" style="fill:url(#b);fill-opacity:1;fill-rule:nonzero;stroke:none"/></g><g clip-path="url(#c)" transform="matrix(.13333 0 0 -.13333 -13.333 66.667)"><path d="m370.277 257.215.942.535 48.929 27.801c4.665 2.652 7.774 5.867 9.325 9.269-1.547-3.402-4.657-6.621-9.325-9.273l-48.929-27.801-.942-.531m.012 1.465-41.305 41.312 41.301 41.305 49.863-28.328c6.332-3.598 9.887-8.235 10.481-12.973v-.019c-.594-4.727-4.149-9.368-10.481-12.965l-49.859-28.332" style="fill:url(#d);fill-opacity:1;fill-rule:nonzero;stroke:none"/></g><g clip-path="url(#e)" transform="matrix(.13333 0 0 -.13333 -13.333 66.667)"><path d="M213.93 171.387c-3.461 0-6.481 1.125-8.836 3.25l.004.004c2.355-2.125 5.379-3.254 8.84-3.254a18.869 18.869 0 0 1-.008 0m.004 1.465c-3.461-.004-6.481 1.125-8.836 3.25v.003l123.886 123.887 41.305-41.312-145.152-82.473c-4.016-2.277-7.821-3.355-11.203-3.355m-8.871 1.812c-.219.199-.434.41-.645.629l.645-.629" style="fill:url(#f);fill-opacity:1;fill-rule:nonzero;stroke:none"/></g><g clip-path="url(#g)" transform="matrix(.13333 0 0 -.13333 -13.333 66.667)"><path d="M328.984 299.992 205.086 423.887c2.355 2.121 5.371 3.246 8.828 3.246 3.391 0 7.199-1.082 11.223-3.363l145.148-82.473-41.301-41.305m42.235 42.238-146.082 83c-4.024 2.282-7.832 3.364-11.223 3.364h-.043.059c3.383 0 7.187-1.078 11.207-3.36l146.082-83.004M213.84 428.594" style="fill:url(#h);fill-opacity:1;fill-rule:nonzero;stroke:none"/></g><path d="M214.852 171.41c3.144.18 6.625 1.262 10.285 3.336l145.14 82.469-145.14-82.469c-3.657-2.078-7.141-3.156-10.285-3.336m-9.758 3.227-.031.027a.286.286 0 0 0 .031-.027m-.676.656-.063.062v.004c.024-.023.043-.046.063-.066" style="fill:#000;fill-opacity:1;fill-rule:nonzero;stroke:none" transform="matrix(.13333 0 0 -.13333 -13.333 66.667)"/><g clip-path="url(#i)" transform="matrix(.13333 0 0 -.13333 -13.333 66.667)"><path d="m370.277 257.215.942.535-.942-.535" style="fill:url(#j);fill-opacity:1;fill-rule:nonzero;stroke:none"/></g><g clip-path="url(#k)" transform="matrix(.13333 0 0 -.13333 -13.333 66.667)"><path d="M213.938 171.387c-3.461 0-6.485 1.129-8.84 3.254l-.004-.004a.286.286 0 0 1-.031.027l-.645.629c-.02.02-.039.043-.063.066l.743.743c2.355-2.125 5.375-3.254 8.836-3.25 3.382 0 7.187 1.078 11.203 3.355l145.152 82.473.93-.93-.942-.535-145.14-82.469c-3.66-2.074-7.141-3.156-10.285-3.336a18.869 18.869 0 0 0-.914-.023" style="fill:url(#l);fill-opacity:1;fill-rule:nonzero;stroke:none"/></g><path d="M204.355 175.355c-2.91 3.079-4.628 7.86-4.628 14.051v.004c0-6.195 1.718-10.972 4.628-14.051v-.004" style="fill:#000;fill-opacity:1;fill-rule:nonzero;stroke:none" transform="matrix(.13333 0 0 -.13333 -13.333 66.667)"/><g clip-path="url(#m)" transform="matrix(.13333 0 0 -.13333 -13.333 66.667)"><path d="M204.355 175.359c-2.91 3.079-4.628 7.856-4.628 14.051v1.457c0-6.191 1.718-10.972 4.628-14.051l.743-.711-.743-.746" style="fill:url(#n);fill-opacity:1;fill-rule:nonzero;stroke:none"/></g><g clip-path="url(#o)" transform="matrix(.13333 0 0 -.13333 -13.333 66.667)"><path d="m204.355 175.359.743.746v-.003l-.743-.743" style="fill:url(#p);fill-opacity:1;fill-rule:nonzero;stroke:none"/></g><path d="M429.473 294.82c.769 1.688 1.156 3.422 1.156 5.157v.007c0-1.738-.387-3.472-1.156-5.164" style="fill:#000;fill-opacity:1;fill-rule:nonzero;stroke:none" transform="matrix(.13333 0 0 -.13333 -13.333 66.667)"/><g clip-path="url(#q)" transform="matrix(.13333 0 0 -.13333 -13.333 66.667)"><path d="m371.219 257.75-.93.93 49.859 28.332c6.332 3.597 9.887 8.238 10.481 12.965 0-1.735-.387-3.469-1.156-5.157-1.551-3.402-4.66-6.617-9.325-9.269l-48.929-27.801" style="fill:url(#r);fill-opacity:1;fill-rule:nonzero;stroke:none"/></g><path d="M430.629 299.992v.004c-.004 5.231-3.5 10.461-10.481 14.43l-48.929 27.801h-.004l.004.003 48.929-27.8c6.989-3.969 10.489-9.207 10.481-14.438" style="fill:#404040;fill-opacity:1;fill-rule:nonzero;stroke:none" transform="matrix(.13333 0 0 -.13333 -13.333 66.667)"/><g clip-path="url(#s)" transform="matrix(.13333 0 0 -.13333 -13.333 66.667)"><path d="M430.629 299.996c-.594 4.738-4.149 9.375-10.481 12.973l-49.863 28.328.93.93h.004l48.929-27.801c6.981-3.969 10.477-9.199 10.481-14.43" style="fill:url(#t);fill-opacity:1;fill-rule:nonzero;stroke:none"/></g><path d="M199.727 410.621v.012-.012m.043 1.625v.024-.024m.003.047v.047-.047m0 .059c.579 10.273 6.165 16.207 14.067 16.242-3.426-.02-6.41-1.145-8.746-3.25v.004l-.028-.028c-.246-.222-.48-.457-.711-.699-2.625-2.777-4.281-6.937-4.582-12.269" style="fill:#404040;fill-opacity:1;fill-rule:nonzero;stroke:none" transform="matrix(.13333 0 0 -.13333 -13.333 66.667)"/><g clip-path="url(#u)" transform="matrix(.13333 0 0 -.13333 -13.333 66.667)"><path d="M199.727 409.105v1.528c0 .551.015 1.09.043 1.613v.024c0 .007 0 .015.003.023v.059c.301 5.332 1.957 9.492 4.582 12.269l.731-.734c-3.356-3.028-5.359-8.078-5.359-14.782m5.339 16.215.028.028c-.008-.012-.02-.02-.028-.028" style="fill:url(#v);fill-opacity:1;fill-rule:nonzero;stroke:none"/></g><path d="M213.84 428.594h.031-.031" style="fill:#404040;fill-opacity:1;fill-rule:nonzero;stroke:none" transform="matrix(.13333 0 0 -.13333 -13.333 66.667)"/><g clip-path="url(#w)" transform="matrix(.13333 0 0 -.13333 -13.333 66.667)"><path d="M370.285 341.297 225.137 423.77c-4.024 2.281-7.832 3.363-11.223 3.363-3.457 0-6.473-1.125-8.828-3.246l-.731.734c.231.242.465.477.711.699l.028.024c2.336 2.105 5.32 3.23 8.746 3.25h.074c3.391 0 7.199-1.082 11.223-3.364l146.082-83-.004-.003-.93-.93" style="fill:url(#x);fill-opacity:1;fill-rule:nonzero;stroke:none"/></g><path d="M523.883 382.777c4.441-4.496 9.871-6.742 16.297-6.742 6.425 0 11.867 2.246 16.3 6.742 4.442 4.496 6.668 10.243 6.668 17.223 0 6.98-2.226 12.727-6.668 17.223-4.433 4.496-9.875 6.742-16.3 6.742-6.426 0-11.856-2.246-16.297-6.742-4.434-4.496-6.66-10.243-6.66-17.223 0-6.98 2.226-12.727 6.66-17.223zm38.301-5.023c-5.899-6.066-13.235-9.094-22.004-9.094-8.77 0-16.102 3.028-21.992 9.094-5.899 6.059-8.836 13.476-8.836 22.246 0 8.77 2.937 16.188 8.836 22.246 5.89 6.067 13.222 9.098 21.992 9.098 8.722 0 16.035-3.047 21.965-9.137 5.918-6.09 8.875-13.492 8.875-22.207 0-8.77-2.95-16.187-8.836-22.246" style="fill:#fff;fill-opacity:1;fill-rule:nonzero;stroke:none" transform="matrix(.13333 0 0 -.13333 -13.333 66.667)"/><path d="m523.883 382.777-.711-.703c4.605-4.676 10.351-7.051 17.008-7.039 6.66-.012 12.414 2.363 17.011 7.039 4.633 4.68 6.969 10.735 6.957 17.926.012 7.191-2.324 13.246-6.957 17.926-4.597 4.676-10.351 7.051-17.011 7.039-6.657.012-12.403-2.363-17.008-7.039-4.625-4.68-6.961-10.735-6.949-17.926-.012-7.191 2.324-13.246 6.949-17.926l.711.703.711.703c-4.242 4.317-6.364 9.747-6.371 16.52.007 6.773 2.129 12.203 6.371 16.52 4.277 4.316 9.394 6.433 15.586 6.445 6.195-.012 11.316-2.129 15.586-6.445h.004c4.25-4.317 6.371-9.747 6.378-16.52-.007-6.773-2.128-12.203-6.378-16.52-4.274-4.316-9.395-6.433-15.59-6.445-6.192.012-11.309 2.129-15.586 6.445zm38.301-5.023-.719.695c-5.731-5.875-12.742-8.777-21.285-8.789-8.539.012-15.551 2.914-21.274 8.789-5.722 5.895-8.547 13.004-8.554 21.551.007 8.547 2.832 15.656 8.554 21.551 5.723 5.875 12.735 8.781 21.274 8.793 8.488-.012 15.484-2.93 21.246-8.836 5.746-5.922 8.586-13.02 8.594-21.508-.008-8.547-2.84-15.656-8.555-21.551l.719-.695.714-.695c6.067 6.226 9.133 13.949 9.122 22.941.011 8.941-3.067 16.648-9.161 22.902-6.089 6.278-13.726 9.453-22.679 9.442-8.996.011-16.653-3.149-22.707-9.403v.004c-6.078-6.23-9.133-13.953-9.121-22.945-.012-8.992 3.043-16.715 9.121-22.945v.004c6.054-6.254 13.711-9.407 22.707-9.399 9-.008 16.656 3.145 22.718 9.399l-.714.695M581.84 370v60h9.387l29.16-46.676h.332l-.332 11.563V430h7.715v-60h-8.047l-30.508 48.938h-.332l.332-11.567V370h-7.707" style="fill:#fff;fill-opacity:1;fill-rule:nonzero;stroke:none" transform="matrix(.13333 0 0 -.13333 -13.333 66.667)"/><path d="M581.84 370h1v59h7.832l29.16-46.676h1.914l-.359 12.578V429h5.715v-58h-6.493l-30.507 48.938h-1.918l.363-12.583V371h-6.707v-1h1-1v-1h8.707v38.387l-.332 11.578-1-.027v-1h.332v1l-.852-.532L619.5 369h9.602v62h-9.715v-36.125l.332-11.578 1 .027v1h-.332v-1l.847.531L591.781 431H580.84v-62h1v1M662.281 370h-7.715v52.629h-16.757V430h41.23v-7.371h-16.758V370" style="fill:#fff;fill-opacity:1;fill-rule:nonzero;stroke:none" transform="matrix(.13333 0 0 -.13333 -13.333 66.667)"/><path d="M662.281 370v1h-6.715v52.629h-16.757V429h39.23v-5.371h-16.758V370h1v1-1h1v51.629h16.758V431h-43.23v-9.371h16.757V369h9.715v1h-1M696.469 377.371h10.644c6.926 0 12.414 1.984 16.465 5.953 4.055 3.965 6.074 9.528 6.074 16.676 0 7.094-2.019 12.637-6.074 16.637-4.051 3.988-9.539 5.992-16.465 5.992h-10.644ZM688.766 370v60h18.347c9.219 0 16.594-2.777 22.129-8.34 5.528-5.555 8.293-12.773 8.293-21.66 0-8.883-2.765-16.105-8.293-21.66-5.535-5.563-12.91-8.34-22.129-8.34h-18.347" style="fill:#fff;fill-opacity:1;fill-rule:nonzero;stroke:none" transform="matrix(.13333 0 0 -.13333 -13.333 66.667)"/><path d="M696.469 377.371v-1h10.644c7.11-.008 12.907 2.059 17.164 6.238 4.282 4.184 6.383 10.063 6.375 17.391.008 7.273-2.093 13.137-6.371 17.348-4.258 4.203-10.058 6.289-17.168 6.281h-11.644v-47.258h1v1h1v44.258h9.644c6.739-.012 11.918-1.93 15.766-5.707v.004c3.828-3.789 5.766-9.012 5.773-15.926-.007-6.969-1.949-12.211-5.773-15.961-3.844-3.758-9.024-5.656-15.766-5.668h-10.644v-1h1zM688.766 370h1v59h17.347c9.028-.008 16.082-2.691 21.422-8.047 5.328-5.367 7.988-12.269 8-20.953-.012-8.68-2.672-15.586-8-20.953-5.34-5.356-12.394-8.039-21.422-8.047h-18.347v-1h1-1v-1h18.347c9.414-.008 17.106 2.863 22.84 8.633 5.727 5.746 8.59 13.285 8.582 22.367.008 9.09-2.855 16.621-8.582 22.363-5.734 5.774-13.426 8.645-22.84 8.637h-19.347v-62h1v1M783.367 422.629h-27.328v-19.024h24.645v-7.21h-24.645v-19.024h27.328V370h-35.031v60h35.031v-7.371" style="fill:#fff;fill-opacity:1;fill-rule:nonzero;stroke:none" transform="matrix(.13333 0 0 -.13333 -13.333 66.667)"/><path d="M783.367 422.629v1h-28.328v-21.024h24.645v-5.21h-24.645v-21.024h27.328V371h-33.031v58h33.031v-6.371h1v1-1h1V431h-37.031v-62h37.031v9.371h-27.328v17.024h24.645v9.21h-24.645v17.024h27.328v1h-1M839.855 430v-.332l-22.296-25.73 23.796-33.606V370h-9.46l-19.532 27.988-9.218-10.644V370h-7.707v60h7.707v-30.918h.339L829.883 430h9.972" style="fill:#fff;fill-opacity:1;fill-rule:nonzero;stroke:none" transform="matrix(.13333 0 0 -.13333 -13.333 66.667)"/><path d="M839.855 430h-1.003v-.332h1.003l-.757.656-22.809-26.328 24.066-33.98V370h1v1h-8.937l-19.969 28.613-10.304-11.894V371h-5.707v58h5.707v-30.918h1.8L830.344 429h9.511v1h-1.003 1.003v1h-10.433l-26.695-31.27.757-.648v1h-.339v-1h1V431h-9.707v-62h9.707v17.973l8.132 9.39L831.371 369h10.984V370.648l-23.527 33.227 22.027 25.422V431h-1v-1M869.348 370v60h7.703v-25.723h30V430h7.715v-60h-7.715v27.07h-30V370h-7.703" style="fill:#fff;fill-opacity:1;fill-rule:nonzero;stroke:none" transform="matrix(.13333 0 0 -.13333 -13.333 66.667)"/><path d="M869.348 370h1v59h5.703v-25.723h32V429h5.715v-58h-5.715v27.07h-32V371h-6.703v-1h1-1v-1h8.703v27.07h28V369h9.715v62h-9.715v-25.723h-28V431h-9.703v-62h1v1M963.547 422.629h-27.324v-19.024h24.636v-7.21h-24.636v-19.024h27.324V370h-35.031v60h35.031v-7.371" style="fill:#fff;fill-opacity:1;fill-rule:nonzero;stroke:none" transform="matrix(.13333 0 0 -.13333 -13.333 66.667)"/><path d="M963.547 422.629v1h-28.324v-21.024h24.636v-5.207l-24.636-.003v-21.024h27.324V371h-33.031v58h33.031v-6.371h1v1-1h1V431h-37.031v-62h37.031v9.371h-27.324v17.024h24.636v9.21h-24.636v17.024h27.324v1h-1M996.063 370h-7.711v52.629h-16.758V430h41.226v-7.371h-16.757V370" style="fill:#fff;fill-opacity:1;fill-rule:nonzero;stroke:none" transform="matrix(.13333 0 0 -.13333 -13.333 66.667)"/><path d="M996.063 370v1h-6.715l.004 52.629h-16.758V429h39.226v-5.371h-16.757V370h1v1-1h1v51.629h16.757V431h-43.226v-9.371h16.758V369h9.711v1h-1M1052.58 382.777c4.44-4.496 9.87-6.742 16.3-6.742 6.42 0 11.86 2.246 16.3 6.742 4.44 4.496 6.67 10.243 6.67 17.223 0 6.98-2.23 12.727-6.67 17.223-4.44 4.496-9.88 6.742-16.3 6.742-6.43 0-11.86-2.246-16.3-6.742-4.44-4.496-6.66-10.243-6.66-17.223 0-6.98 2.22-12.727 6.66-17.223zm38.3-5.023c-5.9-6.066-13.23-9.094-22-9.094s-16.11 3.028-22 9.094c-5.89 6.059-8.83 13.476-8.83 22.246 0 8.77 2.94 16.188 8.83 22.246 5.89 6.067 13.23 9.098 22 9.098 8.72 0 16.03-3.047 21.96-9.137 5.92-6.09 8.88-13.492 8.88-22.207 0-8.77-2.95-16.187-8.84-22.246" style="fill:#fff;fill-opacity:1;fill-rule:nonzero;stroke:none" transform="matrix(.13333 0 0 -.13333 -13.333 66.667)"/><path d="m1052.58 382.777-.71-.703c4.6-4.676 10.35-7.051 17.01-7.039 6.66-.012 12.41 2.363 17.01 7.039 4.63 4.68 6.97 10.735 6.96 17.926.01 7.191-2.33 13.246-6.96 17.926-4.6 4.676-10.35 7.051-17.01 7.039-6.66.012-12.41-2.363-17.01-7.039-4.63-4.68-6.96-10.735-6.95-17.926-.01-7.191 2.32-13.246 6.95-17.926l.71.703.71.703c-4.24 4.317-6.36 9.747-6.37 16.52.01 6.773 2.13 12.203 6.37 16.52 4.28 4.316 9.39 6.433 15.59 6.445 6.19-.012 11.31-2.129 15.58-6.445l.04-.032-.04.032c4.26-4.317 6.38-9.747 6.39-16.52-.01-6.773-2.13-12.203-6.39-16.52-4.27-4.316-9.39-6.433-15.58-6.445-6.2.012-11.31 2.129-15.59 6.445zm38.3-5.023-.72.695c-5.73-5.875-12.74-8.777-21.28-8.789-8.54.012-15.56 2.914-21.28 8.789-5.72 5.895-8.54 13.004-8.55 21.551.01 8.547 2.83 15.656 8.55 21.551 5.72 5.875 12.74 8.781 21.28 8.793 8.49-.012 15.48-2.93 21.24-8.836 5.75-5.922 8.59-13.02 8.6-21.508-.01-8.547-2.85-15.656-8.56-21.551l.72-.695.72-.695c6.06 6.226 9.13 13.949 9.12 22.941.01 8.941-3.07 16.648-9.16 22.902-6.1 6.278-13.73 9.453-22.68 9.442-9 .011-16.66-3.149-22.71-9.403v.004c-6.08-6.23-9.13-13.953-9.12-22.945-.01-8.992 3.04-16.715 9.12-22.945v.004c6.05-6.254 13.71-9.407 22.71-9.399 9-.008 16.65 3.145 22.72 9.399l-.72.695M1118.23 401.68h12.91c3.24 0 5.84 1.086 7.8 3.261 1.95 2.184 2.93 4.579 2.93 7.207 0 2.625-.98 5.032-2.93 7.207-1.96 2.184-4.56 3.274-7.8 3.274h-12.91zm0-31.68h-7.7v60h20.45c5.07 0 9.48-1.687 13.19-5.066 3.72-3.379 5.58-7.645 5.58-12.786 0-5.136-1.86-9.394-5.58-12.773-3.71-3.383-8.12-5.074-13.19-5.074h-12.75V370" style="fill:#fff;fill-opacity:1;fill-rule:nonzero;stroke:none" transform="matrix(.13333 0 0 -.13333 -13.333 66.667)"/><path d="M1118.23 401.68v-1h12.91c3.46-.012 6.41 1.199 8.54 3.593 2.09 2.325 3.19 4.997 3.19 7.875 0 2.879-1.1 5.555-3.19 7.875-2.13 2.403-5.08 3.618-8.54 3.606h-13.91V400.68h1v1h1v19.949h11.91c3.03-.016 5.28-.977 7.05-2.941 1.82-2.036 2.67-4.165 2.68-6.54-.01-2.375-.86-4.496-2.68-6.539-1.77-1.961-4.02-2.918-7.05-2.929h-12.91v-1h1zm0-31.68v1h-6.7v58h19.45c4.85-.008 8.97-1.59 12.52-4.809 3.52-3.214 5.23-7.14 5.25-12.043-.02-4.894-1.73-8.816-5.25-12.035-3.55-3.222-7.67-4.804-12.52-4.812h-13.75V370h1v1-1h1v23.301h11.75c5.3-.008 9.99 1.793 13.86 5.336 3.92 3.539 5.92 8.133 5.91 13.511.01 5.383-1.99 9.981-5.91 13.524-3.87 3.539-8.56 5.336-13.86 5.328h-21.45v-62h9.7v1h-1" style="fill:#fff;fill-opacity:1;fill-rule:nonzero;stroke:none" transform="matrix(.13333 0 0 -.13333 -13.333 66.667)"/></svg>