<?xml version="1.0" encoding="UTF-8" standalone="no"?>
<svg
   xmlns:dc="http://purl.org/dc/elements/1.1/"
   xmlns:cc="http://creativecommons.org/ns#"
   xmlns:rdf="http://www.w3.org/1999/02/22-rdf-syntax-ns#"
   xmlns:svg="http://www.w3.org/2000/svg"
   xmlns="http://www.w3.org/2000/svg"
   version="1.1"
   id="svg990"
   xml:space="preserve"
   width="180"
   height="53.333332"
   viewBox="0 0 179.99999 53.333332"><metadata
     id="metadata996"><rdf:RDF><cc:Work
         rdf:about=""><dc:format>image/svg+xml</dc:format><dc:type
           rdf:resource="http://purl.org/dc/dcmitype/StillImage" /><dc:title></dc:title></cc:Work></rdf:RDF></metadata><defs
     id="defs994"><clipPath
       clipPathUnits="userSpaceOnUse"
       id="clipPath1016"><path
         d="m 205.098,176.105 -0.743,0.711 c -2.91,3.079 -4.628,7.86 -4.628,14.051 v -1.457 0 221.16 c 0,0.02 0,0.035 0,0.051 0,-0.019 0,-0.035 0,-0.055 v -1.461 c 0,6.704 2.003,11.754 5.359,14.782 L 328.984,299.992 205.098,176.105 m -5.371,234.528 c 0,0.551 0.015,1.086 0.043,1.613 -0.028,-0.523 -0.043,-1.062 -0.043,-1.613 m 0.043,1.637 c 0,0.007 0,0.015 0.003,0.023 -0.003,-0.008 -0.003,-0.016 -0.003,-0.023 m 0.003,0.07 c 0,0.004 0,0.008 0,0.012 0,-0.004 0,-0.008 0,-0.012"
         id="path1014" /></clipPath><linearGradient
       x1="0"
       y1="0"
       x2="1"
       y2="0"
       gradientUnits="userSpaceOnUse"
       gradientTransform="matrix(-167.825,-167.825,167.825,-167.825,317.998,412.903)"
       spreadMethod="pad"
       id="linearGradient1030"><stop
         style="stop-opacity:1;stop-color:#00a0ff"
         offset="0"
         id="stop1018" /><stop
         style="stop-opacity:1;stop-color:#00a1ff"
         offset="0.00657445"
         id="stop1020" /><stop
         style="stop-opacity:1;stop-color:#00beff"
         offset="0.2601"
         id="stop1022" /><stop
         style="stop-opacity:1;stop-color:#00d2ff"
         offset="0.5122"
         id="stop1024" /><stop
         style="stop-opacity:1;stop-color:#00dfff"
         offset="0.7604"
         id="stop1026" /><stop
         style="stop-opacity:1;stop-color:#00e3ff"
         offset="1"
         id="stop1028" /></linearGradient><clipPath
       clipPathUnits="userSpaceOnUse"
       id="clipPath1040"><path
         d="m 370.277,257.215 v 0 l 0.942,0.535 48.929,27.801 c 4.665,2.652 7.774,5.867 9.325,9.269 -1.547,-3.402 -4.657,-6.621 -9.325,-9.273 l -48.929,-27.801 -0.942,-0.531 m 0.012,1.465 -41.305,41.312 41.301,41.305 49.863,-28.328 c 6.332,-3.598 9.887,-8.235 10.481,-12.973 0,-0.004 0,-0.012 0,-0.019 -0.594,-4.727 -4.149,-9.368 -10.481,-12.965 L 370.289,258.68"
         id="path1038" /></clipPath><linearGradient
       x1="0"
       y1="0"
       x2="1"
       y2="0"
       gradientUnits="userSpaceOnUse"
       gradientTransform="matrix(-241.97,0,0,-241.97,438.344,299.986)"
       spreadMethod="pad"
       id="linearGradient1050"><stop
         style="stop-opacity:1;stop-color:#ffe000"
         offset="0"
         id="stop1042" /><stop
         style="stop-opacity:1;stop-color:#ffbd00"
         offset="0.4087"
         id="stop1044" /><stop
         style="stop-opacity:1;stop-color:#ffa500"
         offset="0.7754"
         id="stop1046" /><stop
         style="stop-opacity:1;stop-color:#ff9c00"
         offset="1"
         id="stop1048" /></linearGradient><clipPath
       clipPathUnits="userSpaceOnUse"
       id="clipPath1060"><path
         d="m 213.93,171.387 c -3.461,0 -6.481,1.125 -8.836,3.25 l 0.004,0.004 c 2.355,-2.125 5.379,-3.254 8.84,-3.254 0.3,0 0.605,0.008 0.914,0.023 -0.313,-0.015 -0.622,-0.023 -0.922,-0.023 m 0.004,1.465 c -3.461,-0.004 -6.481,1.125 -8.836,3.25 v 0 0.003 l 123.886,123.887 41.305,-41.312 v 0 L 225.137,176.207 c -4.016,-2.277 -7.821,-3.355 -11.203,-3.355 m -8.871,1.812 c -0.219,0.199 -0.434,0.41 -0.645,0.629 l 0.645,-0.629"
         id="path1058" /></clipPath><linearGradient
       x1="0"
       y1="0"
       x2="1"
       y2="0"
       gradientUnits="userSpaceOnUse"
       gradientTransform="matrix(-227.583,-227.583,227.583,-227.583,348.27,277.039)"
       spreadMethod="pad"
       id="linearGradient1066"><stop
         style="stop-opacity:1;stop-color:#ff3a44"
         offset="0"
         id="stop1062" /><stop
         style="stop-opacity:1;stop-color:#c31162"
         offset="1"
         id="stop1064" /></linearGradient><clipPath
       clipPathUnits="userSpaceOnUse"
       id="clipPath1076"><path
         d="m 328.984,299.992 v 0 L 205.086,423.887 c 2.355,2.121 5.371,3.246 8.828,3.246 3.391,0 7.199,-1.082 11.223,-3.363 l 145.148,-82.473 -41.301,-41.305 m 42.235,42.238 -146.082,83 c -4.024,2.282 -7.832,3.364 -11.223,3.364 -0.016,0 -0.027,0 -0.043,0 0.02,0 0.035,0 0.059,0 3.383,0 7.187,-1.078 11.207,-3.36 L 371.219,342.23 M 213.84,428.594 v 0 0"
         id="path1074" /></clipPath><linearGradient
       x1="0"
       y1="0"
       x2="1"
       y2="0"
       gradientUnits="userSpaceOnUse"
       gradientTransform="matrix(101.625,-101.625,101.625,101.625,172.973,498.238)"
       spreadMethod="pad"
       id="linearGradient1088"><stop
         style="stop-opacity:1;stop-color:#32a071"
         offset="0"
         id="stop1078" /><stop
         style="stop-opacity:1;stop-color:#2da771"
         offset="0.0685"
         id="stop1080" /><stop
         style="stop-opacity:1;stop-color:#15cf74"
         offset="0.4762"
         id="stop1082" /><stop
         style="stop-opacity:1;stop-color:#06e775"
         offset="0.8009"
         id="stop1084" /><stop
         style="stop-opacity:1;stop-color:#00f076"
         offset="1"
         id="stop1086" /></linearGradient><clipPath
       clipPathUnits="userSpaceOnUse"
       id="clipPath1100"><path
         d="m 370.277,257.215 v 0 l 0.942,0.535 -0.942,-0.535"
         id="path1098" /></clipPath><linearGradient
       x1="0"
       y1="0"
       x2="1"
       y2="0"
       gradientUnits="userSpaceOnUse"
       gradientTransform="matrix(-241.97,0,0,-241.97,438.344,299.986)"
       spreadMethod="pad"
       id="linearGradient1110"><stop
         style="stop-opacity:1;stop-color:#ccb300"
         offset="0"
         id="stop1102" /><stop
         style="stop-opacity:1;stop-color:#cc9700"
         offset="0.4087"
         id="stop1104" /><stop
         style="stop-opacity:1;stop-color:#cc8400"
         offset="0.7754"
         id="stop1106" /><stop
         style="stop-opacity:1;stop-color:#cc7d00"
         offset="1"
         id="stop1108" /></linearGradient><clipPath
       clipPathUnits="userSpaceOnUse"
       id="clipPath1120"><path
         d="m 213.938,171.387 c -3.461,0 -6.485,1.129 -8.84,3.254 l -0.004,-0.004 c -0.008,0.008 -0.02,0.019 -0.031,0.027 l -0.645,0.629 c -0.02,0.02 -0.039,0.043 -0.063,0.066 l 0.743,0.743 c 2.355,-2.125 5.375,-3.254 8.836,-3.25 3.382,0 7.187,1.078 11.203,3.355 l 145.152,82.473 0.93,-0.93 -0.942,-0.535 -145.14,-82.469 c -3.66,-2.074 -7.141,-3.156 -10.285,-3.336 -0.309,-0.015 -0.614,-0.023 -0.914,-0.023"
         id="path1118" /></clipPath><linearGradient
       x1="0"
       y1="0"
       x2="1"
       y2="0"
       gradientUnits="userSpaceOnUse"
       gradientTransform="matrix(-227.583,-227.583,227.583,-227.583,348.27,277.039)"
       spreadMethod="pad"
       id="linearGradient1126"><stop
         style="stop-opacity:1;stop-color:#cc2e36"
         offset="0"
         id="stop1122" /><stop
         style="stop-opacity:1;stop-color:#9c0e4e"
         offset="1"
         id="stop1124" /></linearGradient><clipPath
       clipPathUnits="userSpaceOnUse"
       id="clipPath1138"><path
         d="m 204.355,175.359 v 0 c -2.91,3.079 -4.628,7.856 -4.628,14.051 v 1.457 c 0,-6.191 1.718,-10.972 4.628,-14.051 l 0.743,-0.711 -0.743,-0.746"
         id="path1136" /></clipPath><linearGradient
       x1="0"
       y1="0"
       x2="1"
       y2="0"
       gradientUnits="userSpaceOnUse"
       gradientTransform="matrix(-167.825,-167.825,167.825,-167.825,317.998,412.903)"
       spreadMethod="pad"
       id="linearGradient1152"><stop
         style="stop-opacity:1;stop-color:#008de0"
         offset="0"
         id="stop1140" /><stop
         style="stop-opacity:1;stop-color:#008de0"
         offset="0.00657445"
         id="stop1142" /><stop
         style="stop-opacity:1;stop-color:#00a7e0"
         offset="0.2601"
         id="stop1144" /><stop
         style="stop-opacity:1;stop-color:#00b8e0"
         offset="0.5122"
         id="stop1146" /><stop
         style="stop-opacity:1;stop-color:#00c4e0"
         offset="0.7604"
         id="stop1148" /><stop
         style="stop-opacity:1;stop-color:#00c7e0"
         offset="1"
         id="stop1150" /></linearGradient><clipPath
       clipPathUnits="userSpaceOnUse"
       id="clipPath1162"><path
         d="m 204.355,175.359 v 0 0 l 0.743,0.746 v -0.003 l -0.743,-0.743"
         id="path1160" /></clipPath><linearGradient
       x1="0"
       y1="0"
       x2="1"
       y2="0"
       gradientUnits="userSpaceOnUse"
       gradientTransform="matrix(-227.583,-227.583,227.583,-227.583,348.27,277.039)"
       spreadMethod="pad"
       id="linearGradient1168"><stop
         style="stop-opacity:1;stop-color:#e0333c"
         offset="0"
         id="stop1164" /><stop
         style="stop-opacity:1;stop-color:#ab0f56"
         offset="1"
         id="stop1166" /></linearGradient><clipPath
       clipPathUnits="userSpaceOnUse"
       id="clipPath1180"><path
         d="m 371.219,257.75 v 0 l -0.93,0.93 49.859,28.332 c 6.332,3.597 9.887,8.238 10.481,12.965 0,-1.735 -0.387,-3.469 -1.156,-5.157 -1.551,-3.402 -4.66,-6.617 -9.325,-9.269 L 371.219,257.75"
         id="path1178" /></clipPath><linearGradient
       x1="0"
       y1="0"
       x2="1"
       y2="0"
       gradientUnits="userSpaceOnUse"
       gradientTransform="matrix(-241.97,0,0,-241.97,438.344,299.986)"
       spreadMethod="pad"
       id="linearGradient1190"><stop
         style="stop-opacity:1;stop-color:#e0c500"
         offset="0"
         id="stop1182" /><stop
         style="stop-opacity:1;stop-color:#e0a600"
         offset="0.4087"
         id="stop1184" /><stop
         style="stop-opacity:1;stop-color:#e09100"
         offset="0.7754"
         id="stop1186" /><stop
         style="stop-opacity:1;stop-color:#e08900"
         offset="1"
         id="stop1188" /></linearGradient><clipPath
       clipPathUnits="userSpaceOnUse"
       id="clipPath1202"><path
         d="m 430.629,299.996 c -0.594,4.738 -4.149,9.375 -10.481,12.973 l -49.863,28.328 0.93,0.93 h 0.004 l 48.929,-27.801 c 6.981,-3.969 10.477,-9.199 10.481,-14.43"
         id="path1200" /></clipPath><linearGradient
       x1="0"
       y1="0"
       x2="1"
       y2="0"
       gradientUnits="userSpaceOnUse"
       gradientTransform="matrix(-241.97,0,0,-241.97,438.344,299.986)"
       spreadMethod="pad"
       id="linearGradient1212"><stop
         style="stop-opacity:1;stop-color:#ffe840"
         offset="0"
         id="stop1204" /><stop
         style="stop-opacity:1;stop-color:#ffce40"
         offset="0.4087"
         id="stop1206" /><stop
         style="stop-opacity:1;stop-color:#ffbc40"
         offset="0.7754"
         id="stop1208" /><stop
         style="stop-opacity:1;stop-color:#ffb540"
         offset="1"
         id="stop1210" /></linearGradient><clipPath
       clipPathUnits="userSpaceOnUse"
       id="clipPath1224"><path
         d="m 199.727,409.105 v 1.461 c 0,0.02 0,0.036 0,0.055 0,0.004 0,0.008 0,0.012 0,0.551 0.015,1.09 0.043,1.613 0,0.008 0,0.016 0,0.024 0,0.007 0,0.015 0.003,0.023 0,0.016 0,0.031 0,0.047 0,0.004 0,0.008 0,0.012 0.301,5.332 1.957,9.492 4.582,12.269 v 0 0 l 0.731,-0.734 c -3.356,-3.028 -5.359,-8.078 -5.359,-14.782 m 5.339,16.215 0.028,0.028 c -0.008,-0.012 -0.02,-0.02 -0.028,-0.028"
         id="path1222" /></clipPath><linearGradient
       x1="0"
       y1="0"
       x2="1"
       y2="0"
       gradientUnits="userSpaceOnUse"
       gradientTransform="matrix(-167.825,-167.825,167.825,-167.825,317.998,412.903)"
       spreadMethod="pad"
       id="linearGradient1238"><stop
         style="stop-opacity:1;stop-color:#40b8ff"
         offset="0"
         id="stop1226" /><stop
         style="stop-opacity:1;stop-color:#40b9ff"
         offset="0.00657445"
         id="stop1228" /><stop
         style="stop-opacity:1;stop-color:#40ceff"
         offset="0.2601"
         id="stop1230" /><stop
         style="stop-opacity:1;stop-color:#40ddff"
         offset="0.5122"
         id="stop1232" /><stop
         style="stop-opacity:1;stop-color:#40e7ff"
         offset="0.7604"
         id="stop1234" /><stop
         style="stop-opacity:1;stop-color:#40eaff"
         offset="1"
         id="stop1236" /></linearGradient><clipPath
       clipPathUnits="userSpaceOnUse"
       id="clipPath1250"><path
         d="M 370.285,341.297 225.137,423.77 c -4.024,2.281 -7.832,3.363 -11.223,3.363 -3.457,0 -6.473,-1.125 -8.828,-3.246 l -0.731,0.734 v 0 c 0.231,0.242 0.465,0.477 0.711,0.699 0.008,0.008 0.02,0.016 0.028,0.024 2.336,2.105 5.32,3.23 8.746,3.25 v 0 c 0.008,0 0.019,0 0.031,0 0.016,0 0.027,0 0.043,0 3.391,0 7.199,-1.082 11.223,-3.364 l 146.082,-83 -0.004,-0.003 -0.93,-0.93"
         id="path1248" /></clipPath><linearGradient
       x1="0"
       y1="0"
       x2="1"
       y2="0"
       gradientUnits="userSpaceOnUse"
       gradientTransform="matrix(101.625,-101.625,101.625,101.625,172.973,498.238)"
       spreadMethod="pad"
       id="linearGradient1262"><stop
         style="stop-opacity:1;stop-color:#65b895"
         offset="0"
         id="stop1252" /><stop
         style="stop-opacity:1;stop-color:#62bd95"
         offset="0.0685"
         id="stop1254" /><stop
         style="stop-opacity:1;stop-color:#50db97"
         offset="0.4762"
         id="stop1256" /><stop
         style="stop-opacity:1;stop-color:#44ed98"
         offset="0.8009"
         id="stop1258" /><stop
         style="stop-opacity:1;stop-color:#40f498"
         offset="1"
         id="stop1260" /></linearGradient></defs><g
     id="g998"
     transform="matrix(1.3333333,0,0,-1.3333333,-13.333333,66.666665)"><g
       id="g1000"
       transform="scale(0.1)"><path
         d="m 100,150 v 0 c 0,-27.5 22.5,-50 50,-50 h 1250 c 27.5,0 50,22.5 50,50 v 300 0 0 c 0,27.5 -22.5,50 -50,50 H 150 c -27.5,0 -50,-22.5 -50,-50 v -300 0"
         style="fill:#ffffff;fill-opacity:1;fill-rule:nonzero;stroke:none"
         id="path1002" /><path
         d="M 1400,100 H 150 c -27.5,0 -50,22.5 -50,50 v 300 c 0,27.5 22.5,50 50,50 h 1250 c 27.5,0 50,-22.5 50,-50 V 150 c 0,-27.5 -22.5,-50 -50,-50"
         style="fill:#000000;fill-opacity:1;fill-rule:nonzero;stroke:none"
         id="path1004" /><path
         d="M 1400,500 H 150 c -27.5,0 -50,-22.5 -50,-50 V 150 c 0,-27.5 22.5,-50 50,-50 h 1250 c 27.5,0 50,22.5 50,50 v 300 c 0,27.5 -22.5,50 -50,50 m 0,-8 c 23.16,0 42,-18.844 42,-42 V 150 c 0,-23.16 -18.84,-42.004 -42,-42.004 H 150 c -23.156,0 -42,18.844 -42,42.004 v 300 c 0,23.156 18.844,42 42,42 h 1250"
         style="fill:#a6a6a6;fill-opacity:1;fill-rule:nonzero;stroke:none"
         id="path1006" /><path
         d="m 1169.36,200 h 18.66 v 125.012 h -18.66 z m 168.07,79.98 -21.39,-54.199 h -0.64 l -22.2,54.199 h -20.1 l 33.29,-75.753 -18.98,-42.137 h 19.47 l 51.3,117.89 z m -105.82,-65.781 c -6.12,0 -14.64,3.055 -14.64,10.617 0,9.649 10.62,13.348 19.78,13.348 8.21,0 12.06,-1.769 17.05,-4.184 -1.45,-11.578 -11.42,-19.781 -22.19,-19.781 z m 2.25,68.516 c -13.51,0 -27.5,-5.953 -33.29,-19.141 l 16.56,-6.914 c 3.54,6.914 10.13,9.168 17.05,9.168 9.65,0 19.46,-5.793 19.62,-16.086 v -1.285 c -3.38,1.93 -10.61,4.824 -19.46,4.824 -17.85,0 -36.03,-9.808 -36.03,-28.144 0,-16.727 14.64,-27.504 31.04,-27.504 12.55,0 19.46,5.629 23.81,12.222 h 0.64 v -9.648 h 18.01 v 47.93 c 0,22.191 -16.56,34.578 -37.95,34.578 z M 1118.54,264.762 H 1092 v 42.851 h 26.54 c 13.95,0 21.87,-11.55 21.87,-21.425 0,-9.688 -7.92,-21.426 -21.87,-21.426 z m -0.48,60.25 h -44.71 V 200 H 1092 v 47.363 h 26.06 c 20.68,0 41.01,14.973 41.01,38.825 0,23.851 -20.33,38.824 -41.01,38.824 z M 874.25,214.176 c -12.891,0 -23.684,10.793 -23.684,25.617 0,14.98 10.793,25.937 23.684,25.937 12.727,0 22.715,-10.957 22.715,-25.937 0,-14.824 -9.988,-25.617 -22.715,-25.617 z m 21.426,58.804 h -0.645 c -4.187,4.993 -12.246,9.504 -22.394,9.504 -21.266,0 -40.758,-18.687 -40.758,-42.691 0,-23.844 19.492,-42.371 40.758,-42.371 10.148,0 18.207,4.512 22.394,9.664 h 0.645 v -6.121 c 0,-16.274 -8.699,-24.973 -22.715,-24.973 -11.438,0 -18.527,8.219 -21.43,15.145 l -16.269,-6.766 c 4.672,-11.277 17.078,-25.133 37.699,-25.133 21.91,0 40.437,12.891 40.437,44.305 v 76.363 H 895.676 Z M 926.285,200 h 18.688 v 125.016 h -18.688 z m 46.238,41.242 c -0.484,16.434 12.727,24.809 22.231,24.809 7.416,0 13.696,-3.703 15.786,-9.024 z m 57.997,14.176 c -3.54,9.508 -14.34,27.066 -36.411,27.066 -21.91,0 -40.113,-17.238 -40.113,-42.531 0,-23.844 18.043,-42.531 42.207,-42.531 19.497,0 30.777,11.922 35.447,18.848 l -14.5,9.668 c -4.83,-7.09 -11.44,-11.762 -20.947,-11.762 -9.504,0 -16.269,4.351 -20.621,12.887 l 56.868,23.523 z m -453.082,14.016 v -18.043 h 43.175 c -1.289,-10.149 -4.672,-17.559 -9.828,-22.715 -6.281,-6.285 -16.109,-13.211 -33.347,-13.211 -26.583,0 -47.364,21.426 -47.364,48.008 0,26.582 20.781,48.011 47.364,48.011 14.339,0 24.808,-5.64 32.542,-12.89 l 12.727,12.726 c -10.793,10.313 -25.133,18.207 -45.269,18.207 -36.411,0 -67.02,-29.644 -67.02,-66.054 0,-36.41 30.609,-66.051 67.02,-66.051 19.656,0 34.476,6.441 46.074,18.527 11.922,11.922 15.629,28.676 15.629,42.207 0,4.192 -0.321,8.055 -0.969,11.278 z m 110.789,-55.258 c -12.891,0 -24.008,10.633 -24.008,25.777 0,15.305 11.117,25.777 24.008,25.777 12.886,0 24.003,-10.472 24.003,-25.777 0,-15.144 -11.117,-25.777 -24.003,-25.777 z m 0,68.308 c -23.524,0 -42.696,-17.882 -42.696,-42.531 0,-24.488 19.172,-42.531 42.696,-42.531 23.519,0 42.691,18.043 42.691,42.531 0,24.649 -19.172,42.531 -42.691,42.531 z m 93.132,-68.308 c -12.886,0 -24.004,10.633 -24.004,25.777 0,15.305 11.118,25.777 24.004,25.777 12.887,0 24.004,-10.472 24.004,-25.777 0,-15.144 -11.117,-25.777 -24.004,-25.777 z m 0,68.308 c -23.523,0 -42.691,-17.882 -42.691,-42.531 0,-24.488 19.168,-42.531 42.691,-42.531 23.52,0 42.692,18.043 42.692,42.531 0,24.649 -19.172,42.531 -42.692,42.531"
         style="fill:#ffffff;fill-opacity:1;fill-rule:nonzero;stroke:none"
         id="path1008" /><g
         id="g1010"><g
           id="g1012"
           clip-path="url(#clipPath1016)"><path
             d="m 205.098,176.105 -0.743,0.711 c -2.91,3.079 -4.628,7.86 -4.628,14.051 v -1.457 0 221.16 c 0,0.02 0,0.035 0,0.051 0,-0.019 0,-0.035 0,-0.055 v -1.461 c 0,6.704 2.003,11.754 5.359,14.782 L 328.984,299.992 205.098,176.105 m -5.371,234.528 c 0,0.551 0.015,1.086 0.043,1.613 -0.028,-0.523 -0.043,-1.062 -0.043,-1.613 m 0.043,1.637 c 0,0.007 0,0.015 0.003,0.023 -0.003,-0.008 -0.003,-0.016 -0.003,-0.023 m 0.003,0.07 c 0,0.004 0,0.008 0,0.012 0,-0.004 0,-0.008 0,-0.012"
             style="fill:url(#linearGradient1030);fill-opacity:1;fill-rule:nonzero;stroke:none"
             id="path1032" /></g></g><g
         id="g1034"><g
           id="g1036"
           clip-path="url(#clipPath1040)"><path
             d="m 370.277,257.215 v 0 l 0.942,0.535 48.929,27.801 c 4.665,2.652 7.774,5.867 9.325,9.269 -1.547,-3.402 -4.657,-6.621 -9.325,-9.273 l -48.929,-27.801 -0.942,-0.531 m 0.012,1.465 -41.305,41.312 41.301,41.305 49.863,-28.328 c 6.332,-3.598 9.887,-8.235 10.481,-12.973 0,-0.004 0,-0.012 0,-0.019 -0.594,-4.727 -4.149,-9.368 -10.481,-12.965 L 370.289,258.68"
             style="fill:url(#linearGradient1050);fill-opacity:1;fill-rule:nonzero;stroke:none"
             id="path1052" /></g></g><g
         id="g1054"><g
           id="g1056"
           clip-path="url(#clipPath1060)"><path
             d="m 213.93,171.387 c -3.461,0 -6.481,1.125 -8.836,3.25 l 0.004,0.004 c 2.355,-2.125 5.379,-3.254 8.84,-3.254 0.3,0 0.605,0.008 0.914,0.023 -0.313,-0.015 -0.622,-0.023 -0.922,-0.023 m 0.004,1.465 c -3.461,-0.004 -6.481,1.125 -8.836,3.25 v 0 0.003 l 123.886,123.887 41.305,-41.312 v 0 L 225.137,176.207 c -4.016,-2.277 -7.821,-3.355 -11.203,-3.355 m -8.871,1.812 c -0.219,0.199 -0.434,0.41 -0.645,0.629 l 0.645,-0.629"
             style="fill:url(#linearGradient1066);fill-opacity:1;fill-rule:nonzero;stroke:none"
             id="path1068" /></g></g><g
         id="g1070"><g
           id="g1072"
           clip-path="url(#clipPath1076)"><path
             d="m 328.984,299.992 v 0 L 205.086,423.887 c 2.355,2.121 5.371,3.246 8.828,3.246 3.391,0 7.199,-1.082 11.223,-3.363 l 145.148,-82.473 -41.301,-41.305 m 42.235,42.238 -146.082,83 c -4.024,2.282 -7.832,3.364 -11.223,3.364 -0.016,0 -0.027,0 -0.043,0 0.02,0 0.035,0 0.059,0 3.383,0 7.187,-1.078 11.207,-3.36 L 371.219,342.23 M 213.84,428.594 v 0 0"
             style="fill:url(#linearGradient1088);fill-opacity:1;fill-rule:nonzero;stroke:none"
             id="path1090" /></g></g><path
         d="m 214.852,171.41 c 3.144,0.18 6.625,1.262 10.285,3.336 l 145.14,82.469 v 0 l -145.14,-82.469 c -3.657,-2.078 -7.141,-3.156 -10.285,-3.336 m -9.758,3.227 -0.031,0.027 c 0.011,-0.008 0.023,-0.019 0.031,-0.027 v 0 m -0.676,0.656 -0.063,0.062 v 0.004 c 0.024,-0.023 0.043,-0.046 0.063,-0.066"
         style="fill:#000000;fill-opacity:1;fill-rule:nonzero;stroke:none"
         id="path1092" /><g
         id="g1094"><g
           id="g1096"
           clip-path="url(#clipPath1100)"><path
             d="m 370.277,257.215 v 0 l 0.942,0.535 -0.942,-0.535"
             style="fill:url(#linearGradient1110);fill-opacity:1;fill-rule:nonzero;stroke:none"
             id="path1112" /></g></g><g
         id="g1114"><g
           id="g1116"
           clip-path="url(#clipPath1120)"><path
             d="m 213.938,171.387 c -3.461,0 -6.485,1.129 -8.84,3.254 l -0.004,-0.004 c -0.008,0.008 -0.02,0.019 -0.031,0.027 l -0.645,0.629 c -0.02,0.02 -0.039,0.043 -0.063,0.066 l 0.743,0.743 c 2.355,-2.125 5.375,-3.254 8.836,-3.25 3.382,0 7.187,1.078 11.203,3.355 l 145.152,82.473 0.93,-0.93 -0.942,-0.535 -145.14,-82.469 c -3.66,-2.074 -7.141,-3.156 -10.285,-3.336 -0.309,-0.015 -0.614,-0.023 -0.914,-0.023"
             style="fill:url(#linearGradient1126);fill-opacity:1;fill-rule:nonzero;stroke:none"
             id="path1128" /></g></g><path
         d="m 204.355,175.355 c -2.91,3.079 -4.628,7.86 -4.628,14.051 v 0.004 c 0,-6.195 1.718,-10.972 4.628,-14.051 v 0 0 -0.004"
         style="fill:#000000;fill-opacity:1;fill-rule:nonzero;stroke:none"
         id="path1130" /><g
         id="g1132"><g
           id="g1134"
           clip-path="url(#clipPath1138)"><path
             d="m 204.355,175.359 v 0 c -2.91,3.079 -4.628,7.856 -4.628,14.051 v 1.457 c 0,-6.191 1.718,-10.972 4.628,-14.051 l 0.743,-0.711 -0.743,-0.746"
             style="fill:url(#linearGradient1152);fill-opacity:1;fill-rule:nonzero;stroke:none"
             id="path1154" /></g></g><g
         id="g1156"><g
           id="g1158"
           clip-path="url(#clipPath1162)"><path
             d="m 204.355,175.359 v 0 0 l 0.743,0.746 v -0.003 l -0.743,-0.743"
             style="fill:url(#linearGradient1168);fill-opacity:1;fill-rule:nonzero;stroke:none"
             id="path1170" /></g></g><path
         d="m 429.473,294.82 c 0.769,1.688 1.156,3.422 1.156,5.157 0,0.003 0,0.007 0,0.007 0,-1.738 -0.387,-3.472 -1.156,-5.164"
         style="fill:#000000;fill-opacity:1;fill-rule:nonzero;stroke:none"
         id="path1172" /><g
         id="g1174"><g
           id="g1176"
           clip-path="url(#clipPath1180)"><path
             d="m 371.219,257.75 v 0 l -0.93,0.93 49.859,28.332 c 6.332,3.597 9.887,8.238 10.481,12.965 0,-1.735 -0.387,-3.469 -1.156,-5.157 -1.551,-3.402 -4.66,-6.617 -9.325,-9.269 L 371.219,257.75"
             style="fill:url(#linearGradient1190);fill-opacity:1;fill-rule:nonzero;stroke:none"
             id="path1192" /></g></g><path
         d="m 430.629,299.992 v 0.004 c -0.004,5.231 -3.5,10.461 -10.481,14.43 l -48.929,27.801 h -0.004 l 0.004,0.003 48.929,-27.8 c 6.989,-3.969 10.489,-9.207 10.481,-14.438"
         style="fill:#404040;fill-opacity:1;fill-rule:nonzero;stroke:none"
         id="path1194" /><g
         id="g1196"><g
           id="g1198"
           clip-path="url(#clipPath1202)"><path
             d="m 430.629,299.996 c -0.594,4.738 -4.149,9.375 -10.481,12.973 l -49.863,28.328 0.93,0.93 h 0.004 l 48.929,-27.801 c 6.981,-3.969 10.477,-9.199 10.481,-14.43"
             style="fill:url(#linearGradient1212);fill-opacity:1;fill-rule:nonzero;stroke:none"
             id="path1214" /></g></g><path
         d="m 199.727,410.621 c 0,0.004 0,0.008 0,0.012 0,-0.004 0,-0.008 0,-0.012 m 0.043,1.625 c 0,0.008 0,0.016 0,0.024 0,-0.008 0,-0.016 0,-0.024 m 0.003,0.047 c 0,0.016 0,0.031 0,0.047 0,-0.016 0,-0.031 0,-0.047 m 0,0.059 c 0.579,10.273 6.165,16.207 14.067,16.242 -3.426,-0.02 -6.41,-1.145 -8.746,-3.25 v 0.004 l -0.028,-0.028 c -0.246,-0.222 -0.48,-0.457 -0.711,-0.699 v 0 c -2.625,-2.777 -4.281,-6.937 -4.582,-12.269"
         style="fill:#404040;fill-opacity:1;fill-rule:nonzero;stroke:none"
         id="path1216" /><g
         id="g1218"><g
           id="g1220"
           clip-path="url(#clipPath1224)"><path
             d="m 199.727,409.105 v 1.461 c 0,0.02 0,0.036 0,0.055 0,0.004 0,0.008 0,0.012 0,0.551 0.015,1.09 0.043,1.613 0,0.008 0,0.016 0,0.024 0,0.007 0,0.015 0.003,0.023 0,0.016 0,0.031 0,0.047 0,0.004 0,0.008 0,0.012 0.301,5.332 1.957,9.492 4.582,12.269 v 0 0 l 0.731,-0.734 c -3.356,-3.028 -5.359,-8.078 -5.359,-14.782 m 5.339,16.215 0.028,0.028 c -0.008,-0.012 -0.02,-0.02 -0.028,-0.028"
             style="fill:url(#linearGradient1238);fill-opacity:1;fill-rule:nonzero;stroke:none"
             id="path1240" /></g></g><path
         d="m 213.84,428.594 c 0.008,0 0.019,0 0.031,0 -0.012,0 -0.023,0 -0.031,0"
         style="fill:#404040;fill-opacity:1;fill-rule:nonzero;stroke:none"
         id="path1242" /><g
         id="g1244"><g
           id="g1246"
           clip-path="url(#clipPath1250)"><path
             d="M 370.285,341.297 225.137,423.77 c -4.024,2.281 -7.832,3.363 -11.223,3.363 -3.457,0 -6.473,-1.125 -8.828,-3.246 l -0.731,0.734 v 0 c 0.231,0.242 0.465,0.477 0.711,0.699 0.008,0.008 0.02,0.016 0.028,0.024 2.336,2.105 5.32,3.23 8.746,3.25 v 0 c 0.008,0 0.019,0 0.031,0 0.016,0 0.027,0 0.043,0 3.391,0 7.199,-1.082 11.223,-3.364 l 146.082,-83 -0.004,-0.003 -0.93,-0.93"
             style="fill:url(#linearGradient1262);fill-opacity:1;fill-rule:nonzero;stroke:none"
             id="path1264" /></g></g><path
         d="m 523.883,382.777 c 4.441,-4.496 9.871,-6.742 16.297,-6.742 6.425,0 11.867,2.246 16.3,6.742 4.442,4.496 6.668,10.243 6.668,17.223 0,6.98 -2.226,12.727 -6.668,17.223 -4.433,4.496 -9.875,6.742 -16.3,6.742 -6.426,0 -11.856,-2.246 -16.297,-6.742 -4.434,-4.496 -6.66,-10.243 -6.66,-17.223 0,-6.98 2.226,-12.727 6.66,-17.223 z m 38.301,-5.023 c -5.899,-6.066 -13.235,-9.094 -22.004,-9.094 -8.77,0 -16.102,3.028 -21.992,9.094 -5.899,6.059 -8.836,13.476 -8.836,22.246 0,8.77 2.937,16.188 8.836,22.246 5.89,6.067 13.222,9.098 21.992,9.098 8.722,0 16.035,-3.047 21.965,-9.137 5.918,-6.09 8.875,-13.492 8.875,-22.207 0,-8.77 -2.95,-16.187 -8.836,-22.246"
         style="fill:#ffffff;fill-opacity:1;fill-rule:nonzero;stroke:none"
         id="path1266" /><path
         d="m 523.883,382.777 -0.711,-0.703 c 4.605,-4.676 10.351,-7.051 17.008,-7.039 6.66,-0.012 12.414,2.363 17.011,7.039 4.633,4.68 6.969,10.735 6.957,17.926 0.012,7.191 -2.324,13.246 -6.957,17.926 v 0 c -4.597,4.676 -10.351,7.051 -17.011,7.039 -6.657,0.012 -12.403,-2.363 -17.008,-7.039 v 0 c -4.625,-4.68 -6.961,-10.735 -6.949,-17.926 -0.012,-7.191 2.324,-13.246 6.949,-17.926 l 0.711,0.703 0.711,0.703 c -4.242,4.317 -6.364,9.747 -6.371,16.52 0.007,6.773 2.129,12.203 6.371,16.52 v 0 c 4.277,4.316 9.394,6.433 15.586,6.445 6.195,-0.012 11.316,-2.129 15.586,-6.445 h 0.004 c 4.25,-4.317 6.371,-9.747 6.378,-16.52 -0.007,-6.773 -2.128,-12.203 -6.378,-16.52 -4.274,-4.316 -9.395,-6.433 -15.59,-6.445 -6.192,0.012 -11.309,2.129 -15.586,6.445 z m 38.301,-5.023 -0.719,0.695 c -5.731,-5.875 -12.742,-8.777 -21.285,-8.789 -8.539,0.012 -15.551,2.914 -21.274,8.789 v 0 c -5.722,5.895 -8.547,13.004 -8.554,21.551 0.007,8.547 2.832,15.656 8.554,21.551 v 0 c 5.723,5.875 12.735,8.781 21.274,8.793 8.488,-0.012 15.484,-2.93 21.246,-8.836 5.746,-5.922 8.586,-13.02 8.594,-21.508 -0.008,-8.547 -2.84,-15.656 -8.555,-21.551 l 0.719,-0.695 0.714,-0.695 c 6.067,6.226 9.133,13.949 9.122,22.941 0.011,8.941 -3.067,16.648 -9.161,22.902 -6.089,6.278 -13.726,9.453 -22.679,9.442 -8.996,0.011 -16.653,-3.149 -22.707,-9.403 v 0.004 c -6.078,-6.23 -9.133,-13.953 -9.121,-22.945 -0.012,-8.992 3.043,-16.715 9.121,-22.945 v 0.004 c 6.054,-6.254 13.711,-9.407 22.707,-9.399 9,-0.008 16.656,3.145 22.718,9.399 l -0.714,0.695"
         style="fill:#ffffff;fill-opacity:1;fill-rule:nonzero;stroke:none"
         id="path1268" /><path
         d="m 581.84,370 v 60 h 9.387 l 29.16,-46.676 h 0.332 l -0.332,11.563 V 430 h 7.715 v -60 h -8.047 l -30.508,48.938 h -0.332 l 0.332,-11.567 V 370 h -7.707"
         style="fill:#ffffff;fill-opacity:1;fill-rule:nonzero;stroke:none"
         id="path1270" /><path
         d="m 581.84,370 h 1 v 59 h 7.832 l 29.16,-46.676 h 0.887 1.027 l -0.359,12.578 V 429 h 5.715 v -58 h -6.493 l -30.507,48.938 h -0.887 -1.031 l 0.363,-12.583 V 371 h -6.707 v -1 h 1 -1 v -1 h 7.707 1 v 38.387 l -0.332,11.578 -1,-0.027 v -1 h 0.332 v 1 L 588.695,418.406 619.5,369 h 8.602 1 v 62 h -8.715 -1 v -36.125 l 0.332,-11.578 1,0.027 v 1 h -0.332 v -1 l 0.847,0.531 L 591.781,431 h -9.941 -1 v -62 h 1 v 1"
         style="fill:#ffffff;fill-opacity:1;fill-rule:nonzero;stroke:none"
         id="path1272" /><path
         d="m 662.281,370 h -7.715 v 52.629 H 637.809 V 430 h 41.23 v -7.371 H 662.281 V 370"
         style="fill:#ffffff;fill-opacity:1;fill-rule:nonzero;stroke:none"
         id="path1274" /><path
         d="m 662.281,370 v 1 h -6.715 v 52.629 H 638.809 V 429 h 39.23 v -5.371 H 661.281 V 370 h 1 v 1 -1 h 1 v 51.629 h 16.758 v 8.371 1 h -43.23 v -8.371 -1 h 16.757 V 369 h 8.715 1 v 1 h -1"
         style="fill:#ffffff;fill-opacity:1;fill-rule:nonzero;stroke:none"
         id="path1276" /><path
         d="m 696.469,377.371 h 10.644 c 6.926,0 12.414,1.984 16.465,5.953 4.055,3.965 6.074,9.528 6.074,16.676 0,7.094 -2.019,12.637 -6.074,16.637 -4.051,3.988 -9.539,5.992 -16.465,5.992 H 696.469 Z M 688.766,370 v 60 h 18.347 c 9.219,0 16.594,-2.777 22.129,-8.34 5.528,-5.555 8.293,-12.773 8.293,-21.66 0,-8.883 -2.765,-16.105 -8.293,-21.66 -5.535,-5.563 -12.91,-8.34 -22.129,-8.34 h -18.347"
         style="fill:#ffffff;fill-opacity:1;fill-rule:nonzero;stroke:none"
         id="path1278" /><path
         d="m 696.469,377.371 v -1 h 10.644 c 7.11,-0.008 12.907,2.059 17.164,6.238 4.282,4.184 6.383,10.063 6.375,17.391 0.008,7.273 -2.093,13.137 -6.371,17.348 v 0 c -4.258,4.203 -10.058,6.289 -17.168,6.281 h -10.644 -1 v -47.258 h 1 v 1 h 1 v 44.258 h 9.644 c 6.739,-0.012 11.918,-1.93 15.766,-5.707 v 0.004 c 3.828,-3.789 5.766,-9.012 5.773,-15.926 -0.007,-6.969 -1.949,-12.211 -5.773,-15.961 -3.844,-3.758 -9.024,-5.656 -15.766,-5.668 h -10.644 v -1 h 1 z M 688.766,370 h 1 v 59 h 17.347 c 9.028,-0.008 16.082,-2.691 21.422,-8.047 5.328,-5.367 7.988,-12.269 8,-20.953 -0.012,-8.68 -2.672,-15.586 -8,-20.953 -5.34,-5.356 -12.394,-8.039 -21.422,-8.047 h -18.347 v -1 h 1 -1 v -1 h 18.347 c 9.414,-0.008 17.106,2.863 22.84,8.633 5.727,5.746 8.59,13.285 8.582,22.367 0.008,9.09 -2.855,16.621 -8.582,22.363 -5.734,5.774 -13.426,8.645 -22.84,8.637 h -19.347 v -62 h 1 v 1"
         style="fill:#ffffff;fill-opacity:1;fill-rule:nonzero;stroke:none"
         id="path1280" /><path
         d="m 783.367,422.629 h -27.328 v -19.024 h 24.645 v -7.21 h -24.645 v -19.024 h 27.328 V 370 h -35.031 v 60 h 35.031 v -7.371"
         style="fill:#ffffff;fill-opacity:1;fill-rule:nonzero;stroke:none"
         id="path1282" /><path
         d="m 783.367,422.629 v 1 h -28.328 v -21.024 h 24.645 v -5.21 h -24.645 v -21.024 h 27.328 V 371 h -33.031 v 58 h 33.031 v -6.371 h 1 v 1 -1 h 1 v 7.371 1 h -37.031 v -62 h 37.031 v 8.371 1 h -27.328 v 17.024 h 24.645 v 8.21 1 h -24.645 v 17.024 h 27.328 v 1 h -1"
         style="fill:#ffffff;fill-opacity:1;fill-rule:nonzero;stroke:none"
         id="path1284" /><path
         d="m 839.855,430 v -0.332 l -22.296,-25.73 23.796,-33.606 V 370 h -9.46 l -19.532,27.988 -9.218,-10.644 V 370 h -7.707 v 60 h 7.707 v -30.918 h 0.339 L 829.883,430 h 9.972"
         style="fill:#ffffff;fill-opacity:1;fill-rule:nonzero;stroke:none"
         id="path1286" /><path
         d="m 839.855,430 h -1.003 v -0.332 h 1.003 l -0.757,0.656 -22.809,-26.328 24.066,-33.98 V 370 h 1 v 1 h -8.937 l -19.969,28.613 -10.304,-11.894 V 371 h -5.707 v 58 h 5.707 v -30.918 h 1.339 0.461 L 830.344,429 h 9.511 v 1 h -1.003 1.003 v 1 h -9.972 -0.461 l -26.695,-31.27 0.757,-0.648 v 1 h -0.339 v -1 h 1 V 431 h -8.707 -1 v -62 h 8.707 1 v 17.973 l 8.132,9.39 L 831.371,369 h 9.984 1 v 1.332 0.316 l -23.527,33.227 22.027,25.422 v 0.703 1 h -1 v -1"
         style="fill:#ffffff;fill-opacity:1;fill-rule:nonzero;stroke:none"
         id="path1288" /><path
         d="m 869.348,370 v 60 h 7.703 v -25.723 h 30 V 430 h 7.715 v -60 h -7.715 v 27.07 h -30 V 370 h -7.703"
         style="fill:#ffffff;fill-opacity:1;fill-rule:nonzero;stroke:none"
         id="path1290" /><path
         d="m 869.348,370 h 1 v 59 h 5.703 v -25.723 h 32 V 429 h 5.715 v -58 h -5.715 v 27.07 h -32 V 371 h -6.703 v -1 h 1 -1 v -1 h 7.703 1 v 27.07 h 28 V 369 h 8.715 1 v 62 h -8.715 -1 v -25.723 h -28 V 431 h -8.703 -1 v -62 h 1 v 1"
         style="fill:#ffffff;fill-opacity:1;fill-rule:nonzero;stroke:none"
         id="path1292" /><path
         d="m 963.547,422.629 h -27.324 v -19.024 h 24.636 v -7.21 h -24.636 v -19.024 h 27.324 V 370 h -35.031 v 60 h 35.031 v -7.371"
         style="fill:#ffffff;fill-opacity:1;fill-rule:nonzero;stroke:none"
         id="path1294" /><path
         d="m 963.547,422.629 v 1 h -28.324 v -21.024 h 24.636 v -5.207 l -24.636,-0.003 v -21.024 h 27.324 V 371 h -33.031 v 58 h 33.031 v -6.371 h 1 v 1 -1 h 1 v 7.371 1 h -37.031 v -62 h 37.031 v 8.371 1 h -27.324 v 17.024 h 24.636 v 8.21 1 h -24.636 v 17.024 h 27.324 v 1 h -1"
         style="fill:#ffffff;fill-opacity:1;fill-rule:nonzero;stroke:none"
         id="path1296" /><path
         d="m 996.063,370 h -7.711 v 52.629 H 971.594 V 430 h 41.226 v -7.371 H 996.063 V 370"
         style="fill:#ffffff;fill-opacity:1;fill-rule:nonzero;stroke:none"
         id="path1298" /><path
         d="m 996.063,370 v 1 h -6.715 l 0.004,52.629 H 972.594 V 429 h 39.226 v -5.371 H 995.063 V 370 h 1 v 1 -1 h 1 v 51.629 h 16.757 v 8.371 1 h -43.226 v -8.371 -1 h 16.758 V 369 h 8.711 1 v 1 h -1"
         style="fill:#ffffff;fill-opacity:1;fill-rule:nonzero;stroke:none"
         id="path1300" /><path
         d="m 1052.58,382.777 c 4.44,-4.496 9.87,-6.742 16.3,-6.742 6.42,0 11.86,2.246 16.3,6.742 4.44,4.496 6.67,10.243 6.67,17.223 0,6.98 -2.23,12.727 -6.67,17.223 -4.44,4.496 -9.88,6.742 -16.3,6.742 -6.43,0 -11.86,-2.246 -16.3,-6.742 -4.44,-4.496 -6.66,-10.243 -6.66,-17.223 0,-6.98 2.22,-12.727 6.66,-17.223 z m 38.3,-5.023 c -5.9,-6.066 -13.23,-9.094 -22,-9.094 -8.77,0 -16.11,3.028 -22,9.094 -5.89,6.059 -8.83,13.476 -8.83,22.246 0,8.77 2.94,16.188 8.83,22.246 5.89,6.067 13.23,9.098 22,9.098 8.72,0 16.03,-3.047 21.96,-9.137 5.92,-6.09 8.88,-13.492 8.88,-22.207 0,-8.77 -2.95,-16.187 -8.84,-22.246"
         style="fill:#ffffff;fill-opacity:1;fill-rule:nonzero;stroke:none"
         id="path1302" /><path
         d="m 1052.58,382.777 -0.71,-0.703 c 4.6,-4.676 10.35,-7.051 17.01,-7.039 6.66,-0.012 12.41,2.363 17.01,7.039 4.63,4.68 6.97,10.735 6.96,17.926 0.01,7.191 -2.33,13.246 -6.96,17.926 v 0 c -4.6,4.676 -10.35,7.051 -17.01,7.039 -6.66,0.012 -12.41,-2.363 -17.01,-7.039 v 0 c -4.63,-4.68 -6.96,-10.735 -6.95,-17.926 -0.01,-7.191 2.32,-13.246 6.95,-17.926 l 0.71,0.703 0.71,0.703 c -4.24,4.317 -6.36,9.747 -6.37,16.52 0.01,6.773 2.13,12.203 6.37,16.52 v 0 c 4.28,4.316 9.39,6.433 15.59,6.445 6.19,-0.012 11.31,-2.129 15.58,-6.445 l 0.04,-0.032 -0.04,0.032 c 4.26,-4.317 6.38,-9.747 6.39,-16.52 -0.01,-6.773 -2.13,-12.203 -6.39,-16.52 -4.27,-4.316 -9.39,-6.433 -15.58,-6.445 -6.2,0.012 -11.31,2.129 -15.59,6.445 z m 38.3,-5.023 -0.72,0.695 c -5.73,-5.875 -12.74,-8.777 -21.28,-8.789 -8.54,0.012 -15.56,2.914 -21.28,8.789 v 0 c -5.72,5.895 -8.54,13.004 -8.55,21.551 0.01,8.547 2.83,15.656 8.55,21.551 v 0 c 5.72,5.875 12.74,8.781 21.28,8.793 8.49,-0.012 15.48,-2.93 21.24,-8.836 5.75,-5.922 8.59,-13.02 8.6,-21.508 -0.01,-8.547 -2.85,-15.656 -8.56,-21.551 l 0.72,-0.695 0.72,-0.695 c 6.06,6.226 9.13,13.949 9.12,22.941 0.01,8.941 -3.07,16.648 -9.16,22.902 -6.1,6.278 -13.73,9.453 -22.68,9.442 -9,0.011 -16.66,-3.149 -22.71,-9.403 v 0.004 c -6.08,-6.23 -9.13,-13.953 -9.12,-22.945 -0.01,-8.992 3.04,-16.715 9.12,-22.945 v 0.004 c 6.05,-6.254 13.71,-9.407 22.71,-9.399 9,-0.008 16.65,3.145 22.72,9.399 l -0.72,0.695"
         style="fill:#ffffff;fill-opacity:1;fill-rule:nonzero;stroke:none"
         id="path1304" /><path
         d="m 1118.23,401.68 h 12.91 c 3.24,0 5.84,1.086 7.8,3.261 1.95,2.184 2.93,4.579 2.93,7.207 0,2.625 -0.98,5.032 -2.93,7.207 -1.96,2.184 -4.56,3.274 -7.8,3.274 h -12.91 z m 0,-31.68 h -7.7 v 60 h 20.45 c 5.07,0 9.48,-1.687 13.19,-5.066 3.72,-3.379 5.58,-7.645 5.58,-12.786 0,-5.136 -1.86,-9.394 -5.58,-12.773 -3.71,-3.383 -8.12,-5.074 -13.19,-5.074 h -12.75 V 370"
         style="fill:#ffffff;fill-opacity:1;fill-rule:nonzero;stroke:none"
         id="path1306" /><path
         d="m 1118.23,401.68 v -1 h 12.91 c 3.46,-0.012 6.41,1.199 8.54,3.593 v 0 c 2.09,2.325 3.19,4.997 3.19,7.875 0,2.879 -1.1,5.555 -3.19,7.875 v 0 c -2.13,2.403 -5.08,3.618 -8.54,3.606 h -12.91 -1 V 400.68 h 1 v 1 h 1 v 19.949 h 11.91 c 3.03,-0.016 5.28,-0.977 7.05,-2.941 v 0 c 1.82,-2.036 2.67,-4.165 2.68,-6.54 -0.01,-2.375 -0.86,-4.496 -2.68,-6.539 v 0 c -1.77,-1.961 -4.02,-2.918 -7.05,-2.929 h -12.91 v -1 h 1 z m 0,-31.68 v 1 h -6.7 v 58 h 19.45 c 4.85,-0.008 8.97,-1.59 12.52,-4.809 v 0 c 3.52,-3.214 5.23,-7.14 5.25,-12.043 -0.02,-4.894 -1.73,-8.816 -5.25,-12.035 v 0 c -3.55,-3.222 -7.67,-4.804 -12.52,-4.812 h -12.75 -1 V 370 h 1 v 1 -1 h 1 v 23.301 h 11.75 c 5.3,-0.008 9.99,1.793 13.86,5.336 v 0 c 3.92,3.539 5.92,8.133 5.91,13.511 0.01,5.383 -1.99,9.981 -5.91,13.524 v 0 c -3.87,3.539 -8.56,5.336 -13.86,5.328 h -21.45 v -62 h 8.7 1 v 1 h -1"
         style="fill:#ffffff;fill-opacity:1;fill-rule:nonzero;stroke:none"
         id="path1308" /></g></g></svg>
