<svg viewBox="0 0 170 170" xmlns="http://www.w3.org/2000/svg" xml:space="preserve" style="fill-rule:evenodd;clip-rule:evenodd;stroke-linejoin:round;stroke-miterlimit:1.41421"><path d="M33.906 116.205c-3.917 0-7.339-2.339-8.517-5.82L4.684 49.145c-1.55-4.582 1.201-9.669 6.132-11.34l98.562-33.4a10.089 10.089 0 0 1 3.241-.539c3.917 0 7.34 2.339 8.518 5.821l20.705 61.239c1.55 4.581-1.201 9.669-6.132 11.341l-98.563 33.399a10.057 10.057 0 0 1-3.241.539Z" style="fill:#d44454;fill-rule:nonzero" transform="matrix(1 0 0 1 9.725 40.84)"/><path d="M112.619 7.116c2.465 0 4.683 1.376 5.438 3.612l20.705 61.239c.978 2.89-.856 6.123-4.097 7.222l-98.562 33.399a6.836 6.836 0 0 1-2.198.366c-2.465 0-4.683-1.376-5.439-3.611L7.762 48.104c-.978-2.89.857-6.124 4.097-7.221l98.562-33.4a6.834 6.834 0 0 1 2.198-.367m0-6.5c-1.452 0-2.894.239-4.284.71l-98.562 33.4c-6.628 2.246-10.292 9.181-8.168 15.46l20.705 61.238c1.625 4.803 6.285 8.029 11.597 8.029a13.31 13.31 0 0 0 4.285-.71l98.561-33.399c6.628-2.247 10.292-9.183 8.168-15.461L124.214 8.646c-1.624-4.803-6.284-8.03-11.595-8.03Z" style="fill:#d44454;fill-rule:nonzero" transform="matrix(1 0 0 1 9.725 40.84)"/><path d="M33.906 116.205c-3.917 0-7.339-2.339-8.517-5.82L4.684 49.145c-1.55-4.582 1.201-9.669 6.132-11.34l98.562-33.4a10.089 10.089 0 0 1 3.241-.539c3.917 0 7.34 2.339 8.518 5.821l20.705 61.239c1.55 4.581-1.201 9.669-6.132 11.341l-98.563 33.399a10.057 10.057 0 0 1-3.241.539Z" style="fill:#ffbb58;fill-rule:nonzero" transform="matrix(1 0 0 1 14.499 9.09)"/><path d="M112.619 7.116c2.465 0 4.683 1.376 5.438 3.612l20.705 61.239c.978 2.89-.856 6.123-4.097 7.222l-98.562 33.399a6.836 6.836 0 0 1-2.198.366c-2.465 0-4.683-1.376-5.439-3.611L7.762 48.104c-.978-2.89.857-6.124 4.097-7.221l98.562-33.4a6.834 6.834 0 0 1 2.198-.367m0-6.5c-1.452 0-2.894.239-4.284.71l-98.562 33.4c-6.628 2.246-10.292 9.181-8.168 15.46l20.705 61.238c1.625 4.803 6.285 8.029 11.597 8.029a13.31 13.31 0 0 0 4.285-.71l98.561-33.399c6.628-2.247 10.292-9.183 8.168-15.461L124.214 8.646c-1.624-4.803-6.284-8.03-11.595-8.03Z" style="fill:#ffbb58;fill-rule:nonzero" transform="matrix(1 0 0 1 14.499 9.09)"/><path d="M33.906 116.205c-3.917 0-7.339-2.339-8.517-5.82L4.684 49.145c-1.55-4.582 1.201-9.669 6.132-11.34l98.562-33.4a10.089 10.089 0 0 1 3.241-.539c3.917 0 7.34 2.339 8.518 5.821l20.705 61.239c1.55 4.581-1.201 9.669-6.132 11.341l-98.563 33.399a10.057 10.057 0 0 1-3.241.539Z" style="fill:#2bc194;fill-rule:nonzero" transform="rotate(10.224 -46.79 57.342)"/><path d="M112.619 7.116c2.465 0 4.683 1.376 5.438 3.612l20.705 61.239c.978 2.89-.856 6.123-4.097 7.222l-98.562 33.399a6.836 6.836 0 0 1-2.198.366c-2.465 0-4.683-1.376-5.439-3.611L7.762 48.104c-.978-2.89.857-6.124 4.097-7.221l98.562-33.4a6.834 6.834 0 0 1 2.198-.367m0-6.5c-1.452 0-2.894.239-4.284.71l-98.562 33.4c-6.628 2.246-10.292 9.181-8.168 15.46l20.705 61.238c1.625 4.803 6.285 8.029 11.597 8.029a13.31 13.31 0 0 0 4.285-.71l98.561-33.399c6.628-2.247 10.292-9.183 8.168-15.461L124.214 8.646c-1.624-4.803-6.284-8.03-11.595-8.03Z" style="fill:#2bc194;fill-rule:nonzero" transform="rotate(10.224 -46.79 57.342)"/><path d="M33.906 116.205c-3.917 0-7.339-2.339-8.517-5.82L4.684 49.145c-1.55-4.582 1.201-9.669 6.132-11.34l98.562-33.4a10.089 10.089 0 0 1 3.241-.539c3.917 0 7.34 2.339 8.518 5.821l20.705 61.239c1.55 4.581-1.201 9.669-6.132 11.341l-98.563 33.399a10.057 10.057 0 0 1-3.241.539Z" style="fill:#00b1e6;fill-rule:nonzero" transform="rotate(9.65 -95.472 227.114)"/><path d="M112.619 7.116c2.465 0 4.683 1.376 5.438 3.612l20.705 61.239c.978 2.89-.856 6.123-4.097 7.222l-98.562 33.399a6.836 6.836 0 0 1-2.198.366c-2.465 0-4.683-1.376-5.439-3.611L7.762 48.104c-.978-2.89.857-6.124 4.097-7.221l98.562-33.4a6.834 6.834 0 0 1 2.198-.367m0-6.5c-1.452 0-2.894.239-4.284.71l-98.562 33.4c-6.628 2.246-10.292 9.181-8.168 15.46l20.705 61.238c1.625 4.803 6.285 8.029 11.597 8.029a13.31 13.31 0 0 0 4.285-.71l98.561-33.399c6.628-2.247 10.292-9.183 8.168-15.461L124.214 8.646c-1.624-4.803-6.284-8.03-11.595-8.03Z" style="fill:#00b1e6;fill-rule:nonzero" transform="rotate(9.65 -95.472 227.114)"/><path d="M33.906 116.205c-3.917 0-7.339-2.339-8.517-5.82L4.684 49.145c-1.55-4.582 1.201-9.669 6.132-11.34l98.562-33.4a10.089 10.089 0 0 1 3.241-.539c3.917 0 7.34 2.339 8.518 5.821l20.705 61.239c1.55 4.581-1.201 9.669-6.132 11.341l-98.563 33.399a10.057 10.057 0 0 1-3.241.539Z" style="fill:#004c92;fill-rule:nonzero" transform="translate(11.785 25.91)"/><path d="M112.619 7.116c2.465 0 4.683 1.376 5.438 3.612l20.705 61.239c.978 2.89-.856 6.123-4.097 7.222l-98.562 33.399a6.836 6.836 0 0 1-2.198.366c-2.465 0-4.683-1.376-5.439-3.611L7.762 48.104c-.978-2.89.857-6.124 4.097-7.221l98.562-33.4a6.834 6.834 0 0 1 2.198-.367m0-6.5c-1.452 0-2.894.239-4.284.71l-98.562 33.4c-6.628 2.246-10.292 9.181-8.168 15.46l20.705 61.238c1.625 4.803 6.285 8.029 11.597 8.029a13.31 13.31 0 0 0 4.285-.71l98.561-33.399c6.628-2.247 10.292-9.183 8.168-15.461L124.214 8.646c-1.624-4.803-6.284-8.03-11.595-8.03Z" style="fill:#fff;fill-rule:nonzero" transform="translate(11.785 25.91)"/><g transform="translate(11.785 25.91)"><clipPath id="a"><path d="m139.203 72.585-11.037-32.906 7.341-.336 11.133 31.978V0H0v120.72h146.64V73.073l-7.437-.488Z"/></clipPath><g clip-path="url(#a)"><path style="fill:#fff;fill-rule:nonzero" d="M42.199 40.296h6.083v32.149h-6.083zM55.331 40.296h11.153c3.283 0 5.954.964 8.014 2.894 2.061 1.929 3.092 4.317 3.092 7.165 0 2.021-.564 3.835-1.691 5.442-1.125 1.607-2.654 2.809-4.585 3.605l7.482 13.043h-6.71L65.568 60.32h-4.153v12.125h-6.083V40.296h-.001Zm11.153 5.328h-5.069v9.369h5.069c1.448 0 2.607-.429 3.476-1.286.869-.857 1.304-1.99 1.304-3.398 0-1.378-.435-2.503-1.304-3.376-.869-.873-2.028-1.309-3.476-1.309ZM101.017 63.91l-5.016-.017-6.489-11.415v19.966h-6.083V40.296h5.407l9.655 17.13 9.705-17.13h5.359v32.149h-6.083V52.513l-6.455 11.397ZM139.772 72.445l-2.164-6.843h-11.507l-2.165 6.843h-6.614l11.442-32.149h6.133l11.441 32.149h-6.566Zm-7.918-24.939-4.258 13.365h8.516l-4.258-13.365Z"/></g></g></svg>