<?xml version="1.0" encoding="UTF-8" standalone="no"?>
<svg
   xmlns:dc="http://purl.org/dc/elements/1.1/"
   xmlns:cc="http://creativecommons.org/ns#"
   xmlns:rdf="http://www.w3.org/1999/02/22-rdf-syntax-ns#"
   xmlns:svg="http://www.w3.org/2000/svg"
   xmlns="http://www.w3.org/2000/svg"
   width="597.99622"
   height="460.14386"
   viewBox="0 0 597.99622 460.14386"
   fill="none"
   version="1.1"
   id="svg1509">
  <metadata
     id="metadata1515">
    <rdf:RDF>
      <cc:Work
         rdf:about="">
        <dc:format>image/svg+xml</dc:format>
        <dc:type
           rdf:resource="http://purl.org/dc/dcmitype/StillImage" />
        <dc:title></dc:title>
      </cc:Work>
    </rdf:RDF>
  </metadata>
  <defs
     id="defs1513" />
  <g
     id="layer2"
     style="display:inline"
     transform="translate(2.4152305,-13.856145)">
    <path
       d="M 308.789,163.637 H 203.678 c -2.134,-0.002 -4.179,-0.851 -5.688,-2.359 -1.509,-1.509 -2.358,-3.554 -2.361,-5.687 V 41.0465 c 0.003,-2.1333 0.852,-4.1786 2.361,-5.6871 1.509,-1.5085 3.554,-2.357 5.688,-2.3594 h 105.111 c 2.134,0.0024 4.18,0.8509 5.689,2.3594 1.509,1.5085 2.358,3.5537 2.36,5.6871 V 155.591 c -0.002,2.133 -0.851,4.178 -2.36,5.687 -1.509,1.508 -3.555,2.357 -5.689,2.359 z"
       fill="#e6e6e6"
       id="path1437" />
    <path
       d="m 297.385,104.402 h -80.49 c -1.507,0 -2.952,-0.598 -4.017,-1.663 -1.066,-1.065 -1.664,-2.51 -1.664,-4.0165 0,-1.5064 0.598,-2.9511 1.664,-4.0163 1.065,-1.0652 2.51,-1.6636 4.017,-1.6636 h 80.49 c 1.507,0 2.952,0.5984 4.018,1.6636 1.065,1.0652 1.664,2.5099 1.664,4.0163 0,1.5065 -0.599,2.9515 -1.664,4.0165 -1.066,1.065 -2.511,1.663 -4.018,1.663 z"
       fill="#ffffff"
       id="path1439" />
    <path
       d="m 294.626,85.884 h -80.49 c -1.507,0 -2.953,-0.5984 -4.018,-1.6636 -1.066,-1.0651 -1.664,-2.5099 -1.664,-4.0162 0,-1.5064 0.598,-2.9511 1.664,-4.0163 1.065,-1.0652 2.511,-1.6636 4.018,-1.6636 h 80.49 c 1.507,0 2.952,0.5984 4.017,1.6636 1.066,1.0652 1.665,2.5099 1.665,4.0163 0,1.5063 -0.599,2.9511 -1.665,4.0162 -1.065,1.0652 -2.51,1.6636 -4.017,1.6636 z"
       fill="#ffffff"
       id="path1441" />
    <path
       d="m 294.626,64.3871 h -80.49 c -1.507,0 -2.953,-0.5984 -4.018,-1.6636 -1.066,-1.0652 -1.664,-2.5099 -1.664,-4.0163 0,-1.5064 0.598,-2.9511 1.664,-4.0162 1.065,-1.0652 2.511,-1.6637 4.018,-1.6637 h 80.49 c 1.507,0 2.952,0.5985 4.017,1.6637 1.066,1.0651 1.665,2.5098 1.665,4.0162 0,1.5064 -0.599,2.9511 -1.665,4.0163 -1.065,1.0652 -2.51,1.6636 -4.017,1.6636 z"
       fill="#ffffff"
       id="path1443" />
    <path
       d="m 296.006,125.771 h -80.491 c -1.507,0 -2.952,-0.598 -4.017,-1.663 -1.066,-1.065 -1.664,-2.51 -1.664,-4.017 0,-1.506 0.598,-2.951 1.664,-4.016 1.065,-1.065 2.51,-1.663 4.017,-1.663 h 80.491 c 1.506,0 2.952,0.598 4.017,1.663 1.066,1.065 1.664,2.51 1.664,4.016 0,1.507 -0.598,2.952 -1.664,4.017 -1.065,1.065 -2.511,1.663 -4.017,1.663 z"
       fill="#ffffff"
       id="path1445" />
    <path
       d="m 318.366,200.042 -97.917,-38.206 c -1.987,-0.778 -3.584,-2.312 -4.441,-4.266 -0.857,-1.953 -0.904,-4.167 -0.13,-6.155 L 257.539,44.7105 c 0.778,-1.9864 2.313,-3.5832 4.267,-4.4399 1.954,-0.8568 4.169,-0.9036 6.158,-0.1301 l 97.916,38.2061 c 1.987,0.7779 3.585,2.312 4.442,4.2657 0.857,1.9537 0.903,4.1675 0.13,6.1557 l -41.661,106.704 c -0.779,1.987 -2.313,3.583 -4.267,4.44 -1.955,0.857 -4.169,0.904 -6.158,0.13 z"
       fill="#e6e6e6"
       id="path1447" />
    <path
       d="m 317.426,87.8937 -48.517,-18.931 c -1.286,-0.5025 -2.32,-1.4951 -2.874,-2.7594 -0.554,-1.2643 -0.584,-2.6969 -0.082,-3.9829 0.502,-1.2859 1.495,-2.3199 2.759,-2.8746 1.265,-0.5547 2.698,-0.5847 3.984,-0.0834 l 48.517,18.931 c 1.287,0.502 2.322,1.4945 2.876,2.7591 0.555,1.2647 0.585,2.6978 0.082,3.9841 -0.502,1.2864 -1.495,2.3206 -2.76,2.8752 -1.265,0.5545 -2.698,0.584 -3.985,0.0819 z"
       fill="#ffffff"
       id="path1449" />
    <path
       d="M 334.69,123.084 259.709,93.8268 c -1.402,-0.5486 -2.53,-1.6314 -3.134,-3.0105 -0.604,-1.3791 -0.636,-2.9416 -0.088,-4.3442 0.547,-1.4026 1.629,-2.5304 3.008,-3.1356 1.38,-0.6052 2.943,-0.6383 4.346,-0.0919 l 74.981,29.2564 c 0.696,0.271 1.332,0.676 1.871,1.192 0.54,0.517 0.972,1.134 1.272,1.818 0.301,0.683 0.463,1.419 0.479,2.166 0.015,0.746 -0.116,1.488 -0.388,2.184 -0.271,0.695 -0.677,1.33 -1.195,1.869 -0.517,0.538 -1.135,0.969 -1.819,1.269 -0.684,0.299 -1.421,0.461 -2.167,0.475 -0.747,0.015 -1.489,-0.118 -2.185,-0.39 z"
       fill="#ffffff"
       id="path1451" />
    <path
       d="m 327.46,141.603 -74.981,-29.257 c -0.695,-0.271 -1.33,-0.677 -1.868,-1.193 -0.539,-0.517 -0.97,-1.134 -1.27,-1.817 -0.299,-0.683 -0.462,-1.419 -0.477,-2.165 -0.015,-0.745 0.117,-1.487 0.388,-2.182 0.271,-0.694 0.677,-1.329 1.193,-1.867 0.517,-0.538 1.134,-0.97 1.818,-1.269 0.683,-0.3 1.419,-0.462 2.165,-0.477 0.746,-0.015 1.487,0.116 2.182,0.388 l 74.982,29.256 c 1.403,0.548 2.532,1.631 3.137,3.01 0.605,1.38 0.637,2.943 0.09,4.347 -0.548,1.403 -1.631,2.531 -3.011,3.136 -1.38,0.605 -2.944,0.637 -4.348,0.09 z"
       fill="#ffffff"
       id="path1453" />
    <path
       d="m 320.229,160.122 -74.981,-29.257 c -1.402,-0.549 -2.53,-1.632 -3.134,-3.011 -0.604,-1.379 -0.636,-2.941 -0.089,-4.344 0.548,-1.403 1.63,-2.53 3.009,-3.136 1.379,-0.605 2.942,-0.638 4.346,-0.092 l 74.981,29.257 c 1.404,0.548 2.532,1.631 3.138,3.01 0.605,1.38 0.637,2.943 0.089,4.347 -0.548,1.403 -1.631,2.531 -3.011,3.136 -1.38,0.605 -2.944,0.637 -4.348,0.09 z"
       fill="#ffffff"
       id="path1455" />
    <path
       d="M 348.344,126.862 H 235.062 l -18.01,-28.6433 c -0.681,-1.0847 -1.628,-1.9787 -2.749,-2.5983 -1.122,-0.6196 -2.383,-0.9446 -3.664,-0.9446 h -27.063 c -0.995,0 -1.98,0.1958 -2.899,0.5764 -0.92,0.3806 -1.755,0.9384 -2.458,1.6417 -0.704,0.7032 -1.262,1.5381 -1.642,2.4569 C 176.196,100.27 176,101.254 176,102.249 v 135.37 c 0,0.995 0.196,1.98 0.577,2.898 0.38,0.919 0.938,1.754 1.642,2.457 0.703,0.704 1.538,1.261 2.458,1.642 0.919,0.381 1.904,0.576 2.899,0.576 h 164.768 c 0.995,0 1.98,-0.195 2.899,-0.576 0.919,-0.381 1.754,-0.938 2.458,-1.642 0.703,-0.703 1.261,-1.538 1.642,-2.457 0.381,-0.918 0.576,-1.903 0.576,-2.898 V 134.435 c 0,-0.995 -0.195,-1.979 -0.576,-2.898 -0.381,-0.919 -0.939,-1.754 -1.642,-2.457 -0.704,-0.703 -1.539,-1.261 -2.458,-1.642 -0.919,-0.38 -1.904,-0.576 -2.899,-0.576 z"
       fill="#00a2d5"
       id="path1457" />
    <path
       d="m 101.165,162.381 c 12.797,0 23.171,-10.374 23.171,-23.171 0,-12.798 -10.374,-23.172 -23.171,-23.172 -12.7978,0 -23.1721,10.374 -23.1721,23.172 0,12.797 10.3743,23.171 23.1721,23.171 z"
       fill="#ffb8b8"
       id="path1459" />
    <path
       d="m 92.7986,276.32 c -0.2918,0 -0.5849,-0.013 -0.8793,-0.038 -1.4574,-0.122 -2.8726,-0.55 -4.1529,-1.257 -1.2803,-0.707 -2.3968,-1.676 -3.2764,-2.844 -0.8796,-1.168 -1.5025,-2.509 -1.8277,-3.935 -0.3252,-1.426 -0.3455,-2.904 -0.0595,-4.339 0.0676,-0.333 0.1527,-0.662 0.2548,-0.986 L 48.6582,222.473 c -1.1144,-1.328 -1.7708,-2.981 -1.8718,-4.711 -0.101,-1.731 0.3587,-3.449 1.3109,-4.898 l 0.062,-0.075 30.7836,-30.354 c 0.837,-0.825 1.8292,-1.476 2.9193,-1.916 1.0901,-0.44 2.2565,-0.659 3.4319,-0.645 1.1753,0.013 2.3363,0.26 3.4159,0.725 1.0795,0.464 2.0563,1.139 2.8739,1.983 0.8176,0.845 1.4597,1.843 1.8894,2.937 0.4297,1.094 0.6383,2.262 0.6139,3.437 -0.0244,1.176 -0.2814,2.334 -0.7561,3.41 -0.4748,1.075 -1.1578,2.045 -2.0097,2.855 l -22.2956,21.196 24.4081,39.175 c 0.4623,0.024 0.9224,0.08 1.3767,0.169 2.5248,0.504 4.7722,1.928 6.3054,3.996 1.534,2.068 2.245,4.632 1.994,7.194 -0.251,2.563 -1.445,4.94 -3.3504,6.672 -1.9055,1.731 -4.3864,2.693 -6.9609,2.697 z"
       fill="#ffb8b8"
       id="path1461" />
    <path
       d="m 139.328,461.701 h 11.567 l 5.502,-44.613 -17.071,10e-4 z"
       fill="#ffb8b8"
       id="path1463" />
    <path
       d="m 136.378,457.925 22.778,-0.001 h 0.001 c 1.906,0 3.794,0.375 5.555,1.105 1.761,0.729 3.362,1.799 4.71,3.147 1.348,1.347 2.417,2.948 3.146,4.709 0.73,1.761 1.105,3.649 1.105,5.555 v 0.472 l -37.294,0.001 z"
       fill="#2f2e41"
       id="path1465" />
    <path
       d="m 24.366,445.71 9.938,5.917 27.553,-35.517 -14.668,-8.733 z"
       fill="#ffb8b8"
       id="path1467" />
    <path
       d="m 23.7629,440.956 19.5716,11.652 8e-4,10e-4 c 1.638,0.975 3.0678,2.264 4.2078,3.791 1.14,1.528 1.9679,3.266 2.4365,5.113 0.4685,1.848 0.5685,3.77 0.2942,5.657 -0.2742,1.886 -0.9173,3.7 -1.8927,5.338 l -0.2413,0.405 -32.0445,-19.079 z"
       fill="#2f2e41"
       id="path1469" />
    <path
       d="m 153.624,445.944 h -12.952 c -1.048,0.002 -2.061,-0.386 -2.84,-1.087 -0.78,-0.701 -1.272,-1.667 -1.381,-2.71 L 123.394,319.41 c -0.033,-0.309 -0.167,-0.599 -0.381,-0.824 -0.214,-0.226 -0.496,-0.374 -0.802,-0.424 -0.307,-0.049 -0.622,0.004 -0.895,0.151 -0.274,0.147 -0.492,0.381 -0.62,0.664 l -23.555,52.158 -41.7035,68.003 c -0.5398,0.872 -1.3755,1.52 -2.3541,1.826 -0.9786,0.306 -2.0347,0.249 -2.9748,-0.16 l -16.6603,-7.33 c -0.5508,-0.243 -1.0439,-0.6 -1.4464,-1.047 -0.4024,-0.448 -0.7052,-0.976 -0.8881,-1.549 -0.183,-0.573 -0.2419,-1.179 -0.173,-1.777 0.0689,-0.598 0.2641,-1.175 0.5727,-1.691 l 38.3371,-64.192 11.7577,-54.086 c -3.698,-23.455 12.155,-58.326 12.3157,-58.676 l 0.0786,-0.17 43.6674,-17.068 0.219,0.268 c 17.221,56.514 27.715,117.332 19.967,208.568 -0.096,1.058 -0.582,2.043 -1.365,2.763 -0.782,0.719 -1.804,1.121 -2.867,1.127 z"
       fill="#2f2e41"
       id="path1471" />
    <path
       d="m 92.2433,256.001 -0.2034,-0.428 c -0.0972,-0.204 -9.807,-20.683 -17.292,-42.571 -1.4385,-4.233 -1.9823,-8.718 -1.597,-13.172 0.3854,-4.454 1.6915,-8.779 3.8356,-12.702 2.172,-3.963 5.1434,-7.432 8.7261,-10.187 3.5826,-2.755 7.6984,-4.736 12.0865,-5.817 7.6179,-1.826 15.6389,-0.854 22.5999,2.738 6.962,3.592 12.401,9.565 15.328,16.832 5.937,14.847 4.045,30.694 2.264,43.157 l -0.035,0.25 -0.227,0.108 z"
       fill="#004c92"
       id="path1473" />
    <path
       d="M 129.26,126.12 H 92.4658 v -16.038 c 8.0762,-3.208 15.9782,-5.937 20.7552,0 4.254,0 8.333,1.69 11.341,4.698 3.008,3.007 4.698,7.087 4.698,11.34 z"
       fill="#2f2e41"
       id="path1475" />
    <path
       d="m 90.4287,107.252 c -21.9961,0 -28.1528,27.571 -28.1528,43.125 0,8.675 3.923,11.777 10.0875,12.827 l 2.1771,-11.611 5.099,12.111 c 1.7316,0.008 3.5508,-0.025 5.4367,-0.06 l 1.7289,-3.56 3.8552,3.496 c 15.4407,0.023 27.9207,2.274 27.9207,-13.203 0,-15.554 -5.399,-43.125 -28.1523,-43.125 z"
       fill="#2f2e41"
       id="path1477" />
    <path
       d="m 188.199,138.109 c 0.14,0.256 0.27,0.52 0.388,0.79 0.592,1.338 0.895,2.785 0.888,4.247 -0.006,1.463 -0.321,2.907 -0.925,4.239 -0.603,1.332 -1.481,2.522 -2.577,3.491 -1.095,0.969 -2.383,1.695 -3.779,2.132 -0.324,0.1 -0.654,0.184 -0.988,0.249 l -19.099,49.405 c -0.631,1.615 -1.767,2.983 -3.237,3.902 -1.471,0.918 -3.198,1.338 -4.926,1.197 l -0.096,-0.018 -41.397,-12.462 c -1.125,-0.339 -2.173,-0.897 -3.081,-1.643 -0.909,-0.746 -1.66,-1.665 -2.212,-2.703 -0.551,-1.038 -0.892,-2.175 -1.001,-3.345 -0.11,-1.17 0.013,-2.351 0.363,-3.473 0.349,-1.122 0.917,-2.164 1.671,-3.066 0.754,-0.902 1.679,-1.645 2.722,-2.187 1.043,-0.542 2.183,-0.872 3.354,-0.971 1.172,-0.099 2.351,0.035 3.47,0.395 l 29.29,9.404 22.677,-40.202 c -0.201,-0.417 -0.371,-0.848 -0.511,-1.29 -0.769,-2.457 -0.596,-5.112 0.483,-7.449 1.08,-2.337 2.989,-4.19 5.358,-5.198 2.369,-1.009 5.028,-1.101 7.461,-0.259 2.433,0.842 4.466,2.558 5.704,4.815 z"
       fill="#ffb8b8"
       id="path1479" />
    <path
       d="M 193,474 H 1 C 0.734784,474 0.480429,473.895 0.292892,473.707 0.105356,473.52 0,473.265 0,473 0,472.735 0.105356,472.48 0.292892,472.293 0.480429,472.105 0.734784,472 1,472 h 192 c 0.265,0 0.52,0.105 0.707,0.293 0.188,0.187 0.293,0.442 0.293,0.707 0,0.265 -0.105,0.52 -0.293,0.707 C 193.52,473.895 193.265,474 193,474 Z"
       fill="#cccccc"
       id="path1481" />
    <path
       d="m 452.621,417.345 h 23.644 v 14.887 h -38.531 c 0,-1.955 0.385,-3.891 1.133,-5.697 0.748,-1.806 1.845,-3.447 3.227,-4.829 1.382,-1.383 3.024,-2.479 4.83,-3.227 1.806,-0.749 3.742,-1.134 5.697,-1.134 z"
       fill="#2f2e41"
       id="path1483" />
    <path
       d="m 473.637,420.849 -12.259,-10e-4 -5.833,-47.288 18.095,10e-4 z"
       fill="#a0616a"
       id="path1485" />
    <path
       d="m 563.392,386.945 -9.058,8.263 -36.18,-31.003 13.368,-12.195 z"
       fill="#a0616a"
       id="path1487" />
    <path
       d="m 545.504,398.522 17.467,-15.935 10.033,10.998 -28.465,25.968 c -1.318,-1.444 -2.338,-3.134 -3.002,-4.973 -0.665,-1.838 -0.961,-3.79 -0.871,-5.743 0.089,-1.952 0.563,-3.869 1.393,-5.639 0.83,-1.77 2.001,-3.359 3.445,-4.676 z"
       fill="#2f2e41"
       id="path1489" />
    <path
       d="m 461.583,410.034 c -1.082,0.004 -2.129,-0.385 -2.946,-1.094 -0.817,-0.709 -1.35,-1.69 -1.499,-2.762 l -10.683,-73.889 c -0.532,-3.685 -0.583,-7.423 -0.15,-11.121 l 10.412,-88.975 66.498,5.583 -10.037,84.306 37.966,47.34 c 0.73,0.905 1.08,2.058 0.976,3.217 -0.103,1.158 -0.652,2.23 -1.531,2.992 l -9.559,8.325 c -0.448,0.391 -0.969,0.689 -1.533,0.876 -0.564,0.188 -1.16,0.263 -1.753,0.219 -0.593,-0.044 -1.171,-0.205 -1.702,-0.473 -0.53,-0.269 -1.002,-0.64 -1.388,-1.092 l -35.975,-42.097 c -5.568,-6.534 -9.576,-14.249 -11.719,-22.562 l -5.136,-20.029 c -0.08,-0.313 -0.258,-0.591 -0.509,-0.794 -0.251,-0.203 -0.56,-0.319 -0.882,-0.333 -0.322,-0.013 -0.64,0.078 -0.906,0.26 -0.267,0.182 -0.468,0.444 -0.573,0.749 l -6.793,19.623 4.298,86.432 c 0.056,1.186 -0.358,2.347 -1.153,3.23 -0.795,0.883 -1.906,1.417 -3.092,1.486 l -10.372,0.576 c -0.087,0.005 -0.174,0.007 -0.259,0.007 z"
       fill="#2f2e41"
       id="path1491" />
    <path
       d="m 498.535,111.962 c 13.565,0 24.561,-10.997 24.561,-24.5614 0,-13.5646 -10.996,-24.561 -24.561,-24.561 -13.565,0 -24.561,10.9964 -24.561,24.561 0,13.5644 10.996,24.5614 24.561,24.5614 z"
       fill="#a0616a"
       id="path1493" />
    <path
       d="m 355.877,115.956 c 0.591,1.347 1.469,2.547 2.574,3.517 1.104,0.971 2.408,1.687 3.819,2.098 1.411,0.412 2.896,0.51 4.349,0.286 1.453,-0.224 2.839,-0.764 4.061,-1.582 l 32.203,19.51 -2.503,-16.5 -27.258,-17.615 c -1.509,-1.961 -3.686,-3.301 -6.117,-3.765 -2.431,-0.463 -4.948,-0.019 -7.074,1.249 -2.126,1.267 -3.712,3.271 -4.459,5.631 -0.748,2.359 -0.603,4.911 0.405,7.171 z"
       fill="#a0616a"
       id="path1495" />
    <path
       d="m 497.394,249.176 c -13.045,0 -26.62,-4.046 -40.348,-12.029 -1.02,-0.592 -1.798,-1.526 -2.195,-2.636 -0.397,-1.11 -0.389,-2.325 0.024,-3.429 l 12.769,-34.407 -2.904,-40.541 c -0.988,-13.79 5.887,-26.88 17.515,-33.349 4.171,-2.34 8.819,-3.703 13.593,-3.986 4.774,-0.282 9.55,0.523 13.968,2.354 4.739,1.996 8.962,5.04 12.353,8.905 3.391,3.864 5.861,8.448 7.223,13.405 l 4.099,14.261 c 4.971,17.443 4.399,35.999 -1.637,53.102 l -11.875,33.341 -0.309,0.184 c -0.08,0.049 -8.229,4.824 -22.276,4.825 z"
       fill="#cccccc"
       id="path1497" />
    <path
       d="m 372.925,127.402 c -0.554,-0.833 -0.845,-1.814 -0.836,-2.815 0.01,-1.001 0.319,-1.976 0.89,-2.798 l 6.223,-8.989 c 0.694,-0.999 1.728,-1.711 2.909,-2.004 1.181,-0.292 2.428,-0.145 3.508,0.415 l 46.151,24 50.921,-5.104 c 3.205,-0.305 6.42,0.486 9.118,2.244 2.698,1.759 4.72,4.38 5.735,7.436 0.69,2.111 0.873,4.356 0.533,6.552 -0.339,2.195 -1.191,4.28 -2.486,6.085 -1.295,1.805 -2.997,3.279 -4.969,4.304 -1.971,1.024 -4.156,1.57 -6.377,1.592 l -47.485,0.482 c -4.998,0.048 -9.925,-1.188 -14.31,-3.589 l -47.765,-26.194 c -0.708,-0.389 -1.312,-0.944 -1.76,-1.617 z"
       fill="#cccccc"
       id="path1499" />
    <path
       d="m 519.701,271.158 c 1.154,-0.909 2.096,-2.061 2.758,-3.374 0.661,-1.312 1.027,-2.754 1.071,-4.224 0.044,-1.469 -0.234,-2.93 -0.816,-4.281 -0.582,-1.35 -1.452,-2.556 -2.551,-3.533 l 11.994,-33.015 -16.539,3.511 -10.205,30.808 c -1.519,1.954 -2.269,4.397 -2.108,6.867 0.162,2.469 1.224,4.794 2.985,6.533 1.761,1.739 4.099,2.772 6.571,2.902 2.471,0.131 4.905,-0.65 6.84,-2.194 z"
       fill="#a0616a"
       id="path1501" />
    <path
       d="m 524.103,251.956 c -0.586,0.001 -1.168,-0.103 -1.718,-0.305 l -10.263,-3.767 c -1.142,-0.42 -2.091,-1.242 -2.671,-2.312 -0.58,-1.07 -0.75,-2.314 -0.48,-3.5 l 11.641,-50.699 -17.73,-48.007 c -1.101,-3.026 -1.143,-6.336 -0.119,-9.39 1.025,-3.053 3.054,-5.668 5.758,-7.418 1.871,-1.198 3.998,-1.939 6.208,-2.162 2.21,-0.223 4.442,0.078 6.515,0.878 2.072,0.801 3.927,2.078 5.413,3.729 1.487,1.651 2.564,3.629 3.144,5.774 l 12.392,45.841 c 1.302,4.826 1.343,9.905 0.12,14.752 l -13.358,52.813 c -0.273,1.079 -0.897,2.036 -1.776,2.719 -0.878,0.684 -1.959,1.055 -3.072,1.054 z"
       fill="#cccccc"
       id="path1503" />
    <path
       d="m 500.157,104.731 c 1.245,-5.1677 1.861,-8.0694 3.095,-13.2402 0.826,-3.4632 -1.667,-7.0092 -4.796,-8.6275 -3.128,-1.6184 -6.755,-1.8042 -10.25,-2.1468 -3.495,-0.3426 -7.162,-0.9536 -9.886,-3.202 -3.658,-3.0187 -4.703,-8.6415 -2.905,-13.0636 0.966,-2.1738 2.44,-4.0838 4.298,-5.5693 1.858,-1.4856 4.045,-2.5032 6.378,-2.9674 4.683,-0.8566 9.519,-0.1122 13.727,2.1134 1.649,-3.8736 6.426,-5.5577 10.531,-4.882 4.104,0.6758 7.669,3.1673 11.005,5.6859 6.204,4.6835 12.57,10.3612 13.947,18.0822 1.33,7.4563 -2.453,14.9811 -7.511,20.5548 -6.903,7.5805 -16.165,12.6065 -26.283,14.2625 -0.674,-1.02 -1.14,-2.164 -1.372,-3.365 -0.231,-1.201 -0.224,-2.436 0.022,-3.635 z"
       fill="#000000"
       id="path1505" />
    <path
       d="m 594.581,433.32 h -192 c -0.266,0 -0.52,-0.105 -0.708,-0.293 -0.187,-0.187 -0.292,-0.442 -0.292,-0.707 0,-0.265 0.105,-0.52 0.292,-0.707 0.188,-0.188 0.442,-0.293 0.708,-0.293 h 192 c 0.265,0 0.519,0.105 0.707,0.293 0.187,0.187 0.293,0.442 0.293,0.707 0,0.265 -0.106,0.52 -0.293,0.707 -0.188,0.188 -0.442,0.293 -0.707,0.293 z"
       fill="#cccccc"
       id="path1507" />
  </g>
  <g
     id="layer3"
     style="display:none"
     transform="translate(2.4152305,-13.856145)">
    <path
       d="m 468.58369,300.1443 c 1.25868,-0.81912 2.32239,-1.90591 3.11613,-3.18074 0.79375,-1.27599 1.29791,-2.70888 1.47673,-4.20061 0.17998,-1.49057 0.03,-3.00307 -0.43955,-4.43019 -0.46841,-1.42597 -1.24484,-2.73311 -2.27394,-3.82797 l 5.71426,-68.09576 -16.36749,1.79976 -4.48442,66.27639 c -1.72593,1.84938 -2.71234,4.26637 -2.77348,6.79412 -0.0611,2.52775 0.80758,4.98974 2.44237,6.91987 1.63363,1.93129 3.92026,3.19458 6.42494,3.55338 2.50467,0.3588 5.05318,-0.21343 7.16445,-1.60825 z"
       fill="#ffb8b8"
       id="path1016"
       style="stroke-width:1.1537" />
    <path
       d="m 410.32549,462.56512 -11.73194,-10e-4 -5.58043,-45.21912 17.31352,10e-4 z"
       fill="#ffb8b8"
       id="path1018"
       style="stroke-width:1.1537" />
    <path
       d="m 390.21425,459.21478 h 22.62514 v 14.23546 h -36.87098 c 0,-1.86899 0.36803,-3.72067 1.08448,-5.44775 0.71529,-1.72708 1.76515,-3.29611 3.08729,-4.61825 1.32329,-1.32213 2.89347,-2.37084 4.62171,-3.08613 1.72823,-0.7153 3.58107,-1.08333 5.45236,-1.08333 z"
       fill="#2f2e41"
       id="path1020"
       style="stroke-width:1.1537" />
    <path
       d="m 493.57736,462.56512 -11.73193,-10e-4 -5.58043,-45.21912 17.31352,10e-4 z"
       fill="#ffb8b8"
       id="path1022"
       style="stroke-width:1.1537" />
    <path
       d="m 473.46613,459.21478 h 22.62514 v 14.23546 h -36.87098 c 0,-3.77489 1.50096,-7.39634 4.17292,-10.066 2.67081,-2.66965 6.29457,-4.16946 10.07292,-4.16946 z"
       fill="#2f2e41"
       id="path1024"
       style="stroke-width:1.1537" />
    <path
       d="m 410.52277,434.55799 c -0.12691,0 -0.25497,-0.005 -0.38303,-0.015 l -16.604,-1.3279 c -0.65876,-0.0531 -1.30021,-0.24113 -1.88167,-0.55378 -0.58262,-0.3115 -1.09371,-0.74182 -1.50212,-1.26099 -0.40725,-0.51916 -0.70375,-1.11793 -0.86873,-1.75708 -0.16498,-0.63914 -0.19497,-1.30598 -0.09,-1.95782 l 25.17481,-155.60132 1.6867,-21.94676 c 0.0738,-1.02679 0.47994,-2.00051 1.15485,-2.77695 0.67607,-0.77528 1.58518,-1.31175 2.59236,-1.52749 l 25.32132,-5.53428 c 0.93104,-0.20882 1.90245,-0.13153 2.78964,0.2192 0.88604,0.35188 1.64633,0.96218 2.18164,1.75016 l 6.17458,9.01844 c 2.42392,3.50608 5.05896,6.86218 7.88898,10.04869 4.38058,4.98628 11.82885,16.05599 12.49799,34.17249 0.17882,5.95191 0.7972,11.88191 1.85053,17.74269 l 20.38581,109.73959 c 0.10268,0.64376 0.0727,1.30137 -0.0877,1.93244 -0.16036,0.63222 -0.44763,1.22407 -0.84566,1.74093 -0.39802,0.5157 -0.89757,0.94487 -1.4675,1.26214 -0.56992,0.31611 -1.19869,0.51224 -1.84822,0.57685 l -15.73988,1.19177 c -1.126,0.11075 -2.25432,-0.18229 -3.1842,-0.82605 -0.92988,-0.64492 -1.59902,-1.59902 -1.8886,-2.69273 L 445.91125,322.42102 c -0.0554,-0.20305 -0.17536,-0.38303 -0.34265,-0.51109 -0.16728,-0.12806 -0.37264,-0.19728 -0.58377,-0.19728 -0.20997,10e-4 -0.41533,0.0704 -0.58146,0.19959 -0.16729,0.12806 -0.28727,0.30804 -0.34149,0.51109 l -28.9174,108.58358 c -0.27228,1.01756 -0.8722,1.91744 -1.70747,2.56005 -0.83528,0.64146 -1.85976,0.98988 -2.91424,0.99103 z"
       fill="#2f2e41"
       id="path1026"
       style="stroke-width:1.1537" />
    <path
       d="m 454.67819,169.78008 c 12.98023,0 23.5031,-10.51479 23.5031,-23.4858 0,-12.97101 -10.52287,-23.48694 -23.5031,-23.48694 -12.98024,0 -23.5031,10.51593 -23.5031,23.48694 0,12.97101 10.52286,23.4858 23.5031,23.4858 z"
       fill="#ffb8b8"
       id="path1028"
       style="stroke-width:1.1537" />
    <path
       d="m 414.84221,253.66765 -0.48686,-33.54026 c -1.78939,-21.45067 7.71707,-32.71422 16.00754,-38.38002 2.1378,-1.44212 4.54671,-2.43546 7.08023,-2.92001 2.53352,-0.48455 5.13972,-0.44994 7.65939,0.10153 l 18.49721,3.99525 c 2.57505,0.56069 5.0105,1.63825 7.15753,3.16574 2.14703,1.52865 3.9618,3.47609 5.33469,5.72464 1.31291,2.12165 2.17472,4.49134 2.53237,6.96026 0.35764,2.46891 0.20305,4.98397 -0.45341,7.39173 -1.28521,4.50403 -4.13484,8.40353 -8.0378,10.99819 -15.89332,11.21162 -17.01356,30.04456 -17.02279,30.23376 l -0.0196,0.38995 z"
       fill="#004c92"
       id="path1030"
       style="stroke-width:1.1537" />
    <path
       d="m 472.72777,228.7282 h -16.26712 c -1.14216,-10e-4 -2.23702,-0.45571 -3.04345,-1.26215 -0.80759,-0.80643 -1.26215,-1.90013 -1.2633,-3.04114 v -28.21019 c 0,-3.29611 1.3106,-6.45839 3.64337,-8.79001 2.33393,-2.33162 5.49737,-3.64107 8.79694,-3.64107 3.29957,0 6.463,1.30945 8.79578,3.64107 2.33392,2.33162 3.64452,5.4939 3.64452,8.79001 v 28.21019 c -0.002,1.14101 -0.45571,2.23471 -1.26329,3.04114 -0.80759,0.80644 -1.90129,1.26099 -3.04345,1.26215 z"
       fill="#004c92"
       id="path1032"
       style="stroke-width:1.1537" />
    <path
       d="m 426.26841,226.31236 -13.11521,-9.61837 c -0.9195,-0.67607 -1.53327,-1.68901 -1.70632,-2.81617 -0.17306,-1.12832 0.10845,-2.27855 0.78336,-3.19805 l 16.70091,-22.74282 c 0.9668,-1.31637 2.18395,-2.42969 3.57992,-3.27535 1.39712,-0.84681 2.94769,-1.40981 4.56171,-1.6567 1.61518,-0.24805 3.26266,-0.17537 4.85014,0.21343 1.58633,0.38879 3.08037,1.08563 4.39789,2.05127 1.31637,0.96564 2.43084,2.18164 3.27765,3.57761 0.84682,1.39598 1.40982,2.94539 1.65786,4.55826 0.24805,1.61402 0.17537,3.26034 -0.21343,4.84669 -0.38879,1.58518 -1.08678,3.07806 -2.05358,4.39443 l -16.70206,22.74281 c -0.67606,0.91834 -1.69016,1.53211 -2.81848,1.70516 -1.12832,0.17306 -2.27971,-0.10844 -3.20036,-0.7822 z"
       fill="#004c92"
       id="path1034"
       style="stroke-width:1.1537" />
    <path
       d="m 459.38642,158.50154 c 0.75798,-1.58172 1.02102,-3.35495 0.75452,-5.0878 -0.2665,-1.73285 -1.04986,-3.34572 -2.24855,-4.62632 -4.42097,-4.45558 -11.3293,-1.48365 -17.30429,-1.91975 -9.9541,-0.72683 -16.73206,-12.58798 -13.7613,-22.10827 2.97193,-9.5203 13.53286,-15.42838 23.49272,-14.80192 9.96102,0.62645 18.97831,6.78258 24.98099,14.75 4.10946,-6.60837 14.20431,-7.37904 20.71923,-3.11959 6.51492,4.2606 9.88487,12.04573 11.27853,19.7005 1.39367,7.65478 1.16524,15.52068 2.33855,23.21237 2.84386,18.64373 14.88498,36.20069 32.30926,43.44821 17.42312,7.24752 39.71945,2.5889 51.11797,-12.44147 2.21625,18.21457 -1.6717,36.65064 -11.05702,52.42282 -9.38417,15.77102 -23.73615,27.98982 -40.8097,34.74356 -9.44185,3.73451 -19.8678,5.71656 -29.80805,3.64106 -16.04676,-3.35148 -28.5286,-17.06547 -33.96943,-32.52039 -5.43968,-15.45376 -4.78784,-32.41194 -2.14588,-48.57984 1.62672,-9.95871 3.42879,-21.75295 -3.83834,-28.75704 -2.04089,-1.69709 -4.44173,-2.90616 -7.02025,-3.53723 -1.36713,-0.40957 -2.62235,-1.12716 -3.6699,-2.09512 -1.04871,-0.9691 -1.86092,-2.16433 -2.37662,-3.49454 -0.5157,-1.33021 -0.72106,-2.7608 -0.59992,-4.18215 0.12114,-1.42135 0.56531,-2.79656 1.29906,-4.02063 0.11768,-0.20767 0.22382,-0.41649 0.31842,-0.62646 z"
       fill="#2f2e41"
       id="path1036"
       style="stroke-width:1.1537" />
    <path
       d="M 543.75969,473.85519 H 325.58304 c -0.25382,0 -0.49725,-0.10037 -0.67722,-0.27919 -0.17883,-0.17998 -0.28035,-0.42341 -0.28035,-0.67607 0,-0.25381 0.10152,-0.49724 0.28035,-0.67722 0.17997,-0.17882 0.4234,-0.27919 0.67722,-0.27919 h 218.17665 c 0.25381,0 0.49724,0.10037 0.67722,0.27919 0.17882,0.17998 0.28035,0.42341 0.28035,0.67722 0,0.25266 -0.10153,0.49609 -0.28035,0.67607 -0.17998,0.17882 -0.42341,0.27919 -0.67722,0.27919 z"
       fill="#3f3d56"
       id="path1038"
       style="stroke-width:1.1537" />
    <rect
       x="67.476624"
       y="-10.209307"
       width="336.08209"
       height="234.21187"
       rx="10.383266"
       transform="rotate(18.0158)"
       fill="#ffffff"
       id="rect1040"
       style="stroke-width:1.1537" />
    <path
       d="m 185.32818,184.96387 c 0.8872,1.29445 2.53467,1.83092 4.01371,1.30483 l 189.13004,-67.16126 c 3.11383,-1.10639 3.05499,-5.53082 -0.0877,-6.55299 L 75.836653,14.134111 c -3.14266,-1.02229 -5.79386,2.520711 -3.92602,5.247242 z"
       fill="#f0f0f0"
       id="path1042"
       style="stroke-width:1.1537" />
    <path
       fill-rule="evenodd"
       clip-rule="evenodd"
       d="m 169.89634,144.93407 c 3.67568,-0.29304 7.16446,-1.73862 9.9714,-4.13138 3.1692,-2.6985 7.1956,-4.181 11.35929,-4.181 4.16254,0 8.19009,1.4825 11.3593,4.181 2.80579,2.39276 6.29456,3.83834 9.97024,4.13138 4.151,0.33227 8.04818,2.13088 10.99242,5.07627 2.94423,2.94423 4.744,6.84142 5.07511,10.99126 0.29188,3.67452 1.73746,7.16561 4.13138,9.9714 2.69965,3.1692 4.18215,7.1956 4.18215,11.35929 0,4.16254 -1.4825,8.19009 -4.18215,11.35929 -2.39161,2.80579 -3.83834,6.29458 -4.13138,9.97026 -0.33111,4.151 -2.13088,8.04818 -5.07511,10.99242 -2.94424,2.94423 -6.84142,4.74399 -10.99242,5.07511 -3.67568,0.29419 -7.16445,1.73977 -9.97024,4.13138 -3.16921,2.69965 -7.19676,4.18215 -11.3593,4.18215 -4.16369,0 -8.19009,-1.4825 -11.35929,-4.18215 -2.80694,-2.39161 -6.29572,-3.83719 -9.9714,-4.13138 -4.151,-0.33112 -8.04703,-2.13088 -10.99241,-5.07511 -2.94424,-2.94424 -4.74285,-6.84142 -5.07511,-10.99242 -0.29304,-3.67568 -1.73862,-7.16447 -4.13139,-9.97026 -2.6985,-3.1692 -4.181,-7.19675 -4.181,-11.35929 0,-4.16369 1.4825,-8.19009 4.181,-11.35929 2.39277,-2.80579 3.83835,-6.29572 4.13139,-9.9714 0.33226,-4.14984 2.13087,-8.04703 5.07511,-10.99126 2.94538,-2.94539 6.84141,-4.744 10.99241,-5.07627 z"
       fill="#00a2d5"
       id="path1044"
       style="stroke-width:1.1537" />
    <path
       d="m 186.18653,170.19079 1.21254,-3.72528 c 0.64261,-1.97629 2.04435,-3.61684 3.89603,-4.55941 1.85284,-0.94257 4.00333,-1.11216 5.97961,-0.4684 1.97628,0.64261 3.61568,2.04435 4.55941,3.89603 0.94257,1.85284 1.11101,4.00333 0.4684,5.97961 l -1.21254,3.72528 3.72644,1.21254 c 0.98757,0.32188 1.80784,1.02217 2.2797,1.94859 0.47071,0.92527 0.55493,2.00051 0.23421,2.98923 l -6.06037,18.6299 c -0.32188,0.98756 -1.02218,1.80784 -1.94859,2.27855 -0.92642,0.47186 -2.00167,0.55608 -2.98923,0.2342 l -22.35517,-7.27176 c -0.98872,-0.32188 -1.809,-1.02218 -2.27971,-1.9486 -0.47186,-0.92526 -0.55608,-2.00166 -0.2342,-2.98922 l 6.06037,-18.62989 c 0.32073,-0.98756 1.02217,-1.80784 1.94744,-2.27855 0.92642,-0.47186 2.00166,-0.55608 2.99038,-0.23535 z m 4.93782,-2.5139 -1.21138,3.72644 7.45173,2.42391 1.21138,-3.72644 c 0.32188,-0.98756 0.23766,-2.06281 -0.2342,-2.98922 -0.47071,-0.92642 -1.29099,-1.62672 -2.27971,-1.9486 -0.98756,-0.32072 -2.0628,-0.2365 -2.98922,0.2342 -0.92642,0.47187 -1.62671,1.29214 -1.9486,2.27971 z"
       fill="#ffffff"
       id="path1046"
       style="stroke-width:1.1537" />
    <path
       d="m 363.50619,234.05712 c -0.95757,1.14216 -2.14703,2.06973 -3.48994,2.72042 -1.3429,0.64953 -2.80809,1.00833 -4.29982,1.05101 -1.49173,0.0438 -2.97538,-0.22958 -4.35405,-0.80066 -1.37751,-0.57224 -2.61889,-1.42943 -3.64107,-2.51506 -9.26995,-9.71412 5.8827,-24.3003 15.18726,-14.56542 0.32765,0.33573 0.63223,0.69338 0.91142,1.07063 l 46.91506,-1.16523 5.60004,-10.23444 17.21084,6.6776 c -3.30418,5.1201 -7.09869,25.21633 -15.73988,24.238 -1.13293,0.03 -53.1404,-6.39494 -54.29986,-6.47685 z"
       fill="#ffb8b8"
       id="path1048"
       style="stroke-width:1.1537" />
  </g>
</svg>
