<svg xmlns="http://www.w3.org/2000/svg" width="597.996" height="460.144" fill="none"><g style="display:inline"><path d="M311.204 149.78h-105.11a8.057 8.057 0 0 1-8.05-8.045V27.19a8.058 8.058 0 0 1 8.05-8.046h105.11a8.06 8.06 0 0 1 8.05 8.046v114.545a8.054 8.054 0 0 1-8.05 8.046z" fill="#e6e6e6"/><path d="M299.8 90.546h-80.49a5.68 5.68 0 1 1 0-11.36h80.49a5.684 5.684 0 0 1 5.682 5.68 5.681 5.681 0 0 1-5.682 5.68zM297.041 72.028h-80.49a5.682 5.682 0 0 1-5.682-5.68 5.677 5.677 0 0 1 5.682-5.68h80.49a5.68 5.68 0 1 1 0 11.36zM297.041 50.531h-80.49a5.682 5.682 0 0 1-5.682-5.68 5.676 5.676 0 0 1 5.682-5.68h80.49a5.68 5.68 0 1 1 0 11.36zM298.421 111.915h-80.49a5.68 5.68 0 1 1 0-11.36h80.49a5.682 5.682 0 0 1 5.681 5.68 5.677 5.677 0 0 1-5.68 5.68z" fill="#fff"/><path d="m320.781 186.186-97.917-38.206a8.056 8.056 0 0 1-4.57-10.421l41.66-106.705a8.057 8.057 0 0 1 10.425-4.57l97.916 38.206a8.058 8.058 0 0 1 4.572 10.422l-41.66 106.704a8.06 8.06 0 0 1-10.426 4.57z" fill="#e6e6e6"/><path d="m319.841 74.038-48.517-18.931a5.207 5.207 0 0 1 3.787-9.7l48.517 18.93a5.204 5.204 0 0 1 2.958 6.743 5.206 5.206 0 0 1-6.745 2.958zM337.105 109.228l-74.98-29.257a5.682 5.682 0 0 1-3.223-7.355 5.677 5.677 0 0 1 7.354-3.228l74.981 29.257a5.692 5.692 0 0 1 3.143 3.01 5.67 5.67 0 0 1 .091 4.35 5.67 5.67 0 0 1-3.014 3.138 5.68 5.68 0 0 1-4.352.085zM329.875 127.747l-74.98-29.257a5.682 5.682 0 0 1-3.228-7.357 5.688 5.688 0 0 1 3.011-3.136 5.667 5.667 0 0 1 4.347-.09l74.982 29.257a5.684 5.684 0 0 1 3.227 7.357 5.681 5.681 0 0 1-7.359 3.226zM322.644 146.266l-74.98-29.257a5.684 5.684 0 0 1-3.224-7.355 5.684 5.684 0 0 1 7.355-3.228l74.981 29.257a5.68 5.68 0 1 1-4.132 10.583z" fill="#fff"/><path d="M350.76 113.006H237.476l-18.01-28.643a7.57 7.57 0 0 0-6.413-3.543h-27.063a7.576 7.576 0 0 0-7.576 7.573v135.37a7.56 7.56 0 0 0 2.22 5.355 7.558 7.558 0 0 0 5.356 2.218H350.76a7.568 7.568 0 0 0 7-4.675 7.56 7.56 0 0 0 .575-2.898V120.579a7.563 7.563 0 0 0-2.218-5.355 7.587 7.587 0 0 0-5.357-2.218z" fill="#00a2d5"/><path d="M103.58 148.525c12.797 0 23.171-10.374 23.171-23.171 0-12.798-10.374-23.172-23.17-23.172-12.799 0-23.173 10.374-23.173 23.172 0 12.797 10.374 23.17 23.172 23.17zM95.214 262.464a10.382 10.382 0 0 1-10.196-12.413c.068-.333.153-.662.255-.986l-34.2-40.448a8.061 8.061 0 0 1-.56-9.61l.062-.074 30.783-30.354a8.908 8.908 0 0 1 6.351-2.561 8.892 8.892 0 0 1 8.793 9.082 8.903 8.903 0 0 1-2.765 6.265L71.44 202.56l24.408 39.175c.462.024.923.08 1.377.169a10.378 10.378 0 0 1 8.3 11.19 10.383 10.383 0 0 1-10.312 9.369zM141.743 447.845h11.567l5.502-44.613h-17.07z" fill="#ffb8b8"/><path d="m138.793 444.069 22.778-.001h.001a14.507 14.507 0 0 1 10.265 4.252 14.507 14.507 0 0 1 4.251 10.264v.472h-37.294z" fill="#2f2e41"/><path d="m26.781 431.854 9.938 5.917 27.553-35.517-14.668-8.733z" fill="#ffb8b8"/><path d="m26.178 427.1 19.572 11.652a14.522 14.522 0 0 1 6.645 8.905 14.52 14.52 0 0 1-1.599 10.995l-.241.405-32.044-19.08zM156.04 432.088h-12.953a4.236 4.236 0 0 1-4.22-3.797l-13.058-122.737a1.414 1.414 0 0 0-2.078-1.097 1.416 1.416 0 0 0-.62.664l-23.555 52.158-41.703 68.003a4.266 4.266 0 0 1-5.33 1.666l-16.66-7.33a4.255 4.255 0 0 1-2.508-4.373 4.241 4.241 0 0 1 .574-1.691l38.337-64.192 11.758-54.086C80.326 271.82 96.179 236.95 96.339 236.6l.079-.17 43.667-17.068.22.268c17.22 56.514 27.714 117.332 19.966 208.568a4.278 4.278 0 0 1-4.232 3.89z" fill="#2f2e41"/><path d="m94.659 242.145-.204-.428c-.097-.204-9.807-20.683-17.292-42.571a32.288 32.288 0 0 1 2.239-25.874 32.64 32.64 0 0 1 20.812-16.004 32.676 32.676 0 0 1 37.928 19.57c5.937 14.847 4.045 30.694 2.264 43.157l-.035.25-.227.108z" fill="#004c92"/><path d="M131.675 112.264H94.881V96.226c8.076-3.208 15.978-5.937 20.755 0a16.038 16.038 0 0 1 16.04 16.038z" fill="#2f2e41"/><path d="M92.844 93.396c-21.996 0-28.153 27.57-28.153 43.125 0 8.675 3.923 11.777 10.088 12.827l2.177-11.611 5.099 12.11c1.731.009 3.55-.024 5.436-.06l1.73-3.56 3.855 3.497c15.44.023 27.92 2.274 27.92-13.203 0-15.554-5.399-43.125-28.152-43.125z" fill="#2f2e41"/><path d="M190.614 124.253a10.373 10.373 0 0 1 .351 9.276 10.366 10.366 0 0 1-6.356 5.623c-.324.1-.654.184-.988.249l-19.099 49.405a8.064 8.064 0 0 1-8.163 5.099l-.096-.018-41.397-12.462a8.898 8.898 0 1 1 5.286-16.993l29.29 9.404 22.677-40.202a9.748 9.748 0 0 1-.51-1.29 10.377 10.377 0 0 1 5.84-12.647 10.378 10.378 0 0 1 13.165 4.556z" fill="#ffb8b8"/><path d="M195.415 460.144h-192a.998.998 0 0 1-1-1 1 1 0 0 1 1-1h192a.997.997 0 0 1 1 1 .997.997 0 0 1-1 1Z" fill="#ccc"/><path d="M455.036 403.489h23.644v14.887h-38.53a14.889 14.889 0 0 1 14.886-14.887z" fill="#2f2e41"/><path d="m476.052 406.993-12.259-.001-5.833-47.288h18.095zM565.807 373.089l-9.058 8.263-36.18-31.003 13.368-12.195z" fill="#a0616a"/><path d="m547.92 384.666 17.466-15.935 10.033 10.998-28.465 25.968a14.865 14.865 0 0 1-3.002-4.973 14.882 14.882 0 0 1 3.967-16.058zM463.998 396.178a4.47 4.47 0 0 1-4.445-3.856l-10.683-73.89a42.906 42.906 0 0 1-.15-11.12l10.412-88.975 66.498 5.583-10.037 84.306 37.966 47.34a4.485 4.485 0 0 1-.555 6.209l-9.559 8.325a4.493 4.493 0 0 1-6.376-.47l-35.975-42.097a56.55 56.55 0 0 1-11.719-22.562l-5.136-20.03a1.496 1.496 0 0 0-2.297-.866 1.496 1.496 0 0 0-.573.749l-6.793 19.623 4.298 86.432a4.51 4.51 0 0 1-4.245 4.716l-10.372.576a4.527 4.527 0 0 1-.259.007z" fill="#2f2e41"/><path d="M500.95 98.106c13.565 0 24.561-10.997 24.561-24.562 0-13.564-10.996-24.56-24.56-24.56-13.566 0-24.562 10.996-24.562 24.56 0 13.565 10.996 24.562 24.561 24.562zM358.292 102.1a10.052 10.052 0 0 0 6.393 5.615 10.054 10.054 0 0 0 8.41-1.296l32.203 19.51-2.503-16.5-27.258-17.615a10.111 10.111 0 0 0-13.19-2.516 10.107 10.107 0 0 0-4.054 12.802z" fill="#a0616a"/><path d="M499.81 235.32c-13.046 0-26.62-4.046-40.349-12.03a4.993 4.993 0 0 1-2.17-6.064l12.768-34.407-2.904-40.541c-.988-13.79 5.887-26.88 17.515-33.35a31.605 31.605 0 0 1 27.561-1.631 33.976 33.976 0 0 1 19.576 22.31l4.1 14.26a87.5 87.5 0 0 1-1.638 53.103l-11.875 33.34-.309.185c-.08.049-8.229 4.824-22.276 4.825z" fill="#ccc"/><path d="M375.34 113.546a4.99 4.99 0 0 1 .054-5.613l6.223-8.99a5.01 5.01 0 0 1 6.417-1.588l46.151 24 50.921-5.104a14.233 14.233 0 0 1 14.853 9.68 14.143 14.143 0 0 1-13.299 18.533l-47.485.482a29.212 29.212 0 0 1-14.31-3.59L377.1 115.164a5.017 5.017 0 0 1-1.76-1.617z" fill="#ccc"/><path d="M522.116 257.302a10.063 10.063 0 0 0 3.83-7.598 10.058 10.058 0 0 0-3.368-7.814l11.994-33.015-16.539 3.51-10.205 30.809a10.113 10.113 0 0 0 7.448 16.302 10.11 10.11 0 0 0 6.84-2.194z" fill="#a0616a"/><path d="M526.518 238.1a4.961 4.961 0 0 1-1.718-.305l-10.263-3.767a5.01 5.01 0 0 1-3.151-5.812l11.641-50.7-17.73-48.006a14.23 14.23 0 0 1 5.64-16.808 14.148 14.148 0 0 1 12.722-1.284 14.143 14.143 0 0 1 8.557 9.503l12.392 45.84a29.203 29.203 0 0 1 .12 14.753l-13.358 52.813a4.992 4.992 0 0 1-1.776 2.719 4.99 4.99 0 0 1-3.072 1.054z" fill="#ccc"/><path d="M502.572 90.875c1.245-5.168 1.861-8.07 3.095-13.24.826-3.464-1.667-7.01-4.796-8.628-3.128-1.618-6.755-1.804-10.25-2.147-3.495-.342-7.162-.953-9.886-3.202-3.658-3.018-4.703-8.641-2.905-13.063a14.853 14.853 0 0 1 10.676-8.537 21.203 21.203 0 0 1 13.727 2.113c1.65-3.873 6.426-5.557 10.531-4.882 4.104.676 7.67 3.168 11.005 5.686 6.204 4.684 12.57 10.362 13.947 18.083 1.33 7.456-2.453 14.98-7.51 20.554a45.484 45.484 0 0 1-26.284 14.263 9.306 9.306 0 0 1-1.35-7z" fill="#000"/><path d="M596.996 419.464h-192a1 1 0 1 1 0-2h192a1 1 0 1 1 0 2z" fill="#ccc"/></g></svg>