<?xml version="1.0" standalone="no"?>
<!DOCTYPE svg PUBLIC "-//W3C//DTD SVG 20010904//EN"
 "http://www.w3.org/TR/2001/REC-SVG-20010904/DTD/svg10.dtd">
<svg version="1.0" xmlns="http://www.w3.org/2000/svg"
 width="1024.000000pt" height="1024.000000pt" viewBox="0 0 1024.000000 1024.000000"
 preserveAspectRatio="xMidYMid meet">
<metadata>
Created by potrace 1.11, written by Peter Selinger 2001-2013
</metadata>
<g transform="translate(0.000000,1024.000000) scale(0.100000,-0.100000)"
fill="#000000" stroke="none">
<path d="M1755 10230 c-712 -50 -1338 -504 -1611 -1170 -54 -132 -106 -330
-126 -475 -19 -148 -19 -6782 0 -6929 117 -862 776 -1521 1638 -1638 81 -11
708 -13 3474 -13 3769 0 3447 -6 3722 69 651 179 1155 693 1322 1349 65 252
61 13 61 3697 0 3678 4 3443 -60 3695 -83 331 -247 618 -494 866 -291 290
-624 460 -1053 536 -85 15 -366 17 -3428 18 -1834 1 -3384 -1 -3445 -5z m5727
-832 c-32 -40 -234 -291 -448 -558 -215 -267 -611 -760 -882 -1097 l-492 -612
0 -1116 c0 -613 -3 -1115 -6 -1115 -3 0 -246 162 -540 361 l-534 361 0 754 0
755 -757 942 c-416 518 -839 1044 -940 1170 l-184 227 2421 0 2421 0 -59 -72z
m-2354 -4423 l532 -359 1 -756 0 -755 938 -1165 938 -1165 -1208 -3 c-665 -1
-1753 -1 -2417 0 l-1209 3 744 925 c409 509 832 1034 939 1167 l194 241 0
1117 c0 614 4 1115 8 1113 5 -1 248 -165 540 -363z"/>
</g>
</svg>
