<?xml version="1.0" encoding="UTF-8"?><svg id="Layer_2" xmlns="http://www.w3.org/2000/svg" viewBox="0 0 82.22 44.64"><defs><style>.cls-1{fill:#fff;}.cls-2{fill:#0071eb;}.cls-3{fill:#022e3d;}.cls-4{fill:#181817;}</style></defs><g id="Laag_1"><g><g><path class="cls-3" d="M43.88,23.97V10.64h4.79c1.07,0,1.92,.19,2.54,.58s1.06,.89,1.33,1.49c.26,.61,.4,1.24,.4,1.9,0,.46-.08,.92-.23,1.38-.15,.46-.4,.89-.74,1.28s-.78,.7-1.32,.94c-.54,.24-1.2,.36-1.98,.36h-3.46v5.4h-1.33Zm1.33-6.66h3.53c.71,0,1.28-.14,1.7-.41s.72-.62,.89-1.04c.18-.41,.27-.83,.27-1.25s-.08-.82-.24-1.24c-.16-.42-.45-.77-.87-1.05-.42-.28-1-.42-1.75-.42h-3.53v5.42Z"/><path class="cls-3" d="M45.46,24.22h-1.84V10.38h5.04c1.12,0,2.02,.21,2.68,.62,.66,.41,1.14,.95,1.42,1.61,.28,.64,.42,1.31,.42,2,0,.48-.08,.97-.24,1.46-.16,.49-.43,.95-.79,1.37-.36,.42-.84,.76-1.41,1.01-.57,.25-1.27,.38-2.08,.38h-3.2v5.4Zm-1.33-.51h.83v-5.4h3.71c.74,0,1.37-.11,1.88-.34,.5-.22,.91-.52,1.23-.88,.32-.36,.55-.76,.69-1.19,.14-.44,.22-.88,.22-1.3,0-.62-.13-1.22-.37-1.8-.24-.56-.66-1.02-1.23-1.38-.58-.36-1.39-.54-2.41-.54h-4.54v12.82Zm4.61-6.15h-3.79v-5.93h3.79c.8,0,1.43,.16,1.89,.47,.46,.31,.78,.71,.96,1.17,.17,.45,.26,.89,.26,1.33s-.1,.9-.29,1.35c-.19,.46-.53,.85-.99,1.15-.46,.3-1.08,.45-1.84,.45Zm-3.28-.51h3.28c.66,0,1.18-.12,1.56-.37,.37-.25,.64-.56,.8-.93,.16-.38,.25-.77,.25-1.15s-.08-.76-.22-1.15c-.14-.37-.4-.68-.77-.93-.37-.25-.91-.38-1.61-.38h-3.28v4.91Z"/></g><g><path class="cls-3" d="M57.93,24.2c-1.28,0-2.29-.45-3.04-1.37s-1.11-2.15-1.11-3.72c0-1.05,.17-1.95,.5-2.71,.34-.76,.82-1.35,1.44-1.77,.62-.42,1.36-.62,2.21-.62s1.6,.2,2.22,.61,1.1,.99,1.43,1.76c.33,.76,.5,1.67,.5,2.71s-.17,1.95-.5,2.72c-.34,.77-.82,1.35-1.44,1.77-.62,.41-1.36,.62-2.21,.62Zm0-1.26c.88,0,1.56-.34,2.05-1.02,.49-.68,.74-1.62,.74-2.83s-.25-2.15-.74-2.83-1.18-1.01-2.05-1.01-1.58,.34-2.06,1c-.49,.67-.73,1.62-.73,2.85s.24,2.15,.73,2.82c.49,.67,1.17,1,2.06,1Z"/><path class="cls-3" d="M57.93,24.45c-1.36,0-2.44-.49-3.23-1.46-.78-.95-1.17-2.26-1.17-3.88,0-1.08,.18-2.02,.53-2.82,.36-.8,.87-1.43,1.53-1.88s1.45-.67,2.35-.67,1.7,.22,2.36,.66c.66,.43,1.18,1.06,1.53,1.87,.35,.79,.52,1.74,.52,2.81s-.18,2.03-.53,2.82c-.36,.81-.87,1.44-1.53,1.88-.66,.44-1.45,.66-2.35,.66Zm0-10.19c-.8,0-1.49,.2-2.07,.58-.58,.39-1.03,.95-1.35,1.66-.32,.73-.48,1.61-.48,2.61,0,1.5,.36,2.7,1.06,3.56,.7,.86,1.63,1.27,2.84,1.27,.8,0,1.49-.19,2.07-.58,.58-.38,1.03-.94,1.35-1.66,.32-.73,.48-1.61,.48-2.62s-.16-1.89-.48-2.61c-.31-.71-.76-1.27-1.34-1.65-.58-.38-1.28-.57-2.08-.57Zm0,8.93c-.96,0-1.73-.37-2.26-1.11-.52-.71-.78-1.71-.78-2.97s.26-2.29,.78-3c.54-.74,1.3-1.11,2.27-1.11s1.72,.37,2.26,1.11c.52,.72,.79,1.72,.79,2.98s-.26,2.26-.79,2.98c-.54,.75-1.3,1.12-2.26,1.12Zm0-7.68c-.81,0-1.42,.29-1.86,.9-.45,.62-.68,1.53-.68,2.7s.23,2.05,.68,2.67c.44,.61,1.05,.9,1.85,.9s1.4-.3,1.85-.91c.46-.63,.69-1.53,.69-2.68s-.23-2.05-.69-2.68c-.45-.61-1.05-.91-1.85-.91Z"/></g><g><path class="cls-3" d="M66.57,24.2c-.65,0-1.27-.14-1.87-.42-.6-.28-1.1-.67-1.5-1.16l.97-.83c.35,.38,.74,.68,1.16,.88,.42,.21,.84,.31,1.26,.31,.62,0,1.1-.13,1.44-.38,.34-.25,.51-.61,.51-1.07,0-.29-.08-.55-.23-.78-.16-.23-.41-.45-.76-.66-.35-.21-.81-.42-1.38-.63-1.03-.38-1.77-.8-2.22-1.25-.45-.45-.68-1.02-.68-1.69,0-.75,.29-1.36,.87-1.82s1.34-.7,2.27-.7c.62,0,1.19,.12,1.73,.36s1,.58,1.38,1.02l-.93,.78c-.62-.63-1.36-.95-2.2-.95-.55,0-.99,.12-1.31,.35-.32,.23-.48,.55-.48,.96,0,.38,.16,.7,.49,.97,.33,.27,.93,.57,1.81,.89,.71,.27,1.28,.55,1.71,.84s.74,.63,.94,1c.19,.38,.29,.81,.29,1.3,0,.83-.29,1.49-.88,1.96-.58,.48-1.39,.71-2.41,.71Z"/><path class="cls-3" d="M66.57,24.45c-.69,0-1.35-.15-1.98-.44-.62-.29-1.16-.71-1.59-1.23l-.16-.19,1.35-1.15,.16,.18c.33,.36,.69,.63,1.09,.83,.39,.19,.77,.29,1.15,.29,.56,0,1-.11,1.29-.33,.27-.2,.4-.49,.4-.86,0-.24-.06-.45-.19-.64-.13-.2-.36-.4-.67-.58-.33-.2-.79-.4-1.34-.61-1.08-.4-1.83-.83-2.31-1.31-.5-.5-.75-1.13-.75-1.87,0-.83,.33-1.51,.97-2.02,.63-.5,1.44-.75,2.43-.75,.65,0,1.26,.13,1.84,.38,.57,.25,1.06,.62,1.47,1.09l.17,.2-1.31,1.1-.16-.17c-.58-.59-1.24-.88-2.02-.88-.49,0-.88,.1-1.16,.3-.25,.18-.37,.43-.37,.75,0,.3,.13,.55,.4,.77,.31,.25,.89,.54,1.74,.85,.73,.27,1.32,.57,1.77,.87,.47,.32,.81,.69,1.02,1.1,.21,.41,.32,.89,.32,1.41,0,.91-.33,1.63-.97,2.16-.63,.51-1.49,.77-2.57,.77Zm-3.01-1.81c.35,.38,.77,.68,1.25,.9,.56,.26,1.15,.4,1.76,.4,.96,0,1.71-.22,2.25-.66,.53-.43,.78-1.01,.78-1.76,0-.44-.09-.84-.26-1.18-.17-.33-.46-.64-.85-.91-.42-.28-.97-.56-1.66-.82-.91-.34-1.52-.64-1.88-.93-.39-.32-.59-.71-.59-1.16,0-.49,.2-.88,.59-1.16,.37-.26,.86-.4,1.46-.4,.84,0,1.58,.29,2.21,.87l.55-.46c-.32-.32-.69-.58-1.12-.77-.51-.22-1.06-.34-1.63-.34-.87,0-1.58,.22-2.11,.64-.52,.42-.78,.95-.78,1.62,0,.61,.2,1.11,.6,1.51,.42,.42,1.13,.83,2.13,1.19,.58,.22,1.06,.44,1.42,.65,.38,.23,.66,.47,.84,.74,.18,.28,.28,.59,.28,.92,0,.54-.2,.97-.61,1.27-.38,.29-.92,.43-1.6,.43-.45,0-.91-.12-1.37-.34-.38-.19-.74-.44-1.07-.76l-.6,.51Z"/></g><g><path class="cls-3" d="M74.13,24.2c-.64,0-1.13-.2-1.46-.59-.33-.39-.5-.96-.5-1.7v-6.5h-1.61v-1.17h1.61v-3.37l1.33-.65v4.02h2.42v1.17h-2.42v6.1c0,.51,.08,.87,.25,1.1,.17,.23,.44,.34,.81,.34,.46,0,.94-.16,1.44-.49l-.15,1.31c-.25,.15-.53,.25-.82,.32-.29,.07-.59,.1-.91,.1Z"/><path class="cls-3" d="M74.13,24.45c-.72,0-1.27-.23-1.65-.67-.37-.44-.56-1.06-.56-1.86v-6.25h-1.61v-1.68h1.61v-3.27l1.84-.9v4.17h2.42v1.68h-2.42v5.85c0,.56,.11,.82,.2,.95,.12,.16,.32,.24,.61,.24,.4,0,.84-.15,1.3-.45l.45-.3-.23,1.98-.11,.06c-.27,.16-.57,.27-.89,.35-.31,.07-.63,.11-.96,.11Zm-3.32-9.3h1.61v6.76c0,.68,.15,1.19,.44,1.54,.29,.33,.7,.5,1.27,.5,.29,0,.58-.03,.85-.1,.23-.05,.44-.13,.64-.24l.08-.69c-.87,.42-1.76,.37-2.15-.16-.2-.27-.3-.68-.3-1.25v-6.36h2.42v-.66h-2.42v-3.87l-.83,.4v3.47h-1.61v.66Z"/></g><g><path class="cls-3" d="M42.61,40.61c-.98,0-1.82-.19-2.52-.58-.7-.38-1.27-.9-1.7-1.56-.44-.66-.76-1.4-.97-2.22-.21-.82-.31-1.67-.31-2.54s.11-1.72,.33-2.55c.22-.82,.55-1.56,1-2.21,.45-.65,1.02-1.17,1.71-1.56,.69-.38,1.51-.58,2.47-.58,.76,0,1.4,.1,1.92,.31,.52,.21,.95,.48,1.3,.81,.35,.33,.64,.68,.87,1.04l-1.19,.7c-.3-.43-.67-.81-1.11-1.13-.44-.32-1.04-.48-1.79-.48s-1.42,.17-1.94,.5c-.53,.34-.95,.78-1.27,1.34s-.55,1.16-.69,1.82c-.14,.66-.21,1.31-.21,1.96,0,.72,.08,1.42,.24,2.1,.16,.67,.41,1.27,.74,1.8,.33,.53,.76,.94,1.28,1.25,.52,.31,1.14,.46,1.86,.46,.64,0,1.2-.14,1.67-.43,.47-.29,.84-.7,1.1-1.23,.26-.54,.39-1.18,.39-1.94v-.43h-2.54v-1.23h3.94v1.28c0,1.18-.2,2.16-.6,2.94-.4,.78-.94,1.36-1.63,1.75-.69,.39-1.47,.58-2.33,.58Z"/><path class="cls-3" d="M42.61,40.86c-1.02,0-1.91-.2-2.65-.61-.73-.4-1.34-.96-1.79-1.64-.45-.68-.79-1.45-1-2.3-.21-.84-.32-1.71-.32-2.6s.11-1.77,.34-2.61c.23-.85,.57-1.62,1.04-2.29,.47-.69,1.08-1.24,1.8-1.64,.73-.4,1.6-.61,2.59-.61,.8,0,1.46,.11,2.02,.33,.55,.22,1.01,.51,1.38,.87,.36,.35,.67,.72,.91,1.09l.14,.22-1.62,.96-.13-.2c-.28-.4-.63-.76-1.05-1.07-.4-.29-.95-.43-1.64-.43s-1.32,.16-1.81,.47c-.49,.31-.89,.73-1.18,1.25-.3,.53-.53,1.12-.66,1.75-.14,.64-.21,1.28-.21,1.91,0,.7,.08,1.39,.23,2.04,.15,.64,.39,1.22,.7,1.72,.31,.49,.71,.88,1.19,1.17,.48,.28,1.06,.43,1.73,.43,.6,0,1.1-.13,1.54-.39,.43-.26,.77-.64,1-1.13,.24-.5,.37-1.12,.37-1.83v-.17h-2.54v-1.74h4.45v1.53c0,1.22-.21,2.25-.63,3.06-.42,.82-1.01,1.44-1.73,1.85-.73,.41-1.55,.61-2.45,.61Zm0-13.79c-.9,0-1.69,.18-2.34,.54-.65,.36-1.2,.86-1.62,1.48-.43,.63-.75,1.34-.96,2.13-.21,.8-.32,1.64-.32,2.48s.1,1.68,.3,2.48c.2,.79,.51,1.51,.93,2.14,.41,.62,.95,1.12,1.62,1.48,.66,.36,1.46,.54,2.4,.54,.81,0,1.56-.18,2.21-.55,.64-.36,1.15-.91,1.53-1.64,.38-.74,.57-1.69,.57-2.82v-1.02h-3.43v.72h2.54v.68c0,.79-.14,1.48-.42,2.05-.28,.58-.68,1.03-1.2,1.34-.51,.31-1.12,.47-1.8,.47-.77,0-1.44-.17-1.99-.5-.55-.33-1.01-.78-1.36-1.33-.35-.55-.61-1.18-.77-1.88-.16-.69-.24-1.41-.24-2.15,0-.66,.07-1.34,.22-2.02,.15-.68,.39-1.32,.72-1.9,.34-.59,.79-1.07,1.35-1.43,.57-.36,1.27-.54,2.08-.54s1.45,.18,1.94,.53c.4,.29,.75,.62,1.03,1l.76-.45c-.19-.27-.42-.53-.69-.78-.32-.31-.73-.57-1.22-.76-.49-.2-1.1-.3-1.83-.3Z"/></g><g><path class="cls-3" d="M52.88,40.61c-1.15,0-2-.35-2.57-1.05s-.84-1.76-.84-3.19v-5.72h1.33v5.94c0,.92,.19,1.61,.57,2.08,.38,.47,.93,.7,1.66,.7,.81,0,1.41-.25,1.82-.74,.41-.49,.61-1.21,.61-2.17v-5.82h1.33v9.73h-1.33v-1.17c-.29,.47-.65,.82-1.08,1.05-.43,.23-.93,.35-1.51,.35Z"/><path class="cls-3" d="M52.88,40.86c-1.22,0-2.15-.38-2.77-1.14-.6-.74-.9-1.87-.9-3.35v-5.98h1.84v6.2c0,.85,.17,1.49,.51,1.92,.33,.41,.81,.61,1.46,.61,.73,0,1.27-.21,1.63-.65,.37-.44,.56-1.12,.56-2v-6.07h1.84v10.24h-1.84v-.69c-.21,.22-.45,.4-.71,.54-.46,.25-1.01,.38-1.63,.38Zm-3.16-9.96v5.47c0,1.36,.26,2.38,.79,3.03,.52,.64,1.29,.95,2.37,.95,.53,0,1-.11,1.39-.32,.38-.21,.72-.53,.99-.96l.47-.75v1.8h.83v-9.22h-.83v5.56c0,1.01-.23,1.79-.67,2.33-.46,.55-1.13,.83-2.02,.83-.8,0-1.42-.27-1.85-.8-.42-.51-.63-1.27-.63-2.24v-5.69h-.83Z"/></g><g><path class="cls-3" d="M62.14,40.61c-1.03,0-1.83-.29-2.42-.86-.58-.57-.88-1.37-.88-2.38,0-.65,.14-1.21,.43-1.69,.29-.48,.7-.84,1.23-1.1,.53-.26,1.16-.38,1.88-.38,.48,0,.93,.06,1.37,.18,.43,.12,.85,.3,1.26,.54v-.93c0-.82-.18-1.43-.54-1.82-.36-.39-.92-.58-1.67-.58-.45,0-.93,.08-1.43,.25-.5,.17-.98,.41-1.43,.71l-.39-1.12c.51-.32,1.07-.57,1.67-.75,.6-.17,1.18-.26,1.75-.26,1.09,0,1.92,.29,2.48,.86,.56,.57,.84,1.41,.84,2.52v6.58h-1.27v-1.1c-.39,.43-.83,.75-1.33,.99-.5,.23-1.01,.35-1.55,.35Zm.17-1.17c.49,0,.96-.13,1.43-.39,.46-.26,.89-.63,1.28-1.11v-1.82c-.37-.24-.78-.43-1.21-.56-.43-.13-.85-.2-1.26-.2-.73,0-1.31,.18-1.75,.55-.43,.37-.65,.85-.65,1.46s.19,1.13,.58,1.5c.39,.37,.92,.56,1.59,.56Z"/><path class="cls-3" d="M62.14,40.86c-1.09,0-1.97-.31-2.6-.93-.63-.62-.95-1.48-.95-2.56,0-.69,.16-1.3,.47-1.82s.76-.92,1.34-1.2c.56-.27,1.23-.41,1.99-.41,.49,0,.98,.06,1.43,.19,.32,.09,.63,.21,.94,.36v-.51c0-.76-.16-1.31-.47-1.65-.31-.33-.81-.5-1.49-.5-.42,0-.87,.08-1.35,.24-.48,.16-.94,.39-1.37,.68l-.27,.19-.56-1.63,.17-.11c.53-.34,1.11-.6,1.73-.78,.62-.18,1.23-.27,1.82-.27,1.16,0,2.05,.31,2.66,.93,.6,.62,.91,1.53,.91,2.7v6.83h-1.78v-.76c-.3,.25-.62,.46-.97,.62-.53,.25-1.09,.37-1.65,.37Zm.25-6.41c-.68,0-1.28,.12-1.77,.36-.49,.24-.86,.57-1.12,1-.26,.43-.39,.96-.39,1.55,0,.93,.27,1.67,.8,2.2,.54,.53,1.27,.79,2.24,.79,.5,0,.98-.11,1.44-.32,.46-.22,.88-.53,1.25-.93l.44-.49v1.51h.76v-6.33c0-1.04-.26-1.83-.77-2.35-.51-.52-1.28-.78-2.29-.78-.54,0-1.11,.08-1.68,.25-.51,.15-.99,.35-1.43,.61l.22,.63c.38-.23,.8-.42,1.22-.56,.53-.18,1.04-.26,1.51-.26,.82,0,1.45,.22,1.86,.66,.4,.43,.61,1.11,.61,1.99v1.38l-.38-.23c-.39-.23-.79-.4-1.2-.52-.41-.11-.85-.17-1.3-.17Zm-.08,5.24c-.74,0-1.33-.21-1.77-.63-.44-.42-.66-.98-.66-1.68s.25-1.24,.74-1.66c.74-.62,1.93-.79,3.24-.4,.46,.14,.89,.34,1.28,.59l.12,.08v2.05l-.06,.07c-.41,.51-.86,.9-1.35,1.17-.5,.28-1.02,.42-1.55,.42Zm.23-4.07c-.66,0-1.2,.16-1.58,.49-.38,.32-.56,.73-.56,1.27,0,.56,.16,.99,.5,1.32,.34,.33,.8,.49,1.41,.49,.44,0,.88-.12,1.31-.35,.41-.23,.79-.56,1.14-.98v-1.59c-.32-.19-.67-.35-1.03-.46-.41-.12-.81-.18-1.19-.18Z"/></g><g><path class="cls-3" d="M68.72,40.38v-9.73h1.33v1.54c.24-.57,.58-1.01,1-1.31,.43-.31,.93-.46,1.49-.46s1.06,.16,1.43,.47l-.2,1.27c-.19-.13-.4-.23-.62-.29-.23-.06-.47-.1-.73-.1-.47,0-.88,.13-1.24,.4s-.63,.64-.83,1.11c-.2,.47-.3,1.02-.3,1.65v5.46h-1.33Z"/><path class="cls-3" d="M70.31,40.63h-1.84v-10.24h1.84v.86c.18-.23,.38-.42,.6-.58,.47-.33,1.02-.5,1.64-.5s1.18,.18,1.59,.53l.11,.09-.29,1.81-.33-.23c-.16-.12-.35-.2-.55-.26-.2-.06-.42-.09-.66-.09-.42,0-.77,.11-1.09,.35s-.57,.58-.75,1.01c-.19,.44-.28,.96-.28,1.55v5.71Zm-1.33-.51h.83v-5.2c0-.66,.11-1.24,.32-1.75,.22-.51,.53-.92,.91-1.22,.4-.3,.87-.45,1.39-.45,.29,0,.55,.04,.8,.11,.12,.03,.25,.08,.36,.13l.12-.75c-.31-.22-.68-.32-1.15-.32-.51,0-.96,.14-1.35,.41-.38,.27-.69,.68-.92,1.21l-.49,1.15v-2.54h-.83v9.22Z"/></g><g><path class="cls-3" d="M78.02,40.61c-1.21,0-2.16-.46-2.86-1.38-.7-.92-1.05-2.16-1.05-3.73,0-1.05,.16-1.96,.48-2.72,.32-.76,.77-1.34,1.37-1.75,.59-.41,1.3-.61,2.12-.61,1.01,0,1.86,.39,2.56,1.16v-4.31l1.33-.64v13.75h-1.33v-.97c-.68,.8-1.55,1.2-2.61,1.2Zm.2-1.26c.48,0,.93-.14,1.36-.41,.43-.28,.78-.65,1.05-1.13v-4.67c-.29-.46-.64-.82-1.07-1.08-.43-.26-.87-.4-1.34-.4-.88,0-1.55,.33-2.03,.99-.48,.66-.72,1.61-.72,2.84,0,.76,.12,1.42,.35,2,.23,.58,.56,1.03,.97,1.36,.41,.33,.89,.49,1.43,.49Z"/><path class="cls-3" d="M78.02,40.86c-1.28,0-2.32-.5-3.07-1.47-.73-.96-1.1-2.27-1.1-3.88,0-1.08,.17-2.03,.5-2.82,.34-.8,.83-1.43,1.46-1.86,.63-.44,1.39-.66,2.26-.66s1.65,.28,2.31,.82v-3.88l1.84-.88v14.41h-1.84v-.61c-.65,.56-1.44,.84-2.36,.84Zm.05-10.19c-.76,0-1.43,.19-1.97,.57-.55,.38-.98,.93-1.28,1.64-.3,.73-.46,1.61-.46,2.62,0,1.5,.34,2.71,1,3.58,.66,.86,1.53,1.27,2.66,1.27,.99,0,1.78-.36,2.42-1.11l.45-.53v1.41h.83v-13.09l-.83,.39v4.82l-.44-.49c-.65-.73-1.43-1.08-2.37-1.08Zm.15,8.93c-.6,0-1.13-.18-1.59-.55-.44-.35-.8-.84-1.05-1.46-.25-.61-.37-1.32-.37-2.1,0-1.28,.26-2.29,.77-2.99,.53-.73,1.28-1.1,2.24-1.1,.51,0,1.01,.15,1.47,.43,.46,.28,.85,.67,1.15,1.16l.04,.06v4.81l-.03,.06c-.29,.51-.67,.92-1.13,1.22-.47,.3-.98,.45-1.5,.45Zm0-7.68c-.8,0-1.39,.29-1.83,.89-.44,.62-.67,1.52-.67,2.69,0,.72,.11,1.36,.34,1.9,.22,.54,.52,.96,.89,1.25,.7,.55,1.66,.6,2.5,.06,.38-.24,.69-.57,.93-.98v-4.53c-.26-.39-.58-.71-.95-.94-.38-.24-.79-.36-1.21-.36Z"/></g><g><g><path class="cls-2" d="M34.83,23.52c.06-.16,.1-.33,.16-.5,2.06-7.1,2.71-13.24,2.71-13.24h0c-4.01-1.9-14.74-7.4-18.56-9.21C14.19,3.13,5.59,7.2,.57,9.78h0s3.3,31.12,18.56,34.29h0c7.5-1.56,12.1-9.86,14.86-17.89"/><path class="cls-4" d="M19.13,44.64c-.05,0-.11,0-.16-.02C3.51,41.35,.14,11.13,0,9.84c-.02-.23,.1-.46,.31-.57,2.46-1.27,5.83-2.91,9.09-4.51C12.82,3.09,16.35,1.37,18.87,.06c.16-.08,.34-.08,.5,0,1.88,.89,5.35,2.63,9.02,4.48,3.69,1.85,7.5,3.77,9.54,4.73,.27,.08,.36,.3,.33,.58,0,.06-.68,6.27-2.73,13.34l-.07,.23c-.03,.1-.06,.21-.1,.3-.11,.3-.43,.45-.73,.34-.3-.11-.45-.43-.34-.73,.03-.08,.05-.16,.08-.25l.08-.24c1.72-5.94,2.46-11.27,2.64-12.72-2.2-1.05-5.76-2.83-9.2-4.56-3.5-1.76-6.82-3.43-8.74-4.35-2.52,1.3-5.94,2.97-9.26,4.59-3.1,1.51-6.29,3.08-8.7,4.31,.46,3.67,4.24,30.39,17.95,33.38,5.97-1.3,10.78-7.19,14.31-17.5,.1-.3,.42-.46,.72-.35,.3,.1,.46,.43,.35,.72-3.7,10.78-8.84,16.93-15.28,18.27-.04,0-.08,.01-.12,.01Z"/></g><path class="cls-1" d="M7.09,31.83l20.68,2.01s-.83,5.21-1.51,5.86-5.28,4.3-7.17,4.13c-1.89-.17-10.86-5.58-11.99-12Z"/><path class="cls-4" d="M19.13,44.64c-.05,0-.11,0-.16-.02C3.51,41.35,.14,11.13,0,9.84c-.02-.23,.1-.46,.31-.57,2.46-1.27,5.83-2.91,9.09-4.51C12.82,3.09,16.35,1.37,18.87,.06c.16-.08,.34-.08,.5,0,1.88,.89,5.35,2.63,9.02,4.48,3.69,1.85,7.5,3.77,9.54,4.73,.27,.08,.36,.3,.33,.58,0,.06-.68,6.27-2.73,13.34l-.07,.23c-.03,.1-.06,.21-.1,.3-.11,.3-.43,.45-.73,.34-.3-.11-.45-.43-.34-.73,.03-.08,.05-.16,.08-.25l.08-.24c1.72-5.94,2.46-11.27,2.64-12.72-2.2-1.05-5.76-2.83-9.2-4.56-3.5-1.76-6.82-3.43-8.74-4.35-2.52,1.3-5.94,2.97-9.26,4.59-3.1,1.51-6.29,3.08-8.7,4.31,.46,3.67,4.24,30.39,17.95,33.38,5.97-1.3,10.78-7.19,14.31-17.5,.1-.3,.42-.46,.72-.35,.3,.1,.46,.43,.35,.72-3.7,10.78-8.84,16.93-15.28,18.27-.04,0-.08,.01-.12,.01Z"/><polygon class="cls-1" points="29.41 20.7 35.54 23.26 36.41 25.19 28.26 27.54 29.41 20.7"/><path class="cls-1" d="M19.13,43.14c-.05,0-.11,0-.16-.02C4.42,40.04,1.25,11.61,1.12,10.4c-.02-.23,.1-.46,.31-.57,2.31-1.19,5.48-2.74,8.55-4.24,3.21-1.57,6.53-3.19,8.89-4.41,.16-.08,.34-.09,.5,0,1.77,.84,5.03,2.48,8.48,4.21,3.46,1.74,7.05,3.54,8.96,4.45,.25,.08,.36,.31,.33,.58,0,.06-.64,5.89-2.57,12.54l-.07,.22c-.03,.1-.06,.19-.09,.29-.1,.3-.43,.46-.73,.34-.3-.1-.45-.43-.34-.73,.03-.08,.05-.15,.07-.23l.07-.23c1.61-5.54,2.3-10.52,2.47-11.93-2.06-.98-5.39-2.66-8.62-4.28-3.28-1.65-6.4-3.21-8.2-4.08-2.36,1.22-5.57,2.79-8.68,4.31-2.9,1.42-5.9,2.88-8.16,4.04,.44,3.53,4.01,28.51,16.83,31.32,5.59-1.23,10.1-6.75,13.42-16.42,.1-.3,.43-.46,.72-.35,.3,.1,.46,.43,.35,.72-3.48,10.14-8.32,15.93-14.38,17.19-.04,0-.08,.01-.12,.01Z"/><path class="cls-3" d="M19.13,44.64c-.05,0-.11,0-.16-.02C3.51,41.35,.14,11.13,0,9.84c-.02-.23,.1-.46,.31-.57,2.46-1.27,5.83-2.91,9.09-4.51C12.82,3.09,16.35,1.37,18.87,.06c.16-.08,.34-.08,.5,0,1.88,.89,5.35,2.63,9.02,4.48,3.69,1.85,7.5,3.77,9.54,4.73,.27,.08,.36,.3,.33,.58,0,.06-.68,6.27-2.73,13.34l-.07,.23c-.03,.1-.06,.21-.1,.3-.11,.3-.43,.45-.73,.34-.3-.11-.45-.43-.34-.73,.03-.08,.05-.16,.08-.25l.08-.24c1.72-5.94,2.46-11.27,2.64-12.72-2.2-1.05-5.76-2.83-9.2-4.56-3.5-1.76-6.82-3.43-8.74-4.35-2.52,1.3-5.94,2.97-9.26,4.59-3.1,1.51-6.29,3.08-8.7,4.31,.46,3.67,4.24,30.39,17.95,33.38,5.97-1.3,10.78-7.19,14.31-17.5,.1-.3,.42-.46,.72-.35,.3,.1,.46,.43,.35,.72-3.7,10.78-8.84,16.93-15.28,18.27-.04,0-.08,.01-.12,.01Z"/><path class="cls-3" d="M29.19,28.53c-.23,0-.45-.14-.53-.37-.11-.29,.04-.62,.33-.73l6.94-2.58c.05-.02,.08-.06,.08-.12s-.02-.1-.08-.12l-6.4-2.75c-.29-.12-.42-.46-.3-.75,.12-.29,.46-.43,.75-.3l6.4,2.75c.48,.2,.78,.67,.76,1.19-.01,.52-.34,.97-.82,1.15l-6.94,2.58c-.07,.02-.13,.04-.2,.04Z"/><g><path class="cls-1" d="M28,34.11l.2-1.6,.57-4.55,.89-7.04c.06-.43,.08-.85,.08-1.27,0-5.02-3.75-9.4-8.87-10.04-5.54-.71-10.61,3.23-11.31,8.78l-1.06,8.33,.02-.16s-.38,3.11-1.44,6.05"/><path class="cls-3" d="M28.57,34.18l-1.13-.14,1.67-13.18c.05-.39,.08-.78,.08-1.2,0-4.81-3.6-8.88-8.37-9.48-5.22-.66-10.01,3.05-10.68,8.28l-1.04,8.17h0c-.02,.13-.4,3.21-1.47,6.17l-1.07-.39c.9-2.47,1.3-5.11,1.39-5.77h0s1.06-8.33,1.06-8.33c.75-5.86,6.1-10.01,11.95-9.27,5.34,.66,9.36,5.22,9.36,10.61,0,.47-.03,.91-.08,1.35l-1.67,13.18Z"/></g><path class="cls-3" d="M22.62,19.93c.49-1.33,2.45-1.26,2.89,.09,.13,.39,.19,.8,.16,1.24-.04,.49-.2,.94-.42,1.33-.74,1.34-2.77,.96-2.91-.57-.02-.24-.02-.49,0-.77,.04-.5,.14-.94,.28-1.32Z"/><path class="cls-3" d="M24.96,41.74c-.14,0-.28-.05-.38-.15-.23-.21-.25-.57-.03-.8,2.44-2.66,2.96-7.29,2.97-7.34,.03-.31,.31-.54,.63-.51,.31,.03,.54,.31,.51,.63-.02,.2-.56,5.05-3.26,7.99-.11,.12-.27,.18-.42,.18Z"/><path class="cls-3" d="M21.05,18.4c-.12,0-.24-.04-.34-.11-.25-.19-.3-.54-.12-.79,.05-.06,1.12-1.49,2.82-1.74,1.01-.15,1.99,.14,2.94,.86,.25,.19,.3,.55,.11,.8-.19,.25-.54,.3-.8,.11-.97-.73-1.95-.86-2.91-.38-.77,.38-1.25,1.02-1.26,1.03-.11,.15-.28,.23-.46,.23Z"/></g></g></g></svg>